<svg xmlns="http://www.w3.org/2000/svg" xmlns:xlink="http://www.w3.org/1999/xlink" width="118" height="118" viewBox="0 0 118 118">
  <defs>
    <filter id="Ellipse_12115" x="0" y="0" width="118" height="118" filterUnits="userSpaceOnUse">
      <feOffset dy="3" input="SourceAlpha"/>
      <feGaussianBlur stdDeviation="3" result="blur"/>
      <feFlood flood-opacity="0.161"/>
      <feComposite operator="in" in2="blur"/>
      <feComposite in="SourceGraphic"/>
    </filter>
  </defs>
  <g id="Group_1187614" data-name="Group 1187614" transform="translate(-799.781 -1970)">
    <g id="Group_1181939" data-name="Group 1181939" transform="translate(808.781 1976)">
      <g transform="matrix(1, 0, 0, 1, -9, -6)" filter="url(#Ellipse_12115)">
        <g id="Ellipse_12115-2" data-name="Ellipse 12115" transform="translate(9 6)" fill="#ff9927" stroke="#b16a1b" stroke-width="2">
          <circle cx="50" cy="50" r="50" stroke="none"/>
          <circle cx="50" cy="50" r="49" fill="none"/>
        </g>
      </g>
    </g>
    <g id="Group_1187901" data-name="Group 1187901" transform="translate(826.308 1993.786)">
      <g id="Group_1187902" data-name="Group 1187902" transform="translate(3.553 2.367)">
        <path id="Path_1242222" data-name="Path 1242222" d="M60.731,47.808a2.894,2.894,0,0,1,.453,3.36,2.7,2.7,0,0,1-3.118,1.395A14.244,14.244,0,0,1,51.334,63.1a13.593,13.593,0,0,1-8.789,1.964c-5.686-.629-12.529-5.227-12.5-14.9-2.77,0-5.541-.012-8.311.022-.235,0-.5.281-.691.488-.5.548-1.177.786-1.566.129-.451-.763-1.031-.636-1.654-.637-2.7,0-5.4-.031-8.1.012-1.117.018-1.536-.388-1.534-1.532q.04-20.367.018-40.735c0-1.474.143-1.6,1.674-1.607,2.533,0,5.066,0,7.6,0,.778,0,1.622.238,2.117-.75.077-.152,1.145-.1,1.238.1.384.825,1.035.65,1.66.652,1.91.005,3.82.016,5.73,0,.845-.009,1.79.307,2.364-.761.074-.138.907.079,1.363.217.406.122.774.519,1.164.526,2.823.047,5.647.056,8.47.009,1.128-.018,1.531.4,1.526,1.535q-.048,11.958.014,23.917a2.733,2.733,0,0,0,.7,1.7c1.944,2.046,4.111,3.9,5.928,6.044,1.959,2.316,4.7,3.258,7.114,4.747,2.392-2.274,4.365-2.678,6.723-1.321A4.433,4.433,0,0,1,66,46.833c.043,5.647.013,11.294.031,16.942,0,.721-.2,1.284-.969,1.309-.866.028-1.046-.581-1.044-1.347.016-5.357.005-10.713.011-16.07a3.16,3.16,0,0,0-1.539-3.041,2.7,2.7,0,0,0-3.767.836M30.141,8.4H21.166a6.386,6.386,0,0,1-.041,1.827c-.135.412-.64.7-.981,1.047-.322-.361-.807-.674-.928-1.093a6.756,6.756,0,0,1-.04-1.811H10.3V48.089h8.877a5.8,5.8,0,0,1,.041-1.771c.154-.442.663-.761,1.015-1.134.312.371.778.7.9,1.123a7.251,7.251,0,0,1,.038,1.853c2.9,0,5.6.016,8.294-.024a1.483,1.483,0,0,0,.848-.525,1.024,1.024,0,0,1,1.616-.066,2.506,2.506,0,0,0,1.313.588c1.324.077,2.656.027,3.984.027H41.1c0-4.586-.024-8.983.02-13.378a2.6,2.6,0,0,0-.876-2.054c-3.2-3.144-6.351-6.332-9.53-9.494-.53-.527-.884-1.076-.225-1.692s1.2-.16,1.7.339q4,4.011,8.016,8.014c.236.236.506.438.827.713V8.383h-8.9a6.47,6.47,0,0,1-.04,1.805c-.132.419-.619.725-.948,1.082-.334-.349-.83-.646-.962-1.059A6.432,6.432,0,0,1,30.141,8.4m2.012,41.762a13.083,13.083,0,0,0,1.453,6.64,11.9,11.9,0,0,0,22.388-4.953,1.41,1.41,0,0,0-.339-.812c-.934-1.207-2-2.326-2.818-3.6-.887-1.383-1.308-3.124-2.368-4.325-2.255-2.558-4.792-4.867-7.371-7.436,0,4.412,0,8.592,0,12.772,0,1.58-.132,1.715-1.7,1.716-3.06,0-6.121,0-9.249,0m21.585-5.1L56,48.485c.123-2.612.123-2.612-2.267-3.43M58.3,47.986l-.251.146a11.755,11.755,0,0,0,.022,1.6,1.16,1.16,0,0,0,.48.7c.144.1.593.034.64-.074a1.234,1.234,0,0,0,.087-.9,12.056,12.056,0,0,0-.978-1.474" transform="translate(-8.192 -5.457)" fill="#09090a"/>
        <path id="Path_1242223" data-name="Path 1242223" d="M33.4,12.9a6.43,6.43,0,0,0,.04,1.815c.132.414.628.71.962,1.059.329-.356.816-.663.947-1.081a6.454,6.454,0,0,0,.04-1.805h8.9V35.116c-.321-.275-.59-.477-.827-.713q-4.013-4-8.016-8.014c-.5-.5-1.033-.964-1.7-.339s-.3,1.164.225,1.691c3.179,3.162,6.333,6.35,9.53,9.494a2.6,2.6,0,0,1,.876,2.054c-.044,4.4-.02,8.792-.02,13.379H40.486c-1.328,0-2.66.049-3.984-.027a2.5,2.5,0,0,1-1.313-.588,1.024,1.024,0,0,0-1.616.066,1.479,1.479,0,0,1-.848.525c-2.695.04-5.39.024-8.294.024a7.251,7.251,0,0,0-.038-1.853c-.119-.425-.585-.752-.9-1.123-.352.373-.861.692-1.015,1.133a5.816,5.816,0,0,0-.041,1.771H13.562V12.873h8.877a6.759,6.759,0,0,0,.04,1.811c.121.419.606.732.929,1.093.341-.344.846-.635.98-1.047A6.382,6.382,0,0,0,24.43,12.9Zm-8.976,7.772a8.816,8.816,0,0,0-.041-1.977c-.084-.355-.619-.883-.887-.848-.384.05-.983.521-1.011.854a24.533,24.533,0,0,0,0,4.089,1.327,1.327,0,0,0,.956.9c.332,0,.859-.534.948-.916a9.156,9.156,0,0,0,.04-2.1m8.974-.009a9.452,9.452,0,0,0,.043,2.1c.089.384.608.92.94.925a1.328,1.328,0,0,0,.964-.889c.115-1.314.038-2.644.051-3.968.007-.723-.343-1.19-1.037-1.005a1.591,1.591,0,0,0-.921.987,7.289,7.289,0,0,0-.04,1.851M24.433,28.75c0-.621-.012-1.242,0-1.862.017-.678-.193-1.123-.967-1.134-.742-.01-1.043.35-1.036,1.066q.02,1.924,0,3.848c-.007.712.285,1.08,1.03,1.072.772-.009.99-.447.973-1.128-.015-.62,0-1.241,0-1.862m0,8.05a9.215,9.215,0,0,0-.044-2.1c-.09-.378-.633-.9-.965-.9a1.334,1.334,0,0,0-.939.918,26.257,26.257,0,0,0,0,4.09c.024.32.625.87.894.832a1.46,1.46,0,0,0,1.006-.871,7.811,7.811,0,0,0,.047-1.974m-1.994,7.832c0,.662.011,1.324,0,1.986-.015.714.314,1.2,1.02,1.023a1.459,1.459,0,0,0,.934-.962,23.478,23.478,0,0,0,0-3.965,1.46,1.46,0,0,0-.932-.965c-.7-.18-1.038.305-1.022,1.02.015.621,0,1.242,0,1.862" transform="translate(-11.455 -9.963)" fill="#7e644d"/>
        <path id="Path_1242227" data-name="Path 1242227" d="M38.121,28.381a9.29,9.29,0,0,1-.042,2.1c-.09.382-.616.914-.948.916a1.328,1.328,0,0,1-.956-.9,24.533,24.533,0,0,1,0-4.089c.028-.332.628-.8,1.011-.854.269-.035.8.493.888.848a8.933,8.933,0,0,1,.043,1.977" transform="translate(-25.146 -17.67)" fill="#0b0a08"/>
        <path id="Path_1242228" data-name="Path 1242228" d="M64.069,28.277a7.308,7.308,0,0,1,.04-1.851,1.592,1.592,0,0,1,.921-.987c.694-.185,1.044.282,1.037,1.005-.013,1.324.064,2.654-.051,3.968a1.326,1.326,0,0,1-.964.889c-.332-.005-.851-.541-.94-.924a9.456,9.456,0,0,1-.043-2.1" transform="translate(-42.122 -17.575)" fill="#0b0a08"/>
        <path id="Path_1242229" data-name="Path 1242229" d="M38.173,48.7c0,.621-.012,1.242,0,1.862.017.681-.2,1.12-.973,1.128-.745.009-1.037-.359-1.03-1.071q.02-1.924,0-3.849c-.007-.715.294-1.076,1.035-1.066.775.011.984.455.967,1.134-.015.62,0,1.241,0,1.862" transform="translate(-25.196 -29.916)" fill="#0b0a08"/>
        <path id="Path_1242230" data-name="Path 1242230" d="M38.125,69.222a7.793,7.793,0,0,1-.046,1.974,1.461,1.461,0,0,1-1.006.871c-.269.037-.87-.512-.894-.832a26.262,26.262,0,0,1,0-4.09,1.333,1.333,0,0,1,.938-.918c.332,0,.875.518.965.9a9.17,9.17,0,0,1,.044,2.1" transform="translate(-25.15 -42.385)" fill="#0b0a08"/>
        <path id="Path_1242231" data-name="Path 1242231" d="M36.178,89.3c0-.621.011-1.242,0-1.862-.016-.715.318-1.2,1.022-1.02a1.459,1.459,0,0,1,.932.965,23.478,23.478,0,0,1,0,3.965,1.459,1.459,0,0,1-.934.962c-.706.179-1.035-.31-1.02-1.023.015-.662,0-1.324,0-1.986" transform="translate(-25.196 -54.633)" fill="#0b0a08"/>
      </g>
    </g>
  </g>
</svg>
