<svg xmlns="http://www.w3.org/2000/svg" xmlns:xlink="http://www.w3.org/1999/xlink" width="118" height="118" viewBox="0 0 118 118">
  <defs>
    <filter id="Ellipse_12115" x="0" y="0" width="118" height="118" filterUnits="userSpaceOnUse">
      <feOffset dy="3" input="SourceAlpha"/>
      <feGaussianBlur stdDeviation="3" result="blur"/>
      <feFlood flood-opacity="0.161"/>
      <feComposite operator="in" in2="blur"/>
      <feComposite in="SourceGraphic"/>
    </filter>
  </defs>
  <g id="Group_1187904" data-name="Group 1187904" transform="translate(-799.781 -1970)">
    <g id="Group_1181939" data-name="Group 1181939" transform="translate(808.781 1976)">
      <g transform="matrix(1, 0, 0, 1, -9, -6)" filter="url(#Ellipse_12115)">
        <g id="Ellipse_12115-2" data-name="Ellipse 12115" transform="translate(9 6)" fill="#f9fafb" stroke="#12263f" stroke-width="2">
          <circle cx="50" cy="50" r="50" stroke="none"/>
          <circle cx="50" cy="50" r="49" fill="none"/>
        </g>
      </g>
    </g>
    <g id="Group_1187909" data-name="Group 1187909" transform="translate(826.111 1993.866)">
      <g id="Group_1187910" data-name="Group 1187910" transform="translate(0 3.497)">
        <path id="Path_1242263" data-name="Path 1242263" d="M4.144,55.759c-.832-.027-1.038-.184-1.217-.986Q1.528,48.489.133,42.2A1.113,1.113,0,0,0,0,41.949V40.035a3.962,3.962,0,0,0,.206-.429A4.546,4.546,0,0,1,3.322,36.6c2.321-.719,4.657-1.391,6.96-2.166a10.209,10.209,0,0,0,6.7-6.8c.5-1.482.948-2.978,1.411-4.471a9.753,9.753,0,0,1,9.092-7.013c3.444-.028,6.888-.023,10.332,0a9.757,9.757,0,0,1,9.155,7.092c.2.669.425,1.328.631,1.994.242.783.144,1.04-.539,1.484-.761.044-1.049-.137-1.283-.837-.282-.843-.533-1.7-.83-2.534a7.769,7.769,0,0,0-7.375-5.27q-4.912-.025-9.825,0a7.761,7.761,0,0,0-7.337,5.233c-.545,1.558-1.009,3.144-1.517,4.715a12.313,12.313,0,0,1-8.313,8.36c-2.255.731-4.533,1.391-6.792,2.109A2.556,2.556,0,0,0,2,41.584q1.384,6.334,2.779,12.664c.187.848.083,1.108-.638,1.511" transform="translate(0 -16.131)" fill="#0d0b09"/>
        <path id="Path_1242264" data-name="Path 1242264" d="M9.918,61.529c.721-.4.824-.663.638-1.512Q9.162,53.686,7.776,47.353a2.556,2.556,0,0,1,1.785-3.089c2.259-.718,4.537-1.378,6.792-2.109a12.312,12.312,0,0,0,8.313-8.36c.509-1.571.972-3.157,1.517-4.715a7.76,7.76,0,0,1,7.337-5.233q4.912-.027,9.825,0a7.769,7.769,0,0,1,7.375,5.27c.3.837.548,1.691.83,2.534.234.7.522.881,1.283.837l.833,2.4c-.636.569-.7.876-.283,1.589a12.423,12.423,0,0,0,7.379,5.759c2.181.664,4.352,1.361,6.527,2.044a7.919,7.919,0,0,1-.072,1.265c-.68,3.158-1.384,6.311-2.08,9.465-1.2,5.423-2.374,10.849-3.593,16.266a5.3,5.3,0,0,1-5.266,4.137H38.869c-4.124,0-8.25.071-12.371-.02-4.105-.091-8.23.424-12.315-.354l.007.007-.1-.145a9.47,9.47,0,0,1-.527-1.343c-.654-2.844-1.276-5.694-1.912-8.542-.175-.786-.395-.959-1.222-.982l-.507-2.5M38.032,45.684a3.407,3.407,0,0,0-2.188,1.284c-1.1-.328-1.2-.227-1.922,2.043-2.625-.787-4.686-.218-5.879,1.621a4.067,4.067,0,0,0-.6,2.554,4.728,4.728,0,0,0,2.071,3.622,4.693,4.693,0,0,0-1.58,5.971c1.042,1.965,3.332,2.654,5.994,1.8.9,2.95,2.351,4.337,4.506,4.319,2.194-.018,3.667-1.421,4.528-4.311,2.706.792,4.854.178,5.936-1.69a4.43,4.43,0,0,0,.5-2.9A4.542,4.542,0,0,0,47.4,56.832c2.1-2.038,2.631-4.228,1.512-6.089C47.765,48.829,45.6,48.2,42.947,49.02c-.048-.183-.1-.364-.141-.548A4.514,4.514,0,0,0,39.5,44.878c-.828-.259-1.229-.027-1.467.806m-.02-5.384a36.044,36.044,0,0,0,4.327-.4A6.473,6.473,0,0,0,41.09,27.166c-1.74-.062-3.486-.062-5.226,0a6.458,6.458,0,0,0-6.083,5.3,6.338,6.338,0,0,0,4.12,7.2,23.165,23.165,0,0,0,4.112.637M35.361,73.656v.006c.34,0,.682.021,1.02,0a.894.894,0,0,0,.909-.888.857.857,0,0,0-.785-.994,11.432,11.432,0,0,0-2.223.009.854.854,0,0,0-.761.955.888.888,0,0,0,.885.912c.317.022.637,0,.956,0m6.093,0c.338,0,.678.024,1.014-.006a.936.936,0,0,0,.916-.945.921.921,0,0,0-.854-.948,12.837,12.837,0,0,0-2.088,0,.952.952,0,0,0,.062,1.9c.315.024.633,0,.95.005m-18.154,0v0c.317,0,.635.018.951,0a.9.9,0,0,0,.892-.9A.84.84,0,0,0,24.4,71.8a11.571,11.571,0,0,0-2.27-.011.851.851,0,0,0-.766,1,.9.9,0,0,0,.92.873c.337.019.676,0,1.014,0m30.378-1.93c-.317,0-.636-.021-.951,0a1.021,1.021,0,0,0-.99.968.97.97,0,0,0,.981.955c.611.029,1.227.03,1.838,0a.955.955,0,0,0,.983-.948,1,1,0,0,0-.974-.975c-.294-.026-.592,0-.888-.005m-6.144,1.926c.339,0,.681.023,1.018-.005a.87.87,0,0,0,.882-.9.854.854,0,0,0-.792-.982,10.982,10.982,0,0,0-2.158,0,.855.855,0,0,0-.789.985.868.868,0,0,0,.886.9c.316.025.636,0,.955,0M62.613,57.931a.942.942,0,0,0-.871.776c-.151.592-.3,1.185-.422,1.783A.97.97,0,0,0,62,61.625a.937.937,0,0,0,1.171-.612,16.027,16.027,0,0,0,.454-2.035.945.945,0,0,0-1.012-1.047m-1.5,9.677c.16-.166.54-.4.678-.738a10.419,10.419,0,0,0,.442-1.778.946.946,0,0,0-.716-1.208.92.92,0,0,0-1.132.742c-.172.609-.324,1.225-.442,1.847-.107.564.372,1.114,1.171,1.136M15.8,63.844c-.78.022-1.272.545-1.177,1.075a15.763,15.763,0,0,0,.488,2.03.87.87,0,0,0,1.1.616.947.947,0,0,0,.743-1.1,10.628,10.628,0,0,0-.476-1.9c-.134-.334-.521-.566-.678-.726m45.029,6.644c-.129-.142-.331-.56-.617-.627a1.42,1.42,0,0,0-1.07.282,5.1,5.1,0,0,0-1.151,1.323,1.329,1.329,0,0,0-.109,1.084,1.159,1.159,0,0,0,.917.479c.753-.024,2.036-1.571,2.029-2.541M13.248,59.053c.146.6.28,1.332.508,2.031a.852.852,0,0,0,1.082.547.841.841,0,0,0,.738-.956,12.938,12.938,0,0,0-.506-2.148A.846.846,0,0,0,14,57.962c-.483.115-.739.462-.751,1.091m4.007,10.729c-.955-.016-1.468.7-1.075,1.36a7.847,7.847,0,0,0,1.471,1.713A.9.9,0,0,0,19,72.673a.984.984,0,0,0-.213-1.359c-.329-.321-.593-.708-.916-1.037a5.355,5.355,0,0,0-.611-.495M62.695,54.55c-.027.706.249,1.062.757,1.177a.841.841,0,0,0,1.06-.583,16.166,16.166,0,0,0,.48-2.088.824.824,0,0,0-.679-.991.855.855,0,0,0-1.125.561c-.216.679-.357,1.383-.493,1.925m-48.5.021c-.133-.54-.274-1.243-.486-1.924a.859.859,0,0,0-1.115-.584.82.82,0,0,0-.7.976,16.046,16.046,0,0,0,.47,2.09.848.848,0,0,0,1.05.6c.511-.1.795-.451.779-1.162M29.335,73.652v.006c.318,0,.638.016.955,0a.87.87,0,0,0,.909-.873.849.849,0,0,0-.766-1,10.953,10.953,0,0,0-2.219,0,.843.843,0,0,0-.753,1.009.855.855,0,0,0,.856.853c.337.028.679.005,1.018.005M12.82,48.667a7.945,7.945,0,0,0-.307-1.133.854.854,0,0,0-1.033-.542.867.867,0,0,0-.757.953,4.9,4.9,0,0,0,.286,1.292.854.854,0,0,0,1.075.553c.508-.115.736-.457.736-1.123m53.341-.474c.051-.724-.233-1.1-.776-1.2a.882.882,0,0,0-1.064.685,5.858,5.858,0,0,0-.239,1.111.855.855,0,0,0,.747,1.01.879.879,0,0,0,1.088-.637,9.588,9.588,0,0,0,.245-.963" transform="translate(-5.773 -21.901)" fill="#c2ad8d"/>
        <path id="Path_1242265" data-name="Path 1242265" d="M73.228,77.085c-2.176-.682-4.346-1.38-6.527-2.044a12.421,12.421,0,0,1-7.379-5.759c-.417-.713-.353-1.02.283-1.589a.99.99,0,0,1,1.271.43,11.276,11.276,0,0,0,7.508,5.41c1.819.468,3.6,1.072,5.393,1.646a4.5,4.5,0,0,1,3.154,5.428c-1.5,6.906-3.028,13.8-4.548,20.706-.391,1.777-.779,3.555-1.186,5.329a6.5,6.5,0,0,1-6.718,5.321q-10.559.01-21.118,0c-6.359,0-12.718-.034-19.077.014a6.654,6.654,0,0,1-6.678-5.087c-.458-1.957-.864-3.925-1.3-5.888-.2-.909-.414-1.815-.612-2.724a1.057,1.057,0,0,1,.665-1.44c.828.022,1.047.195,1.222.982.635,2.848,1.258,5.7,1.912,8.542a9.452,9.452,0,0,0,.527,1.343l.1.145-.007-.006a4.255,4.255,0,0,0,3.854,2.166q20.387.014,40.774,0a4.524,4.524,0,0,0,4.528-3.638q1.134-5.054,2.243-10.114,1.785-8.1,3.561-16.2a2.533,2.533,0,0,0-1.852-2.976" transform="translate(-11.712 -54.706)" fill="#0d0a08"/>
        <path id="Path_1242266" data-name="Path 1242266" d="M96.9,108.226c.238-.833.639-1.065,1.467-.806a4.515,4.515,0,0,1,3.307,3.594c.038.184.094.365.141.548,2.656-.82,4.817-.191,5.968,1.723,1.119,1.861.586,4.051-1.511,6.089a4.543,4.543,0,0,1,1.993,3.171,4.429,4.429,0,0,1-.5,2.9c-1.082,1.868-3.23,2.482-5.936,1.69-.86,2.89-2.334,4.293-4.528,4.311-2.155.018-3.6-1.369-4.506-4.319-2.662.85-4.952.161-5.994-1.8a4.693,4.693,0,0,1,1.58-5.971,4.728,4.728,0,0,1-2.071-3.622,4.067,4.067,0,0,1,.6-2.554c1.194-1.839,3.254-2.408,5.879-1.621.724-2.269.819-2.371,1.922-2.043a1.177,1.177,0,0,1,.271,1.39,3.631,3.631,0,0,0,.368,3.052,5.806,5.806,0,0,1,3.892-.009c1.292-2.251.305-4.341-1.652-4.756a.916.916,0,0,1-.692-.961m.379,14.926a3.811,3.811,0,1,0-3.794-3.82,3.838,3.838,0,0,0,3.794,3.82M95.4,124.78a3.082,3.082,0,0,0,.322,4.081,2.26,2.26,0,0,0,3.212-.048,3.1,3.1,0,0,0,.292-4.038,6.228,6.228,0,0,1-3.825,0m7.573-4.43a6.108,6.108,0,0,1-1.95,3.356c.916,1.579,2.349,2.238,3.765,1.751a2.217,2.217,0,0,0,1.577-2.57c-.193-1.486-1.454-2.446-3.392-2.537m.2-2.063a3.024,3.024,0,0,0,3.19-2.382,2.27,2.27,0,0,0-1.729-2.712,3,3,0,0,0-3.474,1.585l2.013,3.509M93.6,114.948c-1.091-1.7-2.572-2.279-4-1.61a2.228,2.228,0,0,0-1.244,2.9,3.049,3.049,0,0,0,3.3,2,6.027,6.027,0,0,1,1.945-3.294m-1.958,5.415c-1.857.043-3.16,1.018-3.38,2.479a2.237,2.237,0,0,0,1.536,2.606c1.421.5,2.859-.145,3.79-1.726a5.877,5.877,0,0,1-1.946-3.359" transform="translate(-64.638 -84.443)" fill="#0d0706"/>
        <path id="Path_1242267" data-name="Path 1242267" d="M86.626,105.335a2.533,2.533,0,0,1,1.852,2.976q-1.772,8.1-3.561,16.2-1.115,5.058-2.243,10.114a4.524,4.524,0,0,1-4.528,3.638q-20.387.007-40.774,0a4.255,4.255,0,0,1-3.854-2.166c4.085.778,8.21.263,12.315.354,4.122.091,8.248.02,12.371.02h17.41a5.3,5.3,0,0,0,5.266-4.137c1.218-5.418,2.4-10.844,3.593-16.266.7-3.154,1.4-6.307,2.08-9.465a7.952,7.952,0,0,0,.072-1.265" transform="translate(-25.11 -82.956)" fill="#503d32"/>
        <path id="Path_1242268" data-name="Path 1242268" d="M103.649,50.113a23.15,23.15,0,0,1-4.112-.637,6.337,6.337,0,0,1-4.12-7.2,6.458,6.458,0,0,1,6.083-5.3c1.74-.06,3.486-.059,5.226,0a6.473,6.473,0,0,1,1.249,12.734,36.09,36.09,0,0,1-4.327.4m.441-11.3c0,.024,0,.049,0,.073-.808,0-1.616-.019-2.423,0a4.55,4.55,0,0,0-4.418,4.46,4.486,4.486,0,0,0,4.094,4.617,42.924,42.924,0,0,0,5.476,0,4.537,4.537,0,0,0,.629-8.924,23.786,23.786,0,0,0-3.355-.231" transform="translate(-71.41 -31.714)" fill="#0d0b08"/>
        <path id="Path_1242269" data-name="Path 1242269" d="M122.055,110.934a.916.916,0,0,0,.692.961c1.957.415,2.943,2.505,1.651,4.756a5.8,5.8,0,0,0-3.892.009,3.63,3.63,0,0,1-.368-3.052,1.177,1.177,0,0,0-.271-1.39,3.4,3.4,0,0,1,2.187-1.284" transform="translate(-89.797 -87.151)" fill="#d8233f"/>
        <path id="Path_1242270" data-name="Path 1242270" d="M112.438,216.671c-.319,0-.639.018-.956,0a.887.887,0,0,1-.885-.912.854.854,0,0,1,.761-.956,11.432,11.432,0,0,1,2.223-.009.858.858,0,0,1,.785.994.893.893,0,0,1-.908.887c-.338.026-.68.005-1.02.005v-.006" transform="translate(-82.85 -164.915)" fill="#120d03"/>
        <path id="Path_1242271" data-name="Path 1242271" d="M136.678,216.647c-.317,0-.635.019-.95,0a.952.952,0,0,1-.062-1.9,12.838,12.838,0,0,1,2.088,0,.922.922,0,0,1,.854.948.936.936,0,0,1-.916.945c-.335.03-.675.006-1.013.005" transform="translate(-100.997 -164.889)" fill="#120d03"/>
        <path id="Path_1242272" data-name="Path 1242272" d="M64.072,216.7c-.338,0-.677.016-1.015,0a.9.9,0,0,1-.92-.873.851.851,0,0,1,.766-1,11.554,11.554,0,0,1,2.27.011.84.84,0,0,1,.741.959.9.9,0,0,1-.892.9c-.315.022-.634,0-.95,0v0" transform="translate(-46.545 -164.941)" fill="#120d03"/>
        <path id="Path_1242273" data-name="Path 1242273" d="M185.159,214.739c.3,0,.594-.021.888,0a1,1,0,0,1,.974.975.955.955,0,0,1-.984.948c-.611.029-1.227.028-1.838,0a.97.97,0,0,1-.981-.955,1.021,1.021,0,0,1,.989-.968c.315-.025.634,0,.951,0" transform="translate(-137.255 -164.908)" fill="#120d03"/>
        <path id="Path_1242274" data-name="Path 1242274" d="M160.961,216.652c-.318,0-.638.02-.954,0a.869.869,0,0,1-.886-.9.855.855,0,0,1,.79-.985,10.984,10.984,0,0,1,2.159,0,.854.854,0,0,1,.792.982.87.87,0,0,1-.882.9c-.337.028-.679.005-1.018.005" transform="translate(-119.201 -164.894)" fill="#110c03"/>
        <path id="Path_1242275" data-name="Path 1242275" d="M222.647,159.752a.945.945,0,0,1,1.013,1.048,16.11,16.11,0,0,1-.454,2.034.937.937,0,0,1-1.171.612.97.97,0,0,1-.68-1.135c.122-.6.271-1.191.423-1.783a.942.942,0,0,1,.87-.776" transform="translate(-165.807 -123.722)" fill="#110c04"/>
        <path id="Path_1242276" data-name="Path 1242276" d="M217.033,187.116c-.8-.022-1.278-.572-1.171-1.136.118-.621.271-1.238.442-1.847a.92.92,0,0,1,1.132-.742.946.946,0,0,1,.716,1.208,10.389,10.389,0,0,1-.442,1.778c-.138.336-.518.572-.678.738" transform="translate(-161.698 -141.408)" fill="#130e02"/>
        <path id="Path_1242277" data-name="Path 1242277" d="M36.413,183.32c.157.16.544.392.678.726a10.63,10.63,0,0,1,.476,1.9.948.948,0,0,1-.743,1.1.87.87,0,0,1-1.1-.616,15.773,15.773,0,0,1-.488-2.03c-.1-.531.4-1.054,1.177-1.075" transform="translate(-26.387 -141.377)" fill="#130e02"/>
        <path id="Path_1242278" data-name="Path 1242278" d="M210.439,207.865c.007.97-1.277,2.517-2.029,2.541a1.159,1.159,0,0,1-.917-.479,1.328,1.328,0,0,1,.109-1.084,5.1,5.1,0,0,1,1.151-1.323,1.42,1.42,0,0,1,1.069-.283c.286.068.488.486.617.627" transform="translate(-155.385 -159.279)" fill="#100c04"/>
        <path id="Path_1242279" data-name="Path 1242279" d="M29.8,160.868c.011-.629.268-.976.751-1.091a.846.846,0,0,1,1.072.564,12.973,12.973,0,0,1,.506,2.148.842.842,0,0,1-.739.956A.852.852,0,0,1,30.3,162.9c-.227-.7-.361-1.427-.508-2.031" transform="translate(-22.32 -123.717)" fill="#100c04"/>
        <path id="Path_1242280" data-name="Path 1242280" d="M42.159,206.987a5.39,5.39,0,0,1,.611.495c.323.329.587.715.916,1.037a.984.984,0,0,1,.213,1.359.9.9,0,0,1-1.345.183,7.853,7.853,0,0,1-1.471-1.713c-.392-.658.121-1.376,1.075-1.36" transform="translate(-30.678 -159.107)" fill="#0f0b04"/>
        <path id="Path_1242281" data-name="Path 1242281" d="M226.89,138.733c.135-.542.277-1.245.493-1.925a.855.855,0,0,1,1.125-.561.824.824,0,0,1,.679.991,16.212,16.212,0,0,1-.48,2.088.841.841,0,0,1-1.06.583c-.508-.115-.784-.47-.757-1.177" transform="translate(-169.968 -106.084)" fill="#100c04"/>
        <path id="Path_1242282" data-name="Path 1242282" d="M26.677,138.766c.016.71-.268,1.058-.778,1.162a.849.849,0,0,1-1.05-.6,16.087,16.087,0,0,1-.47-2.09.82.82,0,0,1,.7-.976.859.859,0,0,1,1.115.584c.212.681.352,1.384.486,1.924" transform="translate(-18.253 -106.096)" fill="#100c04"/>
        <path id="Path_1242283" data-name="Path 1242283" d="M88.311,216.665c-.339,0-.681.023-1.018-.005a.854.854,0,0,1-.856-.853.844.844,0,0,1,.753-1.009,10.95,10.95,0,0,1,2.219,0,.849.849,0,0,1,.766,1,.87.87,0,0,1-.909.873c-.317.019-.636,0-.955,0v-.006" transform="translate(-64.749 -164.914)" fill="#100c03"/>
        <path id="Path_1242284" data-name="Path 1242284" d="M21.817,117.74c0,.666-.228,1.007-.736,1.123a.854.854,0,0,1-1.075-.553,4.885,4.885,0,0,1-.286-1.292.867.867,0,0,1,.757-.953.854.854,0,0,1,1.033.542,7.946,7.946,0,0,1,.307,1.133" transform="translate(-14.77 -90.974)" fill="#110c03"/>
        <path id="Path_1242285" data-name="Path 1242285" d="M234.485,117.277a9.6,9.6,0,0,1-.245.963.879.879,0,0,1-1.088.637.855.855,0,0,1-.747-1.01,5.857,5.857,0,0,1,.239-1.111.882.882,0,0,1,1.064-.685c.543.1.827.481.776,1.2" transform="translate(-174.097 -90.985)" fill="#110c03"/>
        <path id="Path_1242286" data-name="Path 1242286" d="M33.237,227.54l-.1-.145.1.145" transform="translate(-24.821 -174.396)" fill="#f7900c"/>
        <path id="Path_1242287" data-name="Path 1242287" d="M118.769,147.67a3.811,3.811,0,1,1,.037-7.622,3.811,3.811,0,1,1-.037,7.622" transform="translate(-86.131 -108.961)" fill="#a3ceef"/>
        <path id="Path_1242288" data-name="Path 1242288" d="M120.783,176.907a6.228,6.228,0,0,0,3.825,0,3.1,3.1,0,0,1-.292,4.038,2.26,2.26,0,0,1-3.212.048,3.082,3.082,0,0,1-.322-4.081" transform="translate(-90.023 -136.569)" fill="#ba1933"/>
        <path id="Path_1242289" data-name="Path 1242289" d="M146.979,159.261c1.938.09,3.2,1.05,3.392,2.537a2.217,2.217,0,0,1-1.577,2.57c-1.416.487-2.848-.172-3.765-1.751a6.106,6.106,0,0,0,1.95-3.356" transform="translate(-108.645 -123.354)" fill="#d8233f"/>
        <path id="Path_1242290" data-name="Path 1242290" d="M147.58,135.49l-2.013-3.509a3,3,0,0,1,3.475-1.585,2.27,2.27,0,0,1,1.728,2.712,3.024,3.024,0,0,1-3.19,2.382" transform="translate(-109.049 -101.646)" fill="#bb1a33"/>
        <path id="Path_1242291" data-name="Path 1242291" d="M99.372,132.112a6.029,6.029,0,0,0-1.944,3.294,3.049,3.049,0,0,1-3.3-2,2.228,2.228,0,0,1,1.244-2.9c1.429-.67,2.909-.089,4,1.61" transform="translate(-70.41 -101.607)" fill="#bb1a33"/>
        <path id="Path_1242292" data-name="Path 1242292" d="M97.447,159.316a5.877,5.877,0,0,0,1.946,3.359c-.931,1.581-2.369,2.228-3.79,1.726a2.237,2.237,0,0,1-1.536-2.606c.22-1.461,1.524-2.436,3.38-2.479" transform="translate(-70.442 -123.395)" fill="#d8233f"/>
      </g>
    </g>
  </g>
</svg>
