<svg xmlns="http://www.w3.org/2000/svg" xmlns:xlink="http://www.w3.org/1999/xlink" width="118" height="118" viewBox="0 0 118 118">
  <defs>
    <filter id="Ellipse_12115" x="0" y="0" width="118" height="118" filterUnits="userSpaceOnUse">
      <feOffset dy="3" input="SourceAlpha"/>
      <feGaussianBlur stdDeviation="3" result="blur"/>
      <feFlood flood-opacity="0.161"/>
      <feComposite operator="in" in2="blur"/>
      <feComposite in="SourceGraphic"/>
    </filter>
    <clipPath id="clip-path">
      <rect id="Rectangle_410475" data-name="Rectangle 410475" width="53.679" height="59.135" fill="none"/>
    </clipPath>
  </defs>
  <g id="Group_1187905" data-name="Group 1187905" transform="translate(-799.781 -1970)">
    <g id="Group_1181939" data-name="Group 1181939" transform="translate(808.781 1976)">
      <g transform="matrix(1, 0, 0, 1, -9, -6)" filter="url(#Ellipse_12115)">
        <g id="Ellipse_12115-2" data-name="Ellipse 12115" transform="translate(9 6)" fill="#ff9927" stroke="#b16a1b" stroke-width="2">
          <circle cx="50" cy="50" r="50" stroke="none"/>
          <circle cx="50" cy="50" r="49" fill="none"/>
        </g>
      </g>
    </g>
    <g id="Group_1187912" data-name="Group 1187912" transform="translate(831.942 1996.433)">
      <g id="Group_1187911" data-name="Group 1187911" clip-path="url(#clip-path)">
        <path id="Path_1242293" data-name="Path 1242293" d="M20.726,2.57l1.809-.019c.3,1.233,1.274,1.133,2.206,1.133q12.41,0,24.82,0c3.243,0,4.408,1.146,4.414,4.322.008,4.882-.02,9.764.022,14.645a1.429,1.429,0,0,1-1.158,1.641c-7.517,2.526-15.01,5.124-22.523,7.663a2.982,2.982,0,0,1-1.772.068Q17.117,28.185,5.732,24.22a1.71,1.71,0,0,1-.96-1.231q-.1-7.784-.022-15.57c.028-2.391,1.393-3.674,3.77-3.726,1.695-.037,3.391,0,5.088-.012.846-.005,1.682-.057,1.916-1.122l2.088,0c.515.381,1.029,1.062,1.543,1.062s1.048-.67,1.572-1.047m9.6,25.32,1.518-1.537c1.59.019,2.124-.918,2.115-2.34a4.717,4.717,0,0,0-4.087-4.468,4.621,4.621,0,0,0-4.926,3.51,4.428,4.428,0,0,0,2.723,5.215c.84.279,1.962,1,2.657-.379" transform="translate(-2.541 -1.375)" fill="#e8cbb2"/>
        <path id="Path_1242294" data-name="Path 1242294" d="M7.986,59.033l.14-3.687c1.116.363,2.46.469,3.265,1.183.517.459.126,1.842.362,2.754.123.473.724.822,1.109,1.226.337-.39.843-.733.969-1.182a8.411,8.411,0,0,0,.041-2.086c4.762,1.623,9.343,3.075,13.835,4.763,2.21.83,4.249,1.208,6.461.137a31.414,31.414,0,0,1,3.615-1.287c3.479-1.184,6.96-2.361,10.622-3.6a9.269,9.269,0,0,0,.046,2.187,1.384,1.384,0,0,0,1,.851c.359.006.816-.444,1.06-.808.169-.252.054-.7.056-1.056.014-2.256.013-2.256,2.459-2.55v1.689c0,4.207.013,8.415-.01,12.623-.005.911.136,1.644,1.187,1.828q.019.929.04,1.859a1.2,1.2,0,0,0-1.162,1.605c.136.476.774.807,1.185,1.2q.024.862.049,1.725c-1.084.035-1.326.671-1.3,1.645.048,2.132.015,4.267.015,6.407H9.245v-1.9q0-11.856.008-23.712c0-.936.006-1.8-1.266-1.814m5.888,23.8a8.971,8.971,0,0,0-.045-2.293c-.153-.52-.71-.922-1.088-1.376-.343.44-.979.877-.983,1.32C11.709,85.5,11.133,85,15.859,85c.153,0,.354.055.451-.02.426-.332.823-.7,1.231-1.059-.419-.362-.787-.911-1.268-1.042a10.228,10.228,0,0,0-2.4-.045m34.523,0a21.008,21.008,0,0,0-2.485.02c-.882.113-1.716,1.057-.969,1.472a9.279,9.279,0,0,0,4.038.621c.486.018,1.009-.485,1.476-.808.114-.079.093-.386.094-.588a19.166,19.166,0,0,0-.043-3.077c-.075-.479-.653-.881-1-1.318-.369.417-.928.782-1.061,1.265a10.131,10.131,0,0,0-.046,2.412M13.876,69.824a22.913,22.913,0,0,0-.047-3.21c-.068-.48-.634-.888-.975-1.329-.381.45-1.065.884-1.091,1.354a61.526,61.526,0,0,0,0,6.429c.02.409.68.786,1.045,1.178.356-.4.956-.767,1.019-1.211a22.832,22.832,0,0,0,.05-3.21m34.515,0a22.843,22.843,0,0,0,.048,3.21c.063.444.657.812,1.01,1.215.367-.39,1.033-.765,1.053-1.173a61.149,61.149,0,0,0,0-6.429c-.026-.473-.71-.91-1.091-1.363-.341.44-.908.849-.976,1.328a22.509,22.509,0,0,0-.044,3.211M25.414,82.837a22.094,22.094,0,0,0-3.059.047c-.4.056-.724.633-1.082.974.368.379.719,1.064,1.109,1.086a53.373,53.373,0,0,0,5.819,0c.374-.019.717-.631,1.075-.969-.367-.381-.687-1.01-1.112-1.091a14.678,14.678,0,0,0-2.749-.05m11.572,2.158a19.868,19.868,0,0,0,2.905-.045c.405-.061.736-.619,1.1-.951-.362-.387-.706-1.087-1.09-1.109a49.485,49.485,0,0,0-5.818,0c-.385.023-.73.717-1.093,1.1.361.334.688.9,1.09.958a19.866,19.866,0,0,0,2.905.047" transform="translate(-4.304 -29.829)" fill="#7e644d"/>
        <path id="Path_1242295" data-name="Path 1242295" d="M49.9,42.188C48.844,42,48.7,41.27,48.708,40.36c.024-4.207.011-8.415.011-12.623V26.048c-2.446.293-2.445.293-2.459,2.55,0,.359.112.8-.057,1.056-.244.364-.7.814-1.06.808a1.383,1.383,0,0,1-1-.851,9.269,9.269,0,0,1-.046-2.187c-3.662,1.241-7.143,2.418-10.622,3.6a31.383,31.383,0,0,0-3.615,1.287c-2.213,1.071-4.251.693-6.461-.137-4.492-1.688-9.074-3.14-13.835-4.763A8.411,8.411,0,0,1,9.527,29.5c-.126.45-.632.792-.969,1.182-.385-.4-.987-.753-1.109-1.226-.237-.911.154-2.3-.362-2.754-.8-.714-2.149-.819-3.265-1.183C0,23.9,0,23.9,0,19.621c0-4.361-.009-8.722,0-13.083C.018,2.4,2.342.073,6.475.039a44.509,44.509,0,0,1,4.766.05C11.852.15,12.4.8,12.983,1.183,12.75,2.247,11.914,2.3,11.068,2.3c-1.7.01-3.392-.025-5.088.012C3.6,2.369,2.237,3.652,2.21,6.043q-.087,7.785.021,15.57a1.711,1.711,0,0,0,.96,1.231Q14.575,26.815,26,30.649a2.982,2.982,0,0,0,1.772-.068c7.513-2.539,15.006-5.137,22.523-7.663a1.428,1.428,0,0,0,1.157-1.641c-.042-4.882-.014-9.763-.022-14.645-.006-3.177-1.171-4.32-4.414-4.322q-12.41-.01-24.82,0c-.932,0-1.91.1-2.206-1.133C20.518.8,21.039.09,21.565.086,30.3.018,39.034-.032,47.767.072c3.7.044,5.86,2.531,5.869,6.291.011,4.881-.073,9.763.038,14.642.047,2.116-.14,3.823-2.783,3.976,0,5.16-.007,10.192.006,15.223,0,.852.018,1.668-1,1.984" transform="translate(0 0)" fill="#161615"/>
        <path id="Path_1242296" data-name="Path 1242296" d="M6.912,63.343c1.272.013,1.268.878,1.266,1.814q-.02,11.855-.007,23.712v1.9H51.948c0-2.14.033-4.274-.015-6.406-.022-.973.22-1.61,1.3-1.645.294.409.829.811.842,1.23.079,2.619.106,5.245-.016,7.86-.023.486-.747,1-1.246,1.377-.231.173-.7.034-1.057.034q-21.589,0-43.177,0C6.071,93.22,6,93.144,6,90.631c0-8.481-.019-16.963.039-25.443,0-.617.571-1.23.876-1.846" transform="translate(-3.231 -34.139)" fill="#161615"/>
        <path id="Path_1242297" data-name="Path 1242297" d="M35.8,1.32c-.524.377-1.048,1.046-1.572,1.047S33.2,1.687,32.689,1.3C33.183.919,33.7.2,34.166.232c.565.033,1.094.7,1.638,1.088" transform="translate(-17.618 -0.125)" fill="#161615"/>
        <path id="Path_1242298" data-name="Path 1242298" d="M106.9,98.348c-.412-.4-1.049-.728-1.186-1.2a1.2,1.2,0,0,1,1.162-1.605c1.369,1.007,1.378,1.992.024,2.809" transform="translate(-56.939 -51.491)" fill="#102c31"/>
        <path id="Path_1242299" data-name="Path 1242299" d="M53.818,47.727c-.7,1.384-1.817.659-2.657.379a4.428,4.428,0,0,1-2.723-5.215,4.621,4.621,0,0,1,4.926-3.51A4.717,4.717,0,0,1,57.45,43.85c.009,1.422-.525,2.359-2.115,2.34-.1-.853-.213-1.7-.294-2.559a2.108,2.108,0,0,0-2.681-1.89A2.008,2.008,0,0,0,50.677,43.8a2.09,2.09,0,0,0,1.58,2.312c.86.236,1.726.417,1.561,1.619" transform="translate(-26.033 -21.212)" fill="#161615"/>
        <path id="Path_1242300" data-name="Path 1242300" d="M56.593,50.412c.165-1.2-.7-1.383-1.561-1.619a2.09,2.09,0,0,1-1.58-2.312,2.008,2.008,0,0,1,1.684-2.055,2.108,2.108,0,0,1,2.681,1.89c.08.855.195,1.706.294,2.559l-1.518,1.537" transform="translate(-28.809 -23.897)" fill="#484949"/>
        <path id="Path_1242301" data-name="Path 1242301" d="M18.228,110.686a10.223,10.223,0,0,1,2.4.045c.482.131.85.68,1.268,1.042-.407.356-.8.727-1.23,1.059-.1.075-.3.02-.451.02-4.726-.005-4.149.494-4.1-4.515,0-.443.64-.88.983-1.32.378.454.935.856,1.088,1.376a8.968,8.968,0,0,1,.046,2.293" transform="translate(-8.658 -57.678)" fill="#161615"/>
        <path id="Path_1242302" data-name="Path 1242302" d="M91.26,110.686a10.131,10.131,0,0,1,.046-2.412c.133-.483.692-.847,1.061-1.265.35.437.928.838,1,1.318a19.118,19.118,0,0,1,.044,3.077c0,.2.02.509-.095.588-.466.323-.989.825-1.475.808a9.273,9.273,0,0,1-4.038-.621c-.746-.415.087-1.359.969-1.472a21.008,21.008,0,0,1,2.485-.02" transform="translate(-47.168 -57.673)" fill="#161615"/>
        <path id="Path_1242303" data-name="Path 1242303" d="M18.191,81.441a22.764,22.764,0,0,1-.049,3.21c-.064.444-.663.81-1.02,1.211-.365-.392-1.024-.769-1.045-1.177a61.4,61.4,0,0,1,0-6.429c.026-.47.71-.9,1.091-1.354.341.441.907.849.976,1.329a22.913,22.913,0,0,1,.046,3.21" transform="translate(-8.62 -41.447)" fill="#161615"/>
        <path id="Path_1242304" data-name="Path 1242304" d="M95.581,81.434a22.712,22.712,0,0,1,.045-3.211c.068-.479.635-.888.976-1.328.381.453,1.065.89,1.091,1.363a61.275,61.275,0,0,1,0,6.429c-.021.408-.686.783-1.054,1.173-.353-.4-.947-.771-1.01-1.215a23.051,23.051,0,0,1-.05-3.21" transform="translate(-51.495 -41.443)" fill="#161615"/>
        <path id="Path_1242305" data-name="Path 1242305" d="M40.946,114.924a14.715,14.715,0,0,1,2.749.051c.425.081.745.71,1.112,1.091-.357.338-.7.95-1.074.969a53.383,53.383,0,0,1-5.819,0c-.389-.023-.74-.707-1.109-1.087.359-.34.684-.917,1.082-.974a22.24,22.24,0,0,1,3.059-.047" transform="translate(-19.836 -61.917)" fill="#161615"/>
        <path id="Path_1242306" data-name="Path 1242306" d="M66.216,117.092a19.8,19.8,0,0,1-2.905-.046c-.4-.06-.729-.623-1.09-.958.363-.385.709-1.08,1.093-1.1a49.489,49.489,0,0,1,5.818,0c.384.022.728.722,1.09,1.109-.365.332-.7.89-1.1.951a19.739,19.739,0,0,1-2.905.045" transform="translate(-33.534 -61.926)" fill="#161615"/>
      </g>
    </g>
  </g>
</svg>
