<svg xmlns="http://www.w3.org/2000/svg" xmlns:xlink="http://www.w3.org/1999/xlink" width="118" height="118" viewBox="0 0 118 118">
  <defs>
    <filter id="Ellipse_12115" x="0" y="0" width="118" height="118" filterUnits="userSpaceOnUse">
      <feOffset dy="3" input="SourceAlpha"/>
      <feGaussianBlur stdDeviation="3" result="blur"/>
      <feFlood flood-opacity="0.161"/>
      <feComposite operator="in" in2="blur"/>
      <feComposite in="SourceGraphic"/>
    </filter>
    <clipPath id="clip-path">
      <rect id="Rectangle_410631" data-name="Rectangle 410631" width="73.147" height="67.356" fill="none"/>
    </clipPath>
  </defs>
  <g id="Group_1188001" data-name="Group 1188001" transform="translate(-799.781 -1970)">
    <g id="Group_1181939" data-name="Group 1181939" transform="translate(808.781 1976)">
      <g transform="matrix(1, 0, 0, 1, -9, -6)" filter="url(#Ellipse_12115)">
        <g id="Ellipse_12115-2" data-name="Ellipse 12115" transform="translate(9 6)" fill="#f9f6f2" stroke="#b16a1b" stroke-width="2">
          <circle cx="50" cy="50" r="50" stroke="none"/>
          <circle cx="50" cy="50" r="49" fill="none"/>
        </g>
      </g>
    </g>
    <g id="Group_1188008" data-name="Group 1188008" transform="translate(822.208 1992.322)">
      <g id="Group_1188007" data-name="Group 1188007" clip-path="url(#clip-path)">
        <path id="Path_1242420" data-name="Path 1242420" d="M66.328,30.658c1.08.769,2.173,1.494,3.607,1.084.819.727,1.481.468,2.138-.276a3.618,3.618,0,0,0,.259-4.85,39.251,39.251,0,0,0-4.02-4.04,1.428,1.428,0,0,1-.566-1.7,3.12,3.12,0,0,0-4.063-3.845,1.815,1.815,0,0,1-2.574-.685c1.129-2.246.993-3.669-.467-4.835s-2.769-1.016-4.762.55L54.5,10.821c1.649-2.03,1.744-3.838.342-5.172C53.38,4.262,51.76,4.5,49.345,6.518c-2.157-1.812-4.317-3.652-6.509-5.452-.664-.545-1.367-1.685-2.32-.638-.9.987.222,1.672.771,2.341,1.789,2.178,3.619,4.321,5.361,6.391L43.469,12.5c-1.024-1.071-1.988-2.11-2.985-3.115-2.217-2.235-3.736-2.236-5.994.02-1.626,1.625-3.213,3.289-4.713,4.829l-3.249-3.231c1.952-2.315,3.976-4.652,5.9-7.066.3-.374.145-1.106.2-1.673a7.44,7.44,0,0,0-1.6.122c-.345.1-.61.474-.91.726L23.759,8.459c-2.451-2.063-4.012-2.28-5.507-.849-1.335,1.278-1.241,3.051.339,5.212l-1.354,1.121c-2.017-1.444-3.537-1.581-4.8-.512-1.359,1.147-1.485,2.605-.409,4.927l-1.38,1.189a3.266,3.266,0,0,0-4.2-.071c-1.328.994-1.355,2.359-.978,3.857.078.311-.321.831-.622,1.134a47.615,47.615,0,0,0-3.86,3.807,3.765,3.765,0,0,0,.483,5.516c1.769,1.588,4.051,1.42,6.163-.607,1.231-1.181,2.3-2.536,3.544-3.935l1.5,1.775.367.287a12.254,12.254,0,0,0-1.548,1.112,38.392,38.392,0,0,0-3.046,3.2,2.9,2.9,0,0,0,.02,3.913c.728.881,1.374,2.215,2.959,1.4l2.155,2.207c-.58,1.629,1.618,4,3.484,3.754l2.382,2.142c-.617.922-.084,1.522.549,2.15q7.532,7.478,15.043,14.976c1.616,1.6,3.386,1.6,5.028-.039Q53.1,53.1,66.121,40.06a3.2,3.2,0,0,0,0-5.025c-1.97-1.973-3.968-3.917-5.667-5.592l1.5-2.165a27.208,27.208,0,0,0,2.481,2.8,5.055,5.055,0,0,0,1.887.578" transform="translate(0 0)" fill="#fefefe"/>
        <path id="Path_1242421" data-name="Path 1242421" d="M37.172,66.69l-2.155-2.207a7.7,7.7,0,0,0-.893-2.13c-.694-.83-.843-1.539-.119-2.332,1.184-1.3,2.4-2.563,3.607-3.842q.046.263.091.526l1.826.744c.117-.657.257-1.311.343-1.972.061-.469-.14-1.107.1-1.395,1.153-1.372,2.418-2.649,3.643-3.961l.085.585,1.729.736c.164-.642.368-1.278.477-1.93.079-.474-.168-1.137.074-1.427,1.154-1.381,2.427-2.664,3.657-3.982l.141.574,1.81.712c.112-.652.247-1.3.328-1.958.058-.467-.153-1.132.092-1.386,2.628-2.723,5.317-5.387,8-8.055a1.384,1.384,0,0,1,2.19.027q3.292,3.266,6.588,6.529L68.3,40.7l.4,2.748,2.178-.751c.957.96,2.229,2.175,3.409,3.474.229.252.066.838.137,1.26.119.7.281,1.4.425,2.1l1.8-.824,4.129,4c-.173.975-1.328,2.072.162,2.794.342.166,1.113-.556,1.853-.96,1.538,1.562,3.258,3.314,4.984,5.06,1.385,1.4,1.395,1.587.016,2.968q-7.3,7.3-14.6,14.6c-.263.263-.565.487-.873.75a17.253,17.253,0,0,0-11.3-4.161,17.5,17.5,0,0,0-11.274,4.273c-1.646-1.681-3.239-3.279-4.794-4.913-.561-.589-1.121-.934-1.922-.526l-2.382-2.142c.6-1.633-1.641-4.053-3.484-3.754m34.9-15.419c-.127.375-.61,1.092-.423,1.394A6.046,6.046,0,0,0,73.587,54.6c.264.161,1.279-.325,1.45-.729.3-.708-1.715-2.652-2.969-2.6M72.8,71.244c.765-.9,1.557-1.789,2.263-2.737.1-.129-.159-.707-.39-.843a1.189,1.189,0,0,0-1.051-.081,10.365,10.365,0,0,0-1.97,1.935c-.49.672.1,1.561,1.147,1.725m5.049-12.185.6-.053c.2-.519.71-1.246.531-1.519A8.42,8.42,0,0,0,76.9,55.321c-.619-.447-1.7.437-1.331,1.063a19.521,19.521,0,0,0,2.281,2.676M63.9,43.094c-.109.4-.549,1.123-.348,1.451a6.324,6.324,0,0,0,1.92,1.944c.663.427,1.361.151,1.469-.77.093-.794-1.826-2.686-3.041-2.625m7.291,6.93q.05-.331.1-.662a15.732,15.732,0,0,0-2.883-2.121c-.684-.305-1.216.609-.852,1.207a7.41,7.41,0,0,0,2.083,2.158c.258.179,1.02-.368,1.551-.582M44.363,59.162c.81-1,1.582-1.879,2.246-2.835.1-.148-.207-.774-.472-.929a1.148,1.148,0,0,0-1.048.073,10.818,10.818,0,0,0-1.757,1.745,1.22,1.22,0,0,0-.086,1.059c.133.3.553.461,1.118.887m14.785-14.73c-.27-1.129-1.182-1.656-1.844-1.164a8.152,8.152,0,0,0-1.85,1.848c-.483.7,0,1.683.667,1.435a13.783,13.783,0,0,0,3.027-2.119m-4.1,4c-.2-1.056-1.112-1.61-1.793-1.108a8.526,8.526,0,0,0-1.916,1.961c-.487.7.221,1.768.881,1.413a18.523,18.523,0,0,0,2.828-2.266m24.7,12.692c-.164.708-.343,1.8.886,1.645.66-.084,1.207-1.063,1.805-1.637-.63-.609-1.188-1.595-1.909-1.733-.987-.19-.969.816-.782,1.726m-37.3-.068c.433-.856.255-1.784-.836-1.659-.652.075-1.2,1.068-1.792,1.649.606.613,1.144,1.629,1.834,1.746,1.059.181,1.1-.8.795-1.736M61.14,42.448c.84.242,1.825.306,1.64-.835-.108-.667-1.071-1.669-1.638-1.661a2.411,2.411,0,0,0-1.74,1.593c-.177,1.2.868,1.13,1.738.9M51.052,69.721c-1.014-.827-1.907-1.6-2.859-2.281-.115-.083-.724.226-.8.457a1.5,1.5,0,0,0,.065,1.2,8.588,8.588,0,0,0,1.66,1.658,1.229,1.229,0,0,0,1.059.1c.292-.13.452-.557.878-1.136m-4.145-4.108A16.686,16.686,0,0,0,44.2,63.452c-.656-.34-1.377.777-.9,1.435a8.839,8.839,0,0,0,1.843,1.873c.719.533,1.524.029,1.764-1.147m3.05-14.527-.607-.06L47.18,53.747c.433.333,1.152,1.025,1.255.943a11.7,11.7,0,0,0,2.212-2.252c.135-.188-.44-.888-.688-1.352m28.53,12.177-.628-.105-2.327,2.791c.453.307,1.165.971,1.316.861A9.255,9.255,0,0,0,78.985,64.7c.17-.241-.313-.943-.5-1.434M52.242,70.9c-.492.8-1.039,1.382-.93,1.555a6.158,6.158,0,0,0,1.582,1.6,2.8,2.8,0,0,0,.983-.841A21.834,21.834,0,0,0,52.242,70.9m19.29,1.586c-.761-.507-1.389-1.087-1.526-.988a7.35,7.35,0,0,0-1.564,1.686c-.034.047.811.946.958.872a14.918,14.918,0,0,0,2.132-1.57" transform="translate(-23.596 -23.552)" fill="#c59a76"/>
        <path id="Path_1242422" data-name="Path 1242422" d="M19.443,49.034c.8-.408,1.362-.063,1.922.526,1.555,1.634,3.149,3.232,4.794,4.913A17.5,17.5,0,0,1,37.433,50.2a17.251,17.251,0,0,1,11.3,4.161c.308-.263.61-.488.873-.751q7.3-7.293,14.6-14.6c1.379-1.38,1.369-1.566-.016-2.968-1.725-1.747-3.446-3.5-4.984-5.06-.739.4-1.511,1.126-1.853.96-1.49-.722-.336-1.819-.162-2.794l-4.129-4-1.8.824c-.144-.7-.306-1.4-.425-2.1-.071-.423.092-1.008-.137-1.26-1.18-1.3-2.452-2.514-3.409-3.474l-2.178.751-.4-2.748L45.195,17q-3.294-3.265-6.588-6.53a1.384,1.384,0,0,0-2.19-.027c-2.684,2.668-5.373,5.332-8,8.055-.245.254-.034.919-.092,1.386-.081.656-.216,1.306-.328,1.958l-1.811-.712-.141-.574c-1.23,1.318-2.5,2.6-3.656,3.982-.243.291,0,.953-.075,1.427-.108.652-.313,1.287-.477,1.93l-1.729-.736-.085-.585c-1.225,1.311-2.49,2.589-3.643,3.961-.242.288-.041.926-.1,1.394-.086.661-.226,1.315-.344,1.972l-1.826-.744q-.045-.263-.091-.526c-1.2,1.279-2.424,2.544-3.607,3.842-.723.793-.574,1.5.119,2.332a7.712,7.712,0,0,1,.893,2.129c-1.585.819-2.231-.515-2.959-1.4a2.9,2.9,0,0,1-.02-3.913,38.438,38.438,0,0,1,3.046-3.2,12.254,12.254,0,0,1,1.548-1.112l-.367-.287-1.5-1.775C9.924,30.648,8.859,32,7.628,33.184c-2.112,2.027-4.394,2.195-6.163.607a3.765,3.765,0,0,1-.483-5.516,47.663,47.663,0,0,1,3.86-3.807c.3-.3.7-.823.622-1.134-.376-1.5-.349-2.863.978-3.857a3.266,3.266,0,0,1,4.2.071l1.38-1.189c-1.076-2.322-.95-3.78.409-4.927,1.267-1.069,2.786-.932,4.8.512l1.354-1.121c-1.579-2.162-1.674-3.934-.338-5.212,1.5-1.431,3.056-1.214,5.507.849l6.358-5.343c.3-.252.566-.627.91-.726a7.462,7.462,0,0,1,1.6-.122c-.056.567.1,1.3-.2,1.673-1.925,2.415-3.949,4.751-5.9,7.066l3.249,3.231c1.5-1.54,3.087-3.2,4.713-4.829,2.258-2.256,3.776-2.255,5.994-.02,1,1.006,1.961,2.044,2.985,3.115l3.179-3.345c-1.742-2.07-3.572-4.214-5.361-6.391-.549-.668-1.671-1.354-.771-2.341.953-1.046,1.656.093,2.32.638,2.192,1.8,4.351,3.64,6.509,5.452,2.415-2.015,4.035-2.256,5.494-.868,1.4,1.334,1.307,3.142-.342,5.172l1.383,1.244c1.993-1.566,3.3-1.715,4.762-.55s1.6,2.589.468,4.835a1.814,1.814,0,0,0,2.574.685,3.12,3.12,0,0,1,4.063,3.845,1.427,1.427,0,0,0,.566,1.7,39.251,39.251,0,0,1,4.02,4.04,3.618,3.618,0,0,1-.26,4.85c-.656.744-1.319,1-2.138.277a4.906,4.906,0,0,1,.328-1.374c.888-1.532.863-2.42-.462-3.7-1.215-1.175-2.547-2.23-3.574-3.119l-2.779,2.219a31.828,31.828,0,0,1,2.483,2.955,5.429,5.429,0,0,1,.4,1.937,5.055,5.055,0,0,1-1.887-.578,27.173,27.173,0,0,1-2.481-2.8l-1.5,2.165c1.7,1.674,3.7,3.619,5.667,5.592a3.2,3.2,0,0,1,0,5.025Q53.1,53.1,40.061,66.121c-1.642,1.638-3.412,1.644-5.028.039Q27.5,58.682,19.991,51.184c-.633-.628-1.166-1.228-.549-2.15M27.873,56c2.955,2.978,5.825,5.921,8.782,8.774a1.7,1.7,0,0,0,1.662-.008c2.984-2.885,5.882-5.859,8.8-8.806-4.594-4.807-14-4.83-19.245.04M7.06,25.235c-1.437,1.335-2.891,2.574-4.2,3.946a1.944,1.944,0,0,0-.16,2.9,1.874,1.874,0,0,0,2.88.059c1.44-1.361,2.734-2.874,4.069-4.3l-2.585-2.6m6.633-5.512-4.841,4.1,2.177,2.271,4.033-4.784-1.369-1.586m44.239-.5,4.2,4.971,2.187-2.244L59.408,17.79l-1.476,1.437M45.218,13.874l1.269,1.555,3.036-2.9-1.374-1.566-2.931,2.913m-21.687.67,2.838,2.847L27.662,16,25,12.835l-1.471,1.709M51.1,14.469l-2.766,2.57,1.033,1.322L52.08,15.59l-.976-1.12m-.081,5.548,1.726,1.419c2.656-2.33,2.664-2.369.861-3.826l-2.588,2.407m-34.559-.324,4.169-5-.427-.436-4.943,4.13,1.2,1.309m1.613,1.323.371-.232,1.764,2.4,1.7-1.145-2.584-2.482-1.249,1.457m5.581-.7,1.185-1.321-2.816-2.625-1.139,1.319,2.77,2.627m29.212-8-.407.418,4.053,4.824,1.336-1.113L52.87,12.311m-38.9,13.563-1.41,1.7,1.878,1.8,1.444-1.548-1.912-1.949M56.533,20.89l-2.249,2.117,1.186,1.487,2.3-2.214L56.533,20.89m1.96,6.512,2.13-1.71L59.3,24.125,57.2,26l1.3,1.4m-42.981-3.31,2.162,2.134,1.056-1.12-2.153-2.348-1.065,1.334M52.92,9.571a6.8,6.8,0,0,0,.715-1.788c.023-.275-.583-.891-.8-.846a9.634,9.634,0,0,0-1.957.885l2.04,1.749m-30.6.118a15.14,15.14,0,0,0-2.213-.75c-.172-.032-.685.573-.638.8a8.284,8.284,0,0,0,.761,1.71l2.09-1.762m-6.913,5.832q-.024-.257-.047-.514c-.52.029-1.243-.139-1.508.136-.321.334-.255,1.04-.357,1.585l.407.086,1.5-1.293m43.752-.673L59.7,14.7c-.121-.514-.084-1.234-.409-1.486s-1.02-.057-1.552-.057l-.063.41,1.486,1.28" transform="translate(0 0)" fill="#25252c"/>
        <path id="Path_1242423" data-name="Path 1242423" d="M217.042,86.592a5.428,5.428,0,0,0-.4-1.937,31.827,31.827,0,0,0-2.483-2.955l2.779-2.219c1.027.889,2.359,1.943,3.574,3.119,1.325,1.283,1.351,2.171.462,3.7a4.9,4.9,0,0,0-.328,1.374c-1.434.409-2.527-.316-3.607-1.085m3.566-2.535a33.3,33.3,0,0,0-2.783-2.1c-.1-.065-.661.6-1.008.929A20.726,20.726,0,0,0,218.9,84.9c.161.122.793-.376,1.709-.844" transform="translate(-150.713 -55.934)" fill="#e1922d"/>
        <path id="Path_1242424" data-name="Path 1242424" d="M45.6,145.547c1.843-.3,4.089,2.121,3.484,3.754-1.866.244-4.064-2.124-3.484-3.754" transform="translate(-32.025 -102.409)" fill="#27272e"/>
        <path id="Path_1242425" data-name="Path 1242425" d="M162.51,93.559c1.253-.055,3.27,1.889,2.969,2.6-.172.4-1.187.889-1.451.729a6.046,6.046,0,0,1-1.942-1.933c-.187-.3.3-1.018.423-1.394" transform="translate(-114.037 -65.841)" fill="#2a292e"/>
        <path id="Path_1242426" data-name="Path 1242426" d="M162.954,152.066c-1.043-.164-1.637-1.054-1.147-1.725a10.376,10.376,0,0,1,1.97-1.935,1.188,1.188,0,0,1,1.051.081c.23.136.486.714.39.843-.706.948-1.5,1.832-2.263,2.737" transform="translate(-113.747 -104.374)" fill="#2a292e"/>
        <path id="Path_1242427" data-name="Path 1242427" d="M177.536,110.681a19.522,19.522,0,0,1-2.281-2.676c-.374-.625.713-1.509,1.331-1.063a8.425,8.425,0,0,1,2.083,2.167c.179.273-.334,1-.531,1.519l-.6.053" transform="translate(-123.28 -75.174)" fill="#29282d"/>
        <path id="Path_1242428" data-name="Path 1242428" d="M135.1,65.957c1.215-.061,3.134,1.831,3.041,2.625-.108.921-.806,1.2-1.469.77a6.32,6.32,0,0,1-1.92-1.944c-.2-.329.238-1.051.348-1.451" transform="translate(-94.794 -46.415)" fill="#2a292e"/>
        <path id="Path_1242429" data-name="Path 1242429" d="M151.744,82.6c-.531.215-1.293.762-1.551.583a7.411,7.411,0,0,1-2.083-2.158c-.364-.6.168-1.512.851-1.207a15.733,15.733,0,0,1,2.883,2.121l-.1.662" transform="translate(-104.147 -56.127)" fill="#29282d"/>
        <path id="Path_1242430" data-name="Path 1242430" d="M67.251,111.032c-.564-.426-.985-.592-1.117-.887a1.218,1.218,0,0,1,.087-1.059,10.808,10.808,0,0,1,1.757-1.745,1.148,1.148,0,0,1,1.048-.073c.265.155.574.782.472.929-.665.956-1.437,1.838-2.247,2.835" transform="translate(-46.483 -75.423)" fill="#28282d"/>
        <path id="Path_1242431" data-name="Path 1242431" d="M110.76,67.272a13.8,13.8,0,0,1-3.028,2.119c-.67.248-1.15-.734-.667-1.435a8.141,8.141,0,0,1,1.85-1.847c.662-.493,1.574.034,1.844,1.163" transform="translate(-75.208 -46.393)" fill="#28282d"/>
        <path id="Path_1242432" data-name="Path 1242432" d="M96.983,80.9a18.506,18.506,0,0,1-2.828,2.266c-.661.355-1.368-.712-.881-1.413A8.532,8.532,0,0,1,95.19,79.79c.681-.5,1.594.052,1.793,1.108" transform="translate(-65.527 -56.02)" fill="#29282d"/>
        <path id="Path_1242433" data-name="Path 1242433" d="M189.282,122.659c-.187-.91-.2-1.916.782-1.726.721.139,1.278,1.125,1.909,1.733-.6.575-1.145,1.554-1.805,1.637-1.229.156-1.05-.936-.886-1.645" transform="translate(-133.123 -85.089)" fill="#29282d"/>
        <path id="Path_1242434" data-name="Path 1242434" d="M57.423,122.619c.305.937.265,1.917-.795,1.736-.691-.118-1.228-1.133-1.834-1.746.594-.581,1.141-1.574,1.792-1.649,1.092-.125,1.27.8.836,1.659" transform="translate(-38.561 -85.116)" fill="#29282e"/>
        <path id="Path_1242435" data-name="Path 1242435" d="M122.551,57.85c-.87.227-1.915.3-1.738-.9a2.411,2.411,0,0,1,1.74-1.593c.566-.008,1.529.994,1.638,1.661.186,1.141-.8,1.078-1.64.835" transform="translate(-85.007 -38.955)" fill="#28282d"/>
        <path id="Path_1242436" data-name="Path 1242436" d="M83.763,150.387c-.425.579-.585,1.006-.877,1.136a1.23,1.23,0,0,1-1.059-.1,8.58,8.58,0,0,1-1.66-1.658,1.5,1.5,0,0,1-.065-1.2c.079-.23.688-.539.8-.457.952.685,1.845,1.453,2.859,2.281" transform="translate(-56.306 -104.219)" fill="#28282d"/>
        <path id="Path_1242437" data-name="Path 1242437" d="M69.747,136.691c-.241,1.176-1.045,1.68-1.764,1.147a8.839,8.839,0,0,1-1.844-1.872c-.48-.658.241-1.775.9-1.435a16.692,16.692,0,0,1,2.711,2.161" transform="translate(-46.435 -94.63)" fill="#27262c"/>
        <path id="Path_1242438" data-name="Path 1242438" d="M82.385,92.794c.248.464.824,1.164.688,1.352A11.691,11.691,0,0,1,80.861,96.4c-.1.082-.821-.61-1.254-.943l2.171-2.721.607.06" transform="translate(-56.023 -65.261)" fill="#27262c"/>
        <path id="Path_1242439" data-name="Path 1242439" d="M178.262,133.79c.184.491.667,1.193.5,1.434a9.246,9.246,0,0,1-2.136,2.113c-.151.11-.863-.554-1.316-.861l2.327-2.79.628.1" transform="translate(-123.37 -94.079)" fill="#27262c"/>
        <path id="Path_1242440" data-name="Path 1242440" d="M94.45,159.835a21.867,21.867,0,0,1,1.635,2.318,2.8,2.8,0,0,1-.983.842,6.158,6.158,0,0,1-1.582-1.6c-.109-.173.438-.76.93-1.555" transform="translate(-65.804 -112.482)" fill="#29282e"/>
        <path id="Path_1242441" data-name="Path 1242441" d="M154.463,162.815a14.915,14.915,0,0,1-2.132,1.57c-.148.074-.992-.825-.958-.872a7.35,7.35,0,0,1,1.564-1.686c.137-.1.765.481,1.526.988" transform="translate(-106.526 -113.876)" fill="#29282e"/>
        <path id="Path_1242442" data-name="Path 1242442" d="M94.083,180.348c5.247-4.869,14.651-4.847,19.245-.04-2.92,2.946-5.818,5.92-8.8,8.806a1.7,1.7,0,0,1-1.662.008c-2.957-2.853-5.827-5.8-8.782-8.774" transform="translate(-66.21 -124.35)" fill="#7e634d"/>
        <path id="Path_1242443" data-name="Path 1242443" d="M12.089,85.178l2.585,2.6c-1.334,1.426-2.629,2.939-4.069,4.3a1.874,1.874,0,0,1-2.88-.059,1.943,1.943,0,0,1,.16-2.9c1.313-1.373,2.766-2.612,4.2-3.947m-1.019,2.087a32.812,32.812,0,0,0-2.131,2.671c-.064.1.606.679.936,1.036a24.618,24.618,0,0,0,2.145-2.137c.1-.121-.459-.779-.95-1.57" transform="translate(-5.029 -59.943)" fill="#e0912c"/>
        <path id="Path_1242444" data-name="Path 1242444" d="M34.717,66.572l1.369,1.586-4.033,4.784-2.177-2.271,4.841-4.1" transform="translate(-21.025 -46.849)" fill="#df902c"/>
        <path id="Path_1242445" data-name="Path 1242445" d="M195.544,61.485l1.476-1.437,4.916,4.164-2.187,2.244-4.2-4.971" transform="translate(-137.612 -42.258)" fill="#e0912c"/>
        <path id="Path_1242446" data-name="Path 1242446" d="M165.926,48.837l.976,1.12-2.709,2.771-1.033-1.322,2.766-2.57" transform="translate(-114.822 -34.368)" fill="#f4f3f4"/>
        <path id="Path_1242447" data-name="Path 1242447" d="M172.221,61.847l2.588-2.407c1.8,1.456,1.794,1.5-.861,3.825l-1.727-1.418" transform="translate(-121.199 -41.83)" fill="#f4f3f5"/>
        <path id="Path_1242448" data-name="Path 1242448" d="M52.72,53.55l-1.2-1.309,4.943-4.13.427.436-4.169,5" transform="translate(-36.257 -33.858)" fill="#db8e2c"/>
        <path id="Path_1242449" data-name="Path 1242449" d="M177.488,41.553l4.982,4.129-1.337,1.112-4.053-4.824Z" transform="translate(-124.618 -29.242)" fill="#de902c"/>
        <path id="Path_1242450" data-name="Path 1242450" d="M185.481,70.509l1.235,1.391-2.3,2.214-1.186-1.488,2.249-2.117" transform="translate(-128.947 -49.62)" fill="#f0eff1"/>
        <path id="Path_1242451" data-name="Path 1242451" d="M194.357,84.706l-1.3-1.4,2.1-1.879L196.487,83l-2.13,1.709" transform="translate(-135.864 -57.305)" fill="#f6f6f7"/>
        <path id="Path_1242452" data-name="Path 1242452" d="M52.36,78.152l1.065-1.334,2.153,2.348-1.056,1.12L52.36,78.152" transform="translate(-36.848 -54.06)" fill="#fdfdfd"/>
        <path id="Path_1242453" data-name="Path 1242453" d="M173.781,26.041l-2.04-1.749a9.631,9.631,0,0,1,1.957-.885c.214-.045.821.57.8.846a6.8,6.8,0,0,1-.715,1.788" transform="translate(-120.861 -16.471)" fill="#ededee"/>
        <path id="Path_1242454" data-name="Path 1242454" d="M68.557,30.919l-2.09,1.762a8.273,8.273,0,0,1-.761-1.709c-.047-.229.465-.834.638-.8a15.152,15.152,0,0,1,2.213.75" transform="translate(-46.237 -21.23)" fill="#f6f6f7"/>
        <path id="Path_1242455" data-name="Path 1242455" d="M47.46,51.109l-1.5,1.293-.407-.086c.1-.545.036-1.251.357-1.585.264-.275.988-.108,1.508-.136q.024.257.047.514" transform="translate(-32.054 -35.588)" fill="#ebeaec"/>
        <path id="Path_1242456" data-name="Path 1242456" d="M196.151,45.925l-1.486-1.28.063-.41c.532,0,1.22-.2,1.552.057s.287.972.409,1.486l-.537.148" transform="translate(-136.993 -31.077)" fill="#ededee"/>
        <path id="Path_1242457" data-name="Path 1242457" d="M226.913,89.921c-.916.468-1.547.966-1.709.844a20.728,20.728,0,0,1-2.083-2.018c.347-.328.9-.994,1.008-.929a33.3,33.3,0,0,1,2.783,2.1" transform="translate(-157.02 -61.798)" fill="#2d292a"/>
        <path id="Path_1242458" data-name="Path 1242458" d="M15.318,92.222c.491.792,1.049,1.449.95,1.57a24.619,24.619,0,0,1-2.145,2.137c-.33-.357-1-.939-.936-1.036a32.811,32.811,0,0,1,2.131-2.671" transform="translate(-9.278 -64.9)" fill="#2b282a"/>
      </g>
    </g>
  </g>
</svg>
