<svg xmlns="http://www.w3.org/2000/svg" xmlns:xlink="http://www.w3.org/1999/xlink" width="118" height="118" viewBox="0 0 118 118">
  <defs>
    <filter id="Ellipse_12115" x="0" y="0" width="118" height="118" filterUnits="userSpaceOnUse">
      <feOffset dy="3" input="SourceAlpha"/>
      <feGaussianBlur stdDeviation="3" result="blur"/>
      <feFlood flood-opacity="0.161"/>
      <feComposite operator="in" in2="blur"/>
      <feComposite in="SourceGraphic"/>
    </filter>
    <clipPath id="clip-path">
      <rect id="Rectangle_410630" data-name="Rectangle 410630" width="36.474" height="61.878" fill="none"/>
    </clipPath>
  </defs>
  <g id="Group_1187999" data-name="Group 1187999" transform="translate(-799.781 -1970)">
    <g id="Group_1181939" data-name="Group 1181939" transform="translate(808.781 1976)">
      <g transform="matrix(1, 0, 0, 1, -9, -6)" filter="url(#Ellipse_12115)">
        <g id="Ellipse_12115-2" data-name="Ellipse 12115" transform="translate(9 6)" fill="#f9f6f2" stroke="#b16a1b" stroke-width="2">
          <circle cx="50" cy="50" r="50" stroke="none"/>
          <circle cx="50" cy="50" r="49" fill="none"/>
        </g>
      </g>
    </g>
    <g id="Group_1188006" data-name="Group 1188006" transform="translate(835.623 1995.061)">
      <g id="Group_1188005" data-name="Group 1188005" clip-path="url(#clip-path)">
        <path id="Path_1242400" data-name="Path 1242400" d="M45.509,14.66l.008-2.685c1.037-.425.793-1.338.816-2.147.046-1.613.458-2.148,1.768-2.151,4.837-.013,9.674.005,14.511-.007a2.393,2.393,0,0,1,2.394,1.66c1.185,2.975,2.312,5.974,3.512,8.943a2.661,2.661,0,0,1-.437,2.792,23.28,23.28,0,0,0-4.745,14.42c.021,6.964.006,13.927,0,20.891,0,1.907-.432,2.346-2.357,2.35q-6,.013-12.009,0c-2.114,0-2.641-.545-2.641-2.673q0-16.325,0-32.649c0-.721.083-1.451-.821-1.729q-.006-1.341-.013-2.683c.264-.223.735-.428.757-.674a17,17,0,0,0,0-2.983c-.021-.245-.491-.451-.755-.675m20.7,4.761a9.819,9.819,0,0,0-.712-2.023c-.236-.367-.818-.807-1.164-.747-.695.121-.671.694-.513,1.374a4.558,4.558,0,0,1-.18,1.959c-.09.386-.466.7-.584,1.086-.083.27-.055.748.118.88.244.187.861.306.982.166.764-.891,1.435-1.862,2.054-2.7m-3.59,6.126c-.1-.154-.329-.742-.509-.728-.416.033-1.053.267-1.169.58a31.643,31.643,0,0,0-1.255,4.285c-.069.319.444.764.689,1.151.312-.206.813-.349.905-.628.481-1.454.857-2.941,1.338-4.661M60.838,36.819a9.563,9.563,0,0,0-.036-1.977c-.088-.41-.522-.745-.8-1.114-.305.376-.842.734-.874,1.132a25.229,25.229,0,0,0,0,4.087c.03.364.6.682.926,1.021.26-.346.677-.665.745-1.046a12.091,12.091,0,0,0,.035-2.1m0,9.369h-.007a18.433,18.433,0,0,0-.034-2.373c-.04-.306-.5-.816-.7-.786-.355.053-.923.432-.939.7a36.456,36.456,0,0,0-.011,4.621c.02.308.659.575,1.012.86.225-.341.586-.661.647-1.029a12.473,12.473,0,0,0,.03-2m0,7.935c0-.291.1-.642-.023-.859a6.965,6.965,0,0,0-.9-1.044c-.277.334-.692.631-.8,1.013a3.008,3.008,0,0,0,0,1.6,5.509,5.509,0,0,0,.869,1.327,13.4,13.4,0,0,0,.836-1.3c.1-.2.017-.49.015-.739M63.773,13a19.468,19.468,0,0,0-1.024-2.394,1.1,1.1,0,0,0-1.034-.294,1.085,1.085,0,0,0-.443.957,7.725,7.725,0,0,0,.806,2.084,1.18,1.18,0,0,0,.966.506c.271-.045.47-.53.731-.859" transform="translate(-34.071 -5.742)" fill="#6d513d"/>
        <path id="Path_1242401" data-name="Path 1242401" d="M42.639,15.932c.9.278.821,1.008.821,1.729q-.01,16.325,0,32.649c0,2.128.527,2.669,2.641,2.673q6,.01,12.009,0c1.925,0,2.356-.443,2.357-2.35,0-6.964.017-13.927,0-20.891A23.281,23.281,0,0,1,65.2,15.321a2.661,2.661,0,0,0,.437-2.792c-1.2-2.969-2.327-5.968-3.512-8.943a2.393,2.393,0,0,0-2.394-1.66c-4.837.013-9.674-.005-14.511.007-1.311,0-1.722.538-1.768,2.151-.023.809.221,1.722-.816,2.147a8.118,8.118,0,0,1-.9-1.408,3.389,3.389,0,0,1-.026-1.24A3.335,3.335,0,0,1,45.21.029Q52.4-.029,59.595.03a4.417,4.417,0,0,1,4.3,3.041C65.027,5.917,66.07,8.8,67.24,11.63a4.4,4.4,0,0,1-.553,4.68,22.414,22.414,0,0,0-4.422,14.13c.042,6.713.013,13.426.009,20.139,0,3-1.158,4.154-4.141,4.154q-6.254,0-12.508,0c-2.647,0-3.917-1.26-3.918-3.883q0-16.637-.01-33.273c0-.765.064-1.418.941-1.646" transform="translate(-31.193 0)" fill="#25262d"/>
        <path id="Path_1242402" data-name="Path 1242402" d="M3.24,1.887a11.35,11.35,0,0,1-2.188-.038C.661,1.768.348,1.306,0,1.015.319.7.627.117.958.1,3.08.019,5.21.018,7.333.1c.322.013.623.6.933.924-.341.292-.646.759-1.03.838A11.657,11.657,0,0,1,5.017,1.9V3.341q0,8.194,0,16.388a2.294,2.294,0,0,1-.043.985c-.17.317-.544.727-.827.726s-.676-.4-.854-.713a2.211,2.211,0,0,1-.051-.984q0-8.256,0-16.512Z" transform="translate(0 -0.03)" fill="#26272f"/>
        <path id="Path_1242403" data-name="Path 1242403" d="M3.243,190.972c0-1.889.02-3.593-.01-5.3-.012-.708.166-1.349.921-1.346.795,0,.879.7.87,1.377-.024,1.7-.008,3.394-.008,5.255a14.647,14.647,0,0,1,2.3.036c.344.057.625.495.935.76-.3.326-.586.923-.9.935-2.119.086-4.243.09-6.363.012-.34-.012-.661-.565-.99-.868.329-.289.624-.752,1-.827a12.14,12.14,0,0,1,2.245-.038" transform="translate(-0.001 -138.015)" fill="#25262d"/>
        <path id="Path_1242404" data-name="Path 1242404" d="M12.83,137.387c0-1.245-.078-2.5.041-3.732.043-.445.561-.845.863-1.265.289.426.816.845.83,1.279.079,2.571.037,5.146.04,7.719,0,.621-.079,1.325-.857,1.169a1.593,1.593,0,0,1-.875-1.189c-.115-1.318-.041-2.653-.042-3.981" transform="translate(-9.587 -99.126)" fill="#24252d"/>
        <path id="Path_1242405" data-name="Path 1242405" d="M43.524,224.737a9.281,9.281,0,0,1,1.886.035c.312.07.792.532.757.745a1.327,1.327,0,0,1-.748.918,7.062,7.062,0,0,1-1.812.041,3.852,3.852,0,0,1-.132,1.244c-.166.347-.556.588-.848.875-.3-.337-.827-.655-.856-1.014a22.578,22.578,0,0,1,0-3.869c.034-.374.6-.7.928-1.046a6.91,6.91,0,0,1,.8,1.054c.116.227.021.561.021,1.016" transform="translate(-31.215 -166.721)" fill="#24262d"/>
        <path id="Path_1242406" data-name="Path 1242406" d="M112.435,224.745c0-.46-.125-.893.031-1.168a4.283,4.283,0,0,1,.962-.905c.253.317.7.621.726.954a29.061,29.061,0,0,1,0,3.975c-.025.352-.525.669-.807,1a5.852,5.852,0,0,1-.9-.993,2.6,2.6,0,0,1-.082-1.01,6.37,6.37,0,0,1-1.63-.119c-.391-.133-.684-.555-1.021-.849.344-.3.646-.728,1.044-.85a6.179,6.179,0,0,1,1.675-.035" transform="translate(-82.149 -166.724)" fill="#24252d"/>
        <path id="Path_1242407" data-name="Path 1242407" d="M42.556,35.492c.264.224.733.43.755.675a17.02,17.02,0,0,1,0,2.983c-.022.245-.493.45-.757.674-.307-.413-.777-.788-.881-1.247a4.938,4.938,0,0,1,0-2.084c.083-.379.574-.67.881-1" transform="translate(-31.119 -26.574)" fill="#26272e"/>
        <path id="Path_1242408" data-name="Path 1242408" d="M14.728,91.044c-.836.618-1.329,1.265-1.779,1.235a1.812,1.812,0,0,1-1.225-1.159.992.992,0,0,1,1.132-1.242c.534.073,1.006.6,1.871,1.165" transform="translate(-8.752 -67.288)" fill="#2d2d35"/>
        <path id="Path_1242409" data-name="Path 1242409" d="M82.476,231.086c-.444.341-.945,1.008-1.32.943a1.931,1.931,0,0,1-1.3-1.16,1.014,1.014,0,0,1,1.184-1.23c.519.072.977.589,1.462.907q-.012.27-.023.54" transform="translate(-59.766 -171.933)" fill="#282830"/>
        <path id="Path_1242410" data-name="Path 1242410" d="M96.512,231.364c-.5.287-1.06.876-1.469.783-.476-.109-.817-.814-1.216-1.261.459-.388.9-1.045,1.382-1.083.42-.034.9.635,1.348.993l-.045.568" transform="translate(-70.253 -172.063)" fill="#272830"/>
        <path id="Path_1242411" data-name="Path 1242411" d="M10.828,105.281c.455-.355.934-1.016,1.358-.982.477.037.9.7,1.353,1.094-.4.455-.742,1.166-1.226,1.283-.4.1-.964-.515-1.456-.812q-.014-.291-.028-.583" transform="translate(-8.107 -78.092)" fill="#2a2a32"/>
        <path id="Path_1242412" data-name="Path 1242412" d="M13.282,117.442c.32.486.941,1.016.877,1.445-.069.463-.8,1.171-1.2,1.149a1.724,1.724,0,0,1-1.163-1.216c-.054-.42.591-.928.927-1.4l.56.019" transform="translate(-8.829 -87.92)" fill="#282931"/>
        <path id="Path_1242413" data-name="Path 1242413" d="M68.426,231.2c-.488.323-1.016.946-1.451.887a1.841,1.841,0,0,1-1.176-1.221.976.976,0,0,1,1.207-1.153c.517.091.959.6,1.435.925q-.007.282-.015.563" transform="translate(-49.247 -171.983)" fill="#2c2c34"/>
        <path id="Path_1242414" data-name="Path 1242414" d="M118.36,46.171c-.619.833-1.29,1.8-2.055,2.7-.121.141-.737.021-.982-.166-.172-.132-.2-.61-.117-.88.118-.386.495-.7.584-1.086a4.562,4.562,0,0,0,.18-1.959c-.158-.68-.182-1.254.513-1.374.346-.06.928.38,1.164.747a9.8,9.8,0,0,1,.712,2.023" transform="translate(-86.227 -32.492)" fill="#23242a"/>
        <path id="Path_1242415" data-name="Path 1242415" d="M104.842,76.653c-.481,1.719-.858,3.207-1.339,4.661-.092.279-.593.422-.905.628-.245-.387-.759-.832-.69-1.151a31.674,31.674,0,0,1,1.256-4.286c.116-.313.753-.547,1.169-.58.18-.014.408.574.509.728" transform="translate(-76.298 -56.848)" fill="#23242a"/>
        <path id="Path_1242416" data-name="Path 1242416" d="M101.2,114.474a12.064,12.064,0,0,1-.035,2.1c-.068.381-.485.7-.745,1.046-.323-.339-.9-.658-.926-1.021a25.258,25.258,0,0,1,0-4.087c.032-.4.569-.756.874-1.132.279.369.713.7.8,1.114a9.545,9.545,0,0,1,.036,1.977" transform="translate(-74.429 -83.397)" fill="#222329"/>
        <path id="Path_1242417" data-name="Path 1242417" d="M101.3,151.559a12.474,12.474,0,0,1-.03,2c-.06.368-.421.687-.647,1.029-.353-.286-.992-.553-1.012-.861a36.454,36.454,0,0,1,.011-4.621c.017-.271.585-.65.94-.7.2-.03.658.48.7.786a18.438,18.438,0,0,1,.034,2.373h.007" transform="translate(-74.529 -111.113)" fill="#222329"/>
        <path id="Path_1242418" data-name="Path 1242418" d="M101.084,186.886c0,.249.084.541-.016.739a13.444,13.444,0,0,1-.836,1.3,5.506,5.506,0,0,1-.869-1.327,3.009,3.009,0,0,1,0-1.6c.106-.382.52-.678.8-1.013a6.952,6.952,0,0,1,.9,1.044c.126.217.023.568.023.859" transform="translate(-74.316 -138.504)" fill="#23232a"/>
        <path id="Path_1242419" data-name="Path 1242419" d="M110.728,20.775c-.261.329-.459.814-.731.859a1.18,1.18,0,0,1-.966-.506,7.725,7.725,0,0,1-.806-2.084,1.085,1.085,0,0,1,.443-.957,1.1,1.1,0,0,1,1.034.294,19.466,19.466,0,0,1,1.024,2.394" transform="translate(-81.027 -13.516)" fill="#23242a"/>
      </g>
    </g>
  </g>
</svg>
