<svg xmlns="http://www.w3.org/2000/svg" xmlns:xlink="http://www.w3.org/1999/xlink" width="118" height="118" viewBox="0 0 118 118">
  <defs>
    <filter id="Ellipse_12115" x="0" y="0" width="118" height="118" filterUnits="userSpaceOnUse">
      <feOffset dy="3" input="SourceAlpha"/>
      <feGaussianBlur stdDeviation="3" result="blur"/>
      <feFlood flood-opacity="0.161"/>
      <feComposite operator="in" in2="blur"/>
      <feComposite in="SourceGraphic"/>
    </filter>
    <clipPath id="clip-path">
      <rect id="Rectangle_410474" data-name="Rectangle 410474" width="41.888" height="65.024" fill="none"/>
    </clipPath>
  </defs>
  <g id="Group_1187903" data-name="Group 1187903" transform="translate(-799.781 -1970)">
    <g id="Group_1181939" data-name="Group 1181939" transform="translate(808.781 1976)">
      <g transform="matrix(1, 0, 0, 1, -9, -6)" filter="url(#Ellipse_12115)">
        <g id="Ellipse_12115-2" data-name="Ellipse 12115" transform="translate(9 6)" fill="#f9fafb" stroke="#12263f" stroke-width="2">
          <circle cx="50" cy="50" r="50" stroke="none"/>
          <circle cx="50" cy="50" r="49" fill="none"/>
        </g>
      </g>
    </g>
    <g id="Group_1187907" data-name="Group 1187907" transform="translate(837.837 1993.488)">
      <g id="Group_1187906" data-name="Group 1187906" clip-path="url(#clip-path)">
        <path id="Path_1242232" data-name="Path 1242232" d="M34.239,0h.506a7.307,7.307,0,0,0,.8.559C40.768,3.288,46,6,51.208,8.753a1.739,1.739,0,0,1,.9,1.133c.072,3.242.041,6.486.041,9.791-.422.106-.779.213-1.144.285a7.52,7.52,0,0,0-6.442,7.31,7.307,7.307,0,0,0,6.209,7.59c1.351.255,1.549.88,1.337,1.968a11.124,11.124,0,0,1-.369,1.192c-2.945.008-5.89.007-8.834.025-2.494.016-2.231-.283-2.245,2.209-.009,1.645,0,1.633,1.67,1.653,2.773.033,5.545.083,8.318.126L44.072,64.751H21.862q-.042-3.784-.084-7.568l-.192-.193h-1.8l.02-.053.01-3.538,1.769-.081.184-.182V49.591l-.183-.184-1.771-.081V45.808l1.769-.082.184-.182V42l-.183-.184-1.771-.081V38.217l1.769-.081.184-.183V34.41l-.183-.184-1.771-.081V30.627l1.769-.081.184-.183V26.819l-.183-.184-1.771-.081V23.036l1.769-.081.184-.183V19.229l-.183-.184-1.771-.082-.08-7.407c.266-.114.524-.251.8-.339,6.042-1.94,10.427-5.9,13.7-11.217M27.38,38.036c-1.913,0-1.92,0-1.911,1.872.01,2.2-.209,2,1.9,2,2.168,0,1.971.21,1.971-1.932s.2-1.926-1.964-1.944M29.347,24.8c0-1.942,0-1.95-1.843-1.94-2.208.011-2.036-.228-2.033,1.874,0,2.189-.222,2,1.9,2,2.166,0,1.956.21,1.974-1.934m5.683-1.942c-1.971,0-1.971,0-1.972,1.814,0,2.065,0,2.075,1.847,2.064,2.2-.012,2.032.234,2.03-1.875,0-2.189.221-1.985-1.9-2m.044,15.181c-2.015,0-2.025,0-2.014,1.77.014,2.255-.254,2.1,1.8,2.109,2.078.008,2.087,0,2.077-1.831-.012-2.217.233-2.031-1.862-2.048" transform="translate(-10.294)" fill="#7f644d"/>
        <path id="Path_1242233" data-name="Path 1242233" d="M16.167,127.091l-.515-.263c.025-1.88.061-3.761.073-5.641.013-2.039,0-2.039,1.952-2.185l-.02.053L17.7,126.8l-.271.291Z" transform="translate(-8.163 -62.067)" fill="#d8cdcc"/>
        <path id="Path_1242234" data-name="Path 1242234" d="M9.513,69.533c-1.949.146-1.94.146-1.953,2.185-.012,1.88-.047,3.761-.072,5.641H.084C.052,76.747,0,76.253,0,75.759Q0,51.127,0,26.495c0-1.653.01-1.574,1.665-1.676,2.6-.159,5.185-.437,7.777-.665l.08,7.407a1.148,1.148,0,0,1-.009.2c-.621.089-1.743.089-1.777.282a9.057,9.057,0,0,0,0,3.111c.034.193,1.157.194,1.777.283a1.1,1.1,0,0,1,.009.2v3.517a1.148,1.148,0,0,1-.009.2c-.621.089-1.743.089-1.777.282a9.06,9.06,0,0,0,0,3.111c.034.193,1.157.194,1.777.283a1.1,1.1,0,0,1,.009.2v3.517a1.148,1.148,0,0,1-.009.2c-.621.089-1.743.089-1.777.282a9.06,9.06,0,0,0,0,3.111c.034.193,1.157.193,1.777.283a1.1,1.1,0,0,1,.009.2v3.517a1.1,1.1,0,0,1-.009.2c-.621.089-1.743.089-1.777.282a9.06,9.06,0,0,0,0,3.111c.034.193,1.157.193,1.777.283a1.1,1.1,0,0,1,.009.2v3.517a1.153,1.153,0,0,1-.009.2c-.621.089-1.743.089-1.777.282a9.06,9.06,0,0,0,0,3.111c.034.193,1.157.193,1.777.283a1.1,1.1,0,0,1,.009.2l-.01,3.538" transform="translate(0 -12.598)" fill="#af9a85"/>
        <path id="Path_1242235" data-name="Path 1242235" d="M74.549,79.471l-1.092,4.014c-2.773-.043-5.545-.093-8.318-.126-1.666-.02-1.679-.008-1.67-1.653.014-2.493-.248-2.193,2.245-2.209,2.945-.019,5.89-.018,8.835-.025" transform="translate(-33.102 -41.449)" fill="#c4b3af"/>
        <path id="Path_1242236" data-name="Path 1242236" d="M33.626,79.5c2.161.018,1.964-.205,1.964,1.944s.2,1.932-1.971,1.932c-2.113,0-1.894.193-1.9-2-.009-1.872,0-1.872,1.911-1.872" transform="translate(-16.54 -41.464)" fill="#c0afa9"/>
        <path id="Path_1242237" data-name="Path 1242237" d="M35.592,49.712c-.017,2.144.193,1.933-1.974,1.934-2.125,0-1.9.189-1.9-2,0-2.1-.175-1.862,2.033-1.873,1.843-.01,1.843,0,1.843,1.94" transform="translate(-16.538 -24.914)" fill="#c0afa9"/>
        <path id="Path_1242238" data-name="Path 1242238" d="M49.552,47.77c2.125.017,1.9-.186,1.9,2,0,2.108.174,1.863-2.03,1.875-1.848.011-1.848,0-1.847-2.064,0-1.814,0-1.814,1.972-1.814" transform="translate(-24.816 -24.915)" fill="#c0afa9"/>
        <path id="Path_1242239" data-name="Path 1242239" d="M49.594,79.5c2.1.016,1.85-.169,1.862,2.048.01,1.834,0,1.839-2.077,1.831-2.053-.008-1.785.146-1.8-2.109-.011-1.771,0-1.771,2.014-1.77" transform="translate(-24.813 -41.464)" fill="#c0afa9"/>
        <path id="Path_1242240" data-name="Path 1242240" d="M19.889,126.858l-.046-7.744h1.8l.192.194q.042,3.784.084,7.568l-2.028-.019" transform="translate(-10.349 -62.125)" fill="#c8b8b4"/>
        <path id="Path_1242241" data-name="Path 1242241" d="M19.895,87.231l1.771.081.183.184V91.04l-.184.182-1.769.082a1.1,1.1,0,0,0-.01-.2q0-1.837,0-3.676a1.148,1.148,0,0,0,.009-.2" transform="translate(-10.371 -45.496)" fill="#c9b9b6"/>
        <path id="Path_1242242" data-name="Path 1242242" d="M21.849,39.9v3.543l-.184.182L19.9,43.71a1.1,1.1,0,0,0-.009-.2q0-1.837,0-3.676a1.148,1.148,0,0,0,.009-.2l1.771.081.183.184" transform="translate(-10.372 -20.673)" fill="#c9b9b6"/>
        <path id="Path_1242243" data-name="Path 1242243" d="M21.664,107.087l-1.769.081a1.088,1.088,0,0,0-.009-.2q0-1.838,0-3.677a1.146,1.146,0,0,0,.009-.2l1.771.082.183.184V106.9l-.184.183" transform="translate(-10.372 -53.77)" fill="#c9b9b6"/>
        <path id="Path_1242244" data-name="Path 1242244" d="M21.664,59.493l-1.769.081a1.088,1.088,0,0,0-.009-.2q0-1.838,0-3.677a1.146,1.146,0,0,0,.009-.2l1.771.082.183.184V59.31l-.184.183" transform="translate(-10.372 -28.947)" fill="#c9b9b6"/>
        <path id="Path_1242245" data-name="Path 1242245" d="M21.849,71.632v3.543l-.184.182-1.769.082a1.1,1.1,0,0,0-.009-.2q0-1.837,0-3.676a1.148,1.148,0,0,0,.009-.2l1.771.081.183.184" transform="translate(-10.372 -37.222)" fill="#c9b9b6"/>
        <path id="Path_1242246" data-name="Path 1242246" d="M23.789,39.991l-.183-.184.183.184" transform="translate(-12.312 -20.762)" fill="#bdaca2"/>
        <path id="Path_1242247" data-name="Path 1242247" d="M23.789,71.72l-.183-.184.183.184" transform="translate(-12.312 -37.31)" fill="#bdaca2"/>
        <path id="Path_1242248" data-name="Path 1242248" d="M23.789,87.585l-.183-.184.183.184" transform="translate(-12.312 -45.585)" fill="#bdaca2"/>
        <path id="Path_1242249" data-name="Path 1242249" d="M23.6,95.375l.184-.183-.184.183" transform="translate(-12.31 -49.649)" fill="#bdaca2"/>
        <path id="Path_1242250" data-name="Path 1242250" d="M23.6,79.51l.184-.183-.184.183" transform="translate(-12.31 -41.374)" fill="#bdaca2"/>
        <path id="Path_1242251" data-name="Path 1242251" d="M23.6,63.645l.184-.183-.184.183" transform="translate(-12.31 -33.099)" fill="#bdaca2"/>
        <path id="Path_1242252" data-name="Path 1242252" d="M23.789,103.45l-.183-.184.183.184" transform="translate(-12.312 -53.86)" fill="#bdaca2"/>
        <path id="Path_1242253" data-name="Path 1242253" d="M23.6,111.239l.184-.183-.184.183" transform="translate(-12.31 -57.923)" fill="#bdaca2"/>
        <path id="Path_1242254" data-name="Path 1242254" d="M23.789,55.855l-.183-.184.183.184" transform="translate(-12.312 -29.036)" fill="#bdaca2"/>
        <path id="Path_1242255" data-name="Path 1242255" d="M23.6,47.78l.184-.183-.184.183" transform="translate(-12.31 -24.825)" fill="#bdaca2"/>
        <path id="Path_1242256" data-name="Path 1242256" d="M23.794,119.309l-.192-.193.192.193" transform="translate(-12.31 -62.126)" fill="#b9a79e"/>
        <path id="Path_1242257" data-name="Path 1242257" d="M17.8,40.051q0,1.839,0,3.677c-.621-.089-1.743-.09-1.777-.283a9.06,9.06,0,0,1,0-3.111c.034-.192,1.156-.193,1.777-.282" transform="translate(-8.288 -20.889)" fill="#d8cdcc"/>
        <path id="Path_1242258" data-name="Path 1242258" d="M17.8,87.646q0,1.839,0,3.676c-.621-.089-1.743-.09-1.777-.283a9.06,9.06,0,0,1,0-3.111c.034-.192,1.156-.193,1.777-.282" transform="translate(-8.288 -45.713)" fill="#d8cdcc"/>
        <path id="Path_1242259" data-name="Path 1242259" d="M17.8,55.916q0,1.839,0,3.676c-.621-.089-1.743-.09-1.777-.283a9.059,9.059,0,0,1,0-3.111c.034-.192,1.156-.193,1.777-.282" transform="translate(-8.288 -29.164)" fill="#d8cdcc"/>
        <path id="Path_1242260" data-name="Path 1242260" d="M17.8,71.781q0,1.839,0,3.676c-.621-.089-1.743-.09-1.777-.283a9.06,9.06,0,0,1,0-3.111c.034-.192,1.156-.193,1.777-.282" transform="translate(-8.288 -37.438)" fill="#d8cdcc"/>
        <path id="Path_1242261" data-name="Path 1242261" d="M17.8,103.511q0,1.839,0,3.676c-.621-.089-1.743-.09-1.777-.283a9.06,9.06,0,0,1,0-3.111c.034-.192,1.156-.193,1.777-.282" transform="translate(-8.288 -53.987)" fill="#d8cdcc"/>
      </g>
    </g>
  </g>
</svg>
