<svg xmlns="http://www.w3.org/2000/svg" xmlns:xlink="http://www.w3.org/1999/xlink" width="118" height="118" viewBox="0 0 118 118">
  <defs>
    <filter id="Ellipse_12115" x="0" y="0" width="118" height="118" filterUnits="userSpaceOnUse">
      <feOffset dy="3" input="SourceAlpha"/>
      <feGaussianBlur stdDeviation="3" result="blur"/>
      <feFlood flood-opacity="0.161"/>
      <feComposite operator="in" in2="blur"/>
      <feComposite in="SourceGraphic"/>
    </filter>
    <clipPath id="clip-path">
      <rect id="Rectangle_410641" data-name="Rectangle 410641" width="59.719" height="61.542" fill="none"/>
    </clipPath>
  </defs>
  <g id="Group_1187999" data-name="Group 1187999" transform="translate(-799.781 -1970)">
    <g id="Group_1181939" data-name="Group 1181939" transform="translate(808.781 1976)">
      <g transform="matrix(1, 0, 0, 1, -9, -6)" filter="url(#Ellipse_12115)">
        <g id="Ellipse_12115-2" data-name="Ellipse 12115" transform="translate(9 6)" fill="#f9f6f2" stroke="#b16a1b" stroke-width="2">
          <circle cx="50" cy="50" r="50" stroke="none"/>
          <circle cx="50" cy="50" r="49" fill="none"/>
        </g>
      </g>
    </g>
    <g id="Group_1188028" data-name="Group 1188028" transform="translate(828.922 1998.485)">
      <g id="Group_1188027" data-name="Group 1188027" clip-path="url(#clip-path)">
        <path id="Path_1242466" data-name="Path 1242466" d="M116.087,31.682V23.418c0-3,.033-6.009-.033-9.012a2.222,2.222,0,0,0-.723-1.421,4.061,4.061,0,0,1-1.671-3.554c.152-2.115.03-4.25.04-6.376A3.262,3.262,0,0,1,116.76.006q5.13-.012,10.26,0a3.075,3.075,0,0,1,3.037,3.012c.007,2.218-.071,4.44.03,6.654a2.96,2.96,0,0,1-1.31,2.967,2.3,2.3,0,0,0-1.014,2.329q.034,15.529.009,31.059a15.115,15.115,0,1,1-30.224.206c.189-9.6,8.812-16.483,18.538-14.551M99.251,46.53A13.193,13.193,0,0,0,112.77,59.921,13.377,13.377,0,0,0,126.14,46.232c.053-7.222-6.444-13.259-13.364-13.261-7.4,0-13.916,6.23-13.525,13.558m26.793-7.169V13.481H117.6v1.5c0,5.5-.009,11,.03,16.5a1.23,1.23,0,0,0,.625.911,15.491,15.491,0,0,1,7.793,6.977M122.028,1.527c-1.617,0-3.234-.01-4.851,0a1.651,1.651,0,0,0-1.86,1.872c.011,2.125-.007,4.25.006,6.376a1.69,1.69,0,0,0,1.916,1.929q4.643.016,9.286,0A1.811,1.811,0,0,0,128.569,9.7q.028-3.118,0-6.237A1.743,1.743,0,0,0,126.6,1.53c-1.524-.016-3.049,0-4.574,0" transform="translate(-70.376 0)" fill="#0f0e0f"/>
        <path id="Path_1242467" data-name="Path 1242467" d="M18.166.25q6.725,0,13.449,0c3.264.005,4.724,1.48,4.725,4.754q0,8.527,0,17.054c0,8.291-5.593,13.921-13.849,13.893-3.739-.013-7.5.121-11.211-.247A12.669,12.669,0,0,1,.069,23.324C-.045,16.994.01,10.661.042,4.329A3.949,3.949,0,0,1,4.3.255C8.922.236,13.544.25,18.166.25m.027,1.632c-4.623,0-9.246-.008-13.87,0-1.81,0-2.638.836-2.66,2.6a15.219,15.219,0,0,0,9.014,13.931c2.984,1.331,6.1,1.29,9.239,1.242A15.072,15.072,0,0,0,34.708,4.642c0-1.909-.85-2.757-2.785-2.759q-6.866-.006-13.731,0M3.707,17.625c1.4-2.6-1.231-3.484-1.748-5.519,0,4.561-.307,8.856.085,13.086.4,4.363,4.571,8.507,8.771,8.8a99.107,99.107,0,0,0,14.206.031c5.407-.4,9.626-5.428,9.673-10.872.029-3.326.009-6.652,0-9.978a7.721,7.721,0,0,0-.131-.951,17.493,17.493,0,0,0-1.794,2.626,12.264,12.264,0,0,0-.551,2.694c-.685.07-1.7-.138-2.2.274-5.84,4.8-18.224,4.751-23.493-.008-.263-.237-.835-.15-1.265-.179-.4-.026-.8-.006-1.556-.006" transform="translate(0 -0.177)" fill="#121110"/>
        <path id="Path_1242468" data-name="Path 1242468" d="M103.626,131.935c-.391-7.328,6.129-13.56,13.525-13.558,6.92,0,13.417,6.039,13.364,13.261a13.377,13.377,0,0,1-13.371,13.689,13.193,13.193,0,0,1-13.518-13.391m23.431,6.265a10.4,10.4,0,0,0,1.834-7.536,11.386,11.386,0,0,0-6.156-9.412,12.033,12.033,0,0,0-13.63,19.64c3.89,3.42,8.563,3.826,13.332,1.666a1.476,1.476,0,0,0,.725-1.2c-.2-.766-.815-.615-1.441-.308a10.231,10.231,0,0,1-6.662,1.041,10.6,10.6,0,0,1-8.209-12.434,10.715,10.715,0,0,1,10.661-8.217c5.634.16,11.1,6.008,9.721,11.858-.334,1.415-.812,2.8-1.264,4.328l1.089.576m-4.28-6.408c.394-2.654-2.7-5.889-5.621-5.843a6.237,6.237,0,0,0-6.036,5.976c0,3.023,2.711,5.5,5.777,5.75,2.9.241,6.157-3.052,5.879-5.883m-9.958,7.869c3.642,1.744,7,1.423,9.993-1.142a8.544,8.544,0,0,0,2.466-9.792c-.149-.4-.717-.985-.99-.935-.933.17-.519.872-.468,1.523.127,1.627.5,3.406.015,4.877-1.322,4.026-5.255,5.786-9.371,4.489-.936-.295-1.522-.285-1.645.981m7.795-14.319c.76-.9.658-1.517-.493-1.821-.53-.14-1.061-.279-1.6-.4-3.71-.823-6.527.776-8.715,3.524a8.041,8.041,0,0,0-1.092,8.364c.373.957.915,1.239,1.807.4-1.408-3.415-1.186-6.575,1.813-9.124,2.525-2.146,5.344-2.2,8.278-.945" transform="translate(-74.751 -85.405)" fill="#2a1d15"/>
        <path id="Path_1242469" data-name="Path 1242469" d="M177.981,74.281a15.492,15.492,0,0,0-7.793-6.978,1.23,1.23,0,0,1-.625-.911c-.039-5.5-.029-11-.03-16.5V48.4h8.448ZM175.7,62.893c-.9-.611-1.374-1.17-1.905-1.235a1.049,1.049,0,0,0-1.183,1.418,1.939,1.939,0,0,0,1.312,1.19c.431.036.924-.675,1.776-1.373m0-4.849c-.862-.674-1.369-1.371-1.8-1.327a1.942,1.942,0,0,0-1.287,1.214,1.047,1.047,0,0,0,1.208,1.394c.528-.074.987-.646,1.88-1.281m0-5.036c-.894-.647-1.424-1.323-1.86-1.267A1.928,1.928,0,0,0,172.613,53a1.036,1.036,0,0,0,1.259,1.331c.524-.095.96-.672,1.825-1.327" transform="translate(-122.312 -34.919)" fill="#5b3f2f"/>
        <path id="Path_1242470" data-name="Path 1242470" d="M168.062,5.47c1.525,0,3.049-.013,4.574,0A1.743,1.743,0,0,1,174.6,7.4q.028,3.118,0,6.237a1.811,1.811,0,0,1-2.043,2.012q-4.643.015-9.286,0a1.69,1.69,0,0,1-1.916-1.929c-.013-2.125,0-4.25-.006-6.376a1.651,1.651,0,0,1,1.86-1.872c1.617-.013,3.234,0,4.851,0m-.174,8.732c1.153,0,2.307-.017,3.46,0,1.124.021,1.729-.45,1.715-1.627-.017-1.384-.011-2.768,0-4.152a1.232,1.232,0,0,0-1.441-1.411c-.507.012-1.016.014-1.522,0-.6-.018-1.354.231-1.478-.745a11.039,11.039,0,0,0-1.425.244c-.285.085-.51.451-.784.48a14.463,14.463,0,0,1-2.073.019c-1.026-.04-1.554.4-1.544,1.455.014,1.384,0,2.768,0,4.152,0,1.092.573,1.584,1.632,1.583q1.73,0,3.46,0" transform="translate(-116.411 -3.943)" fill="#989797"/>
        <path id="Path_1242471" data-name="Path 1242471" d="M22.5,6.114q6.865,0,13.731,0c1.935,0,2.784.85,2.785,2.759A15.072,15.072,0,0,1,24.221,23.886c-3.142.048-6.255.09-9.239-1.242A15.219,15.219,0,0,1,5.967,8.714c.021-1.76.85-2.591,2.66-2.6,4.623-.012,9.247,0,13.87,0m0,9.247a3.515,3.515,0,0,0-3.409,3.455,3.535,3.535,0,0,0,3.386,3.347,3.574,3.574,0,0,0,3.4-3.472,3.479,3.479,0,0,0-3.381-3.33" transform="translate(-4.304 -4.409)" fill="#ffc43d"/>
        <path id="Path_1242472" data-name="Path 1242472" d="M8.484,48.347c.755,0,1.157-.021,1.556.006.43.029,1-.058,1.265.179,5.268,4.759,17.653,4.8,23.493.008.5-.412,1.514-.2,2.2-.274a12.287,12.287,0,0,1,.551-2.694,17.509,17.509,0,0,1,1.795-2.626,7.723,7.723,0,0,1,.131.951c.008,3.326.028,6.653,0,9.979C39.423,59.319,35.2,64.346,29.8,64.747a99.1,99.1,0,0,1-14.206-.031c-4.2-.294-8.367-4.439-8.771-8.8-.392-4.231-.085-8.526-.085-13.086.517,2.035,3.151,2.916,1.748,5.519m.277,1.589v1.4h1.452c.343-1.328-.11-1.763-1.452-1.4m28.424-.044c-1.69-.108-1.719-.074-1.37,1.473h1.37ZM9.115,52.653l-.631.592.838,1.261,1-.951-1.205-.9m28.064.05a6.615,6.615,0,0,0-1.485.5.931.931,0,0,0,.065.861,5.87,5.87,0,0,0,1.42.532ZM35.6,55.624c-.816,1.365-.777,1.453.769,1.831l.577-1.373L35.6,55.624M9.631,57.594c1.205-.369,1.643-.872.763-1.879l-1.422.368.658,1.512M12.6,59.171l-.9-1-1.166.851c.7,1.247,1.3,1.371,2.063.148m1.36,2.976.806-.323L14.333,60.3l-1.1.451.727,1.4m21.614-2.853c-.783-.844-1.349-1.249-1.9-.424-.134.2.2.712.321,1.081l1.581-.657m-4.325,2.577.848.232.588-1.419-1.118-.357Zm-13.9.992.436-.429-.87-1.241-1.341,1.3,1.775.372m12.546-.3.254-.534-1.3-.827-.7,1.784,1.742-.423m-9.833-1.834c-.46.624-.842.916-.813,1.159.04.336.39.635.607.95.259-.228.692-.429.733-.691.049-.318-.233-.686-.526-1.418M24.1,62.041c-.554-.4-.847-.772-1.151-.78-.222-.007-.673.5-.638.712a1.264,1.264,0,0,0,.706.823c.169.066.527-.35,1.084-.755m2.017,1.3c.326-.733.62-1.088.582-1.4-.033-.268-.449-.489-.7-.73-.23.3-.594.586-.646.917-.039.246.326.556.76,1.216" transform="translate(-4.777 -30.899)" fill="#5b3f2f"/>
        <path id="Path_1242473" data-name="Path 1242473" d="M130.52,141.9l-1.089-.576c.452-1.533.93-2.914,1.264-4.328,1.381-5.849-4.087-11.7-9.721-11.858a10.715,10.715,0,0,0-10.661,8.217,10.6,10.6,0,0,0,8.209,12.433,10.23,10.23,0,0,0,6.662-1.041c.626-.307,1.24-.458,1.441.309a1.476,1.476,0,0,1-.725,1.2c-4.769,2.161-9.441,1.754-13.332-1.666a12.032,12.032,0,0,1,13.63-19.64,11.386,11.386,0,0,1,6.156,9.412,10.4,10.4,0,0,1-1.834,7.536" transform="translate(-78.214 -89.105)" fill="#080707"/>
        <path id="Path_1242474" data-name="Path 1242474" d="M142.234,151.4c.278,2.831-2.976,6.123-5.879,5.883-3.067-.254-5.776-2.727-5.777-5.75a6.238,6.238,0,0,1,6.036-5.976c2.92-.046,6.015,3.189,5.621,5.843m-1.608.056a4.094,4.094,0,0,0-4.156-4.229,4.218,4.218,0,0,0-4.233,4.19,4.118,4.118,0,0,0,4.2,4.194,4.071,4.071,0,0,0,4.193-4.155" transform="translate(-94.208 -105.018)" fill="#0d0c0e"/>
        <path id="Path_1242475" data-name="Path 1242475" d="M136.676,164.042c.123-1.266.709-1.276,1.645-.981,4.116,1.3,8.049-.463,9.371-4.489.483-1.47.112-3.249-.015-4.877-.051-.651-.465-1.353.468-1.523.274-.05.841.535.99.935a8.544,8.544,0,0,1-2.466,9.792c-2.992,2.566-6.351,2.887-9.993,1.142" transform="translate(-98.608 -109.786)" fill="#080707"/>
        <path id="Path_1242476" data-name="Path 1242476" d="M132.055,137.076c-2.934-1.254-5.754-1.2-8.278.945-3,2.549-3.221,5.709-1.813,9.124-.892.839-1.434.557-1.807-.4a8.041,8.041,0,0,1,1.092-8.364c2.189-2.749,5.005-4.347,8.715-3.524.536.119,1.067.257,1.6.4,1.151.3,1.253.916.493,1.821" transform="translate(-86.192 -97.139)" fill="#070606"/>
        <path id="Path_1242477" data-name="Path 1242477" d="M183.53,97.2c-.852.7-1.345,1.408-1.776,1.373a1.938,1.938,0,0,1-1.312-1.19,1.049,1.049,0,0,1,1.183-1.418c.531.065,1,.624,1.905,1.235" transform="translate(-130.14 -69.23)" fill="#0e0a08"/>
        <path id="Path_1242478" data-name="Path 1242478" d="M183.541,79.579c-.894.635-1.352,1.206-1.88,1.28a1.047,1.047,0,0,1-1.208-1.394,1.941,1.941,0,0,1,1.287-1.214c.432-.044.939.653,1.8,1.327" transform="translate(-130.152 -56.455)" fill="#0e0a08"/>
        <path id="Path_1242479" data-name="Path 1242479" d="M183.57,61.652c-.865.655-1.3,1.232-1.825,1.327a1.036,1.036,0,0,1-1.259-1.331,1.928,1.928,0,0,1,1.224-1.263c.436-.056.966.62,1.86,1.267" transform="translate(-130.185 -43.564)" fill="#0d0a08"/>
        <path id="Path_1242480" data-name="Path 1242480" d="M171.623,16.285q-1.73,0-3.46,0c-1.059,0-1.634-.491-1.632-1.583,0-1.384.011-2.768,0-4.152-.01-1.058.518-1.5,1.544-1.455a14.463,14.463,0,0,0,2.073-.019c.274-.029.5-.395.784-.48a11.076,11.076,0,0,1,1.425-.244c.125.977.875.727,1.478.745.507.015,1.015.013,1.522,0A1.233,1.233,0,0,1,176.8,10.51c-.009,1.384-.015,2.768,0,4.152.014,1.178-.59,1.649-1.715,1.628-1.153-.021-2.307,0-3.46-.005m-.776-5.554h-2.611v1.364h2.611Zm1.651,1.353h2.635V10.731H172.56l-.063,1.353m-1.619,2.374q0-.214,0-.429h-2.66q0,.214,0,.429Zm1.783-.4q.02.213.04.426h2.361l-.006-.426Z" transform="translate(-120.145 -6.026)" fill="#121111"/>
        <path id="Path_1242481" data-name="Path 1242481" d="M56.49,39.322a3.478,3.478,0,0,1,3.38,3.33,3.574,3.574,0,0,1-3.4,3.472,3.4,3.4,0,0,1,.023-6.8m.034,5.181a1.861,1.861,0,0,0,1.764-1.8,1.891,1.891,0,0,0-1.921-1.785A1.769,1.769,0,0,0,54.7,42.788,1.829,1.829,0,0,0,56.524,44.5" transform="translate(-38.295 -28.369)" fill="#161309"/>
        <path id="Path_1242482" data-name="Path 1242482" d="M14.3,68.037c1.342-.359,1.795.076,1.452,1.4H14.3Z" transform="translate(-10.318 -49)" fill="#140f0b"/>
        <path id="Path_1242483" data-name="Path 1242483" d="M112.344,68.1v1.473h-1.37c-.348-1.546-.319-1.581,1.37-1.473" transform="translate(-79.937 -49.103)" fill="#15100c"/>
        <path id="Path_1242484" data-name="Path 1242484" d="M13.94,78.1l1.205.9-1,.951L13.309,78.7l.631-.593" transform="translate(-9.602 -56.349)" fill="#130f0b"/>
        <path id="Path_1242485" data-name="Path 1242485" d="M112.284,78.284v1.894a5.873,5.873,0,0,1-1.42-.532.931.931,0,0,1-.065-.861,6.616,6.616,0,0,1,1.485-.5" transform="translate(-79.882 -56.48)" fill="#130f0b"/>
        <path id="Path_1242486" data-name="Path 1242486" d="M109.314,88.768l1.346.459-.577,1.373c-1.546-.378-1.585-.466-.769-1.831" transform="translate(-78.487 -64.043)" fill="#130f0b"/>
        <path id="Path_1242487" data-name="Path 1242487" d="M15.72,90.973l-.658-1.512,1.422-.368c.879,1.008.442,1.511-.763,1.879" transform="translate(-10.867 -64.279)" fill="#110d09"/>
        <path id="Path_1242488" data-name="Path 1242488" d="M22.734,98.919c-.761,1.223-1.358,1.1-2.063-.148l1.166-.85.9,1" transform="translate(-14.914 -70.646)" fill="#120d0a"/>
        <path id="Path_1242489" data-name="Path 1242489" d="M31.076,107.4l-.727-1.4,1.1-.451.431,1.527-.806.323" transform="translate(-21.896 -76.15)" fill="#140f0b"/>
        <path id="Path_1242490" data-name="Path 1242490" d="M105.553,99.678l-1.581.657c-.119-.369-.454-.882-.321-1.081.553-.824,1.119-.42,1.9.424" transform="translate(-74.759 -71.283)" fill="#130f0b"/>
        <path id="Path_1242491" data-name="Path 1242491" d="M95.033,107.2l.318-1.544,1.118.357-.588,1.419-.848-.232" transform="translate(-68.563 -76.225)" fill="#130e0a"/>
        <path id="Path_1242492" data-name="Path 1242492" d="M40.539,110.43l-1.775-.372,1.341-1.3.87,1.241-.436.43" transform="translate(-27.967 -78.467)" fill="#130e0a"/>
        <path id="Path_1242493" data-name="Path 1242493" d="M85.667,110.169l-1.742.423.7-1.784,1.3.828-.254.534" transform="translate(-60.549 -78.502)" fill="#100c09"/>
        <path id="Path_1242494" data-name="Path 1242494" d="M52.765,107.111c.293.731.575,1.1.526,1.418-.041.262-.474.463-.733.691-.217-.315-.567-.614-.606-.95-.029-.243.354-.535.813-1.159" transform="translate(-37.481 -77.277)" fill="#0c0a08"/>
        <path id="Path_1242495" data-name="Path 1242495" d="M64.719,109.787c-.557.4-.915.821-1.084.755a1.263,1.263,0,0,1-.706-.823c-.034-.215.416-.719.638-.712.3.009.6.38,1.151.78" transform="translate(-45.4 -78.645)" fill="#0c0a08"/>
        <path id="Path_1242496" data-name="Path 1242496" d="M74.627,110.955c-.434-.66-.8-.97-.76-1.216.053-.332.416-.614.646-.917.247.241.663.463.7.73.038.315-.256.67-.582,1.4" transform="translate(-53.29 -78.511)" fill="#0c0a08"/>
        <rect id="Rectangle_410640" data-name="Rectangle 410640" width="2.611" height="1.364" transform="translate(48.091 4.705)" fill="#efeef0"/>
        <path id="Path_1242497" data-name="Path 1242497" d="M187.961,18.246l.063-1.353H190.6v1.353Z" transform="translate(-135.608 -12.188)" fill="#f5f4f5"/>
        <path id="Path_1242498" data-name="Path 1242498" d="M175.259,29.166H172.6q0-.214,0-.429h2.66q0,.214,0,.429" transform="translate(-124.525 -20.733)" fill="#51392a"/>
        <path id="Path_1242499" data-name="Path 1242499" d="M188.55,28.857h2.395l.006.426H188.59q-.02-.213-.04-.426" transform="translate(-136.033 -20.819)" fill="#5c402f"/>
        <path id="Path_1242500" data-name="Path 1242500" d="M60.715,48.617A1.829,1.829,0,0,1,58.89,46.9a1.769,1.769,0,0,1,1.669-1.869,1.891,1.891,0,0,1,1.921,1.785,1.861,1.861,0,0,1-1.764,1.8" transform="translate(-42.487 -32.484)" fill="#999"/>
      </g>
    </g>
  </g>
</svg>
