<svg xmlns="http://www.w3.org/2000/svg" xmlns:xlink="http://www.w3.org/1999/xlink" width="118" height="118" viewBox="0 0 118 118">
  <defs>
    <filter id="Ellipse_12115" x="0" y="0" width="118" height="118" filterUnits="userSpaceOnUse">
      <feOffset dy="3" input="SourceAlpha"/>
      <feGaussianBlur stdDeviation="3" result="blur"/>
      <feFlood flood-opacity="0.161"/>
      <feComposite operator="in" in2="blur"/>
      <feComposite in="SourceGraphic"/>
    </filter>
    <clipPath id="clip-path">
      <rect id="Rectangle_410650" data-name="Rectangle 410650" width="55.61" height="55.372" fill="none"/>
    </clipPath>
  </defs>
  <g id="Group_1188000" data-name="Group 1188000" transform="translate(-799.781 -1970)">
    <g id="Group_1181939" data-name="Group 1181939" transform="translate(808.781 1976)">
      <g transform="matrix(1, 0, 0, 1, -9, -6)" filter="url(#Ellipse_12115)">
        <g id="Ellipse_12115-2" data-name="Ellipse 12115" transform="translate(9 6)" fill="#f9f6f2" stroke="#b16a1b" stroke-width="2">
          <circle cx="50" cy="50" r="50" stroke="none"/>
          <circle cx="50" cy="50" r="49" fill="none"/>
        </g>
      </g>
    </g>
    <g id="Group_1188030" data-name="Group 1188030" transform="translate(830.976 1998.314)">
      <g id="Group_1188029" data-name="Group 1188029" clip-path="url(#clip-path)">
        <path id="Path_1242501" data-name="Path 1242501" d="M.005,25.246c2-.641,3.969-1.271,5.936-1.908a1.421,1.421,0,0,0,.533-.264,5.1,5.1,0,0,1,2.562-1.6c0-.995-.022-2,0-3A18.32,18.32,0,0,1,16.083,4.127,18.2,18.2,0,0,1,29.034.036,18.824,18.824,0,0,1,45.866,13.73a22.124,22.124,0,0,1,.671,6.565c-.01.39,0,.78,0,1.207a4.809,4.809,0,0,1,2.592,1.6,1.212,1.212,0,0,0,.543.242c1.965.638,3.932,1.272,5.939,1.92-.189,1.02-.361,1.963-.538,2.9q-1.255,6.689-2.512,13.377c-.557,2.967-1.091,5.938-1.682,8.9a6.181,6.181,0,0,1-6.063,4.925q-16.936.007-33.873,0a6.319,6.319,0,0,1-6.375-5.451C3.7,45.051,2.757,40.2,1.845,35.337Q.928,30.45.007,25.564a2.307,2.307,0,0,1,0-.318M23.3,27.01c-1.187.15-2.308.312-3.434.423a.662.662,0,0,0-.6.451,4.19,4.19,0,0,1-2.739,2.279.84.84,0,0,0-.686.717q-2.431,9.794-4.886,19.582c-.25,1-.49,2-.75,3.072H45.329c-.034-.195-.05-.337-.084-.475q-1.195-4.8-2.394-9.6-1.582-6.337-3.178-12.671a.811.811,0,0,0-.426-.521,4.616,4.616,0,0,1-3.026-2.52.5.5,0,0,0-.291-.269c-1.208-.167-2.419-.312-3.651-.465v6.037c.285,0,.541,0,.8,0a2.657,2.657,0,0,1,2.744,2.741c0,1.767.007,3.534,0,5.3a2.65,2.65,0,0,1-2.646,2.67q-5.384.013-10.769,0A2.649,2.649,0,0,1,19.752,41.1q-.012-2.678,0-5.357a2.656,2.656,0,0,1,2.677-2.694c.29,0,.58,0,.872,0ZM39.358,20.8c.374-5.049-1.147-9.286-5.652-11.96a10.952,10.952,0,0,0-12.517.434c-4.035,2.762-5.337,6.819-4.976,11.478,2.449-.305,4.878-.6,7.3-.922a1.388,1.388,0,0,0,.653-.349,2.682,2.682,0,0,1,1.816-.719c1.209.009,2.419-.029,3.626.019a2.135,2.135,0,0,1,1.3.373,3.2,3.2,0,0,0,2.282.791,9.8,9.8,0,0,1,1.051.116q2.557.365,5.117.74m5.392,4.193c0-1.789.041-3.518-.013-5.245a29.386,29.386,0,0,0-.325-4.157,16.942,16.942,0,0,0-33.587,3.062c-.018,1.99,0,3.98,0,5.971a2.9,2.9,0,0,0,.038.346h3.532c0-2.183-.025-4.322.013-6.461a12.46,12.46,0,0,1,.272-2.485,13.393,13.393,0,0,1,26.5,2.506c.009,1.953,0,3.906,0,5.859v.6ZM25.108,28.585c0,2.324,0,4.647,0,6.971a.932.932,0,0,0,1.06,1.061q1.617.012,3.234,0a.933.933,0,0,0,1.058-1.065q.006-6.971,0-13.941A.932.932,0,0,0,29.4,20.551c-1.041-.008-2.082,0-3.123,0-.859,0-1.169.314-1.17,1.177q0,3.429,0,6.859M9.031,23.449a2.619,2.619,0,0,0-1.755,2.829,2.683,2.683,0,0,0,2.615,2.3c1.8.021,3.608.01,5.411,0a2.848,2.848,0,0,0,.767-.12,2.71,2.71,0,0,0,1.894-2.6,2.536,2.536,0,0,0-1.8-2.389v3.293H9.031Zm37.5,3.316H39.377v-3.3a2.585,2.585,0,0,0-1.754,2.74,2.687,2.687,0,0,0,2.608,2.371q2.733.037,5.467,0a2.7,2.7,0,0,0,2.611-2.371c.163-1.17-.784-2.641-1.777-2.7Zm-23.21,8.072c-.345,0-.623-.015-.9,0a.868.868,0,0,0-.88.892q-.023,2.674,0,5.347a.821.821,0,0,0,.823.882c.9.04,1.806.011,2.74.011,0-1.182.011-2.312-.014-3.44a.635.635,0,0,0-.306-.428,2.664,2.664,0,0,1-1.465-2.439c0-.257,0-.514,0-.829m7.143,7.141c.915,0,1.75.01,2.585,0a.893.893,0,0,0,.982-.963q.017-2.618,0-5.236a.886.886,0,0,0-.949-.939c-.27-.011-.541,0-.817,0-.007.14-.018.213-.013.285a2.848,2.848,0,0,1-1.625,3.067.392.392,0,0,0-.155.3c-.011,1.147-.007,2.293-.007,3.489M23.3,21.634l-5.335.7a4.861,4.861,0,0,1,1.794,3.276L23.3,25.2Zm14.306.695-5.324-.687v3.566l3.531.4a4.867,4.867,0,0,1,1.793-3.279M46.5,37.5V33.983h-4.16l.881,3.518ZM13.225,33.985H9.063v3.5h3.293l.869-3.5m-9.787-.014c.206,1.123.4,2.212.613,3.3a.354.354,0,0,0,.245.23c.974.016,1.949.01,2.918.01V33.971Zm48.694.012H48.364v3.53c.949,0,1.856.011,2.763-.011.138,0,.369-.141.392-.25.223-1.081.412-2.169.612-3.268M6.279,28.592a11.917,11.917,0,0,1-.65-1.524,12.668,12.668,0,0,1-.235-1.68l-3.367,1.1.612,3.237,3.64-1.132m43.808-3.234a4.632,4.632,0,0,1-.862,3.206l3.708,1.161.611-3.241-3.457-1.126M4.432,39.317l.663,3.512H7.209V39.317Zm43.913,3.531h2.13l.659-3.519H48.345ZM9.06,32.123H13.7l.417-1.745H9.06Zm32.811,0h4.624V30.376h-5.04l.416,1.743M11.016,42.848l.87-3.514H9.074v3.514Zm33.535-.021h1.96v-3.5H43.684l.867,3.5m-15.9-4.388H26.926v3.524h1.721Zm19.7-6.283c1.3,0,2.542.01,3.782-.014a.589.589,0,0,0,.41-.3c.136-.277-.083-.381-.315-.448-.212-.062-.42-.14-.632-.2-1.069-.328-2.139-.655-3.246-.993Zm-45.488-.6c.193.264.312.574.439.578,1.306.036,2.614.022,3.929.022V30.2L2.857,31.554M7.22,48.206V44.68H5.443c.159.862.32,1.691.465,2.523.184,1.062.178,1.063,1.313,1m42.254,0,.655-3.519H48.348V48.2Zm-.358,1.843H46.359l.72,2.868a4.477,4.477,0,0,0,2.037-2.868m-39.9-.033H6.475a3.718,3.718,0,0,0,2.051,2.795l.691-2.795m-.15-5.332v3.527h.608l.877-3.527Zm35.953,0L45.9,48.2H46.5V44.676Z" transform="translate(0 0.001)" fill="#080808"/>
        <path id="Path_1242502" data-name="Path 1242502" d="M81.57,181.157V187.2c-.293,0-.583,0-.873,0a2.656,2.656,0,0,0-2.677,2.694q-.009,2.678,0,5.357a2.649,2.649,0,0,0,2.653,2.661q5.384.012,10.769,0a2.65,2.65,0,0,0,2.646-2.67c.008-1.767.006-3.534,0-5.3a2.657,2.657,0,0,0-2.744-2.741c-.256,0-.513,0-.8,0v-6.037c1.232.153,2.443.3,3.651.465a.5.5,0,0,1,.291.269,4.617,4.617,0,0,0,3.027,2.52.811.811,0,0,1,.426.521q1.607,6.331,3.178,12.671,1.2,4.8,2.394,9.6c.034.138.05.281.084.475H68.48c.26-1.067.5-2.071.75-3.072q2.445-9.79,4.886-19.582a.839.839,0,0,1,.686-.717,4.191,4.191,0,0,0,2.739-2.279.662.662,0,0,1,.6-.451c1.126-.111,2.247-.273,3.434-.423M70.9,205.915h1.736v-1.724H70.9Zm3.573-.009h1.725V204.2H74.468Zm5.306-1.715H78.05v1.736h1.724Z" transform="translate(-58.27 -154.146)" fill="#daa277"/>
        <path id="Path_1242503" data-name="Path 1242503" d="M106.472,35.231H102.9c0-.209,0-.406,0-.6,0-1.953.007-3.906,0-5.859a13.393,13.393,0,0,0-26.5-2.506,12.459,12.459,0,0,0-.272,2.485c-.037,2.138-.012,4.277-.012,6.461H72.584a2.9,2.9,0,0,1-.038-.346c0-1.99-.017-3.981,0-5.971a16.942,16.942,0,0,1,33.587-3.062,29.385,29.385,0,0,1,.326,4.156c.054,1.727.013,3.457.013,5.245" transform="translate(-61.722 -10.239)" fill="#828d99"/>
        <path id="Path_1242504" data-name="Path 1242504" d="M168.385,145.845q0-3.43,0-6.859c0-.864.311-1.175,1.17-1.177,1.041,0,2.082-.006,3.123,0a.932.932,0,0,1,1.061,1.061q.006,6.971,0,13.941a.933.933,0,0,1-1.058,1.064q-1.617.012-3.234,0a.932.932,0,0,1-1.06-1.061c-.006-2.324,0-4.647,0-6.971m3.547-6.227H170.2v1.737h1.737Zm-.011,7.154h-1.715v1.735h1.715Zm-1.727-1.865h1.738v-1.718h-1.738Zm1.719,5.425h-1.718v1.738h1.718Z" transform="translate(-143.278 -117.258)" fill="#ffcc59"/>
        <path id="Path_1242505" data-name="Path 1242505" d="M50.39,157.273v3.31h7.13v-3.293a2.536,2.536,0,0,1,1.8,2.389,2.711,2.711,0,0,1-1.894,2.6,2.854,2.854,0,0,1-.767.12c-1.8.01-3.608.021-5.411,0a2.683,2.683,0,0,1-2.615-2.3,2.619,2.619,0,0,1,1.755-2.829" transform="translate(-41.359 -133.823)" fill="#c0c7d0"/>
        <path id="Path_1242506" data-name="Path 1242506" d="M261.134,160.683v-3.262c.994.061,1.94,1.533,1.777,2.7A2.7,2.7,0,0,1,260.3,162.5q-2.733.037-5.467,0a2.687,2.687,0,0,1-2.608-2.371,2.585,2.585,0,0,1,1.754-2.74v3.3Z" transform="translate(-214.603 -133.918)" fill="#c0c7d0"/>
        <path id="Path_1242507" data-name="Path 1242507" d="M146.2,233.612c0,.315,0,.572,0,.829a2.664,2.664,0,0,0,1.465,2.439.634.634,0,0,1,.306.428c.025,1.129.014,2.258.014,3.44-.935,0-1.839.029-2.74-.011a.822.822,0,0,1-.823-.882q-.023-2.674,0-5.347a.868.868,0,0,1,.88-.892c.276-.018.553,0,.9,0" transform="translate(-122.877 -198.776)" fill="#dee3e8"/>
        <path id="Path_1242508" data-name="Path 1242508" d="M204.316,240.759c0-1.2,0-2.343.007-3.489a.393.393,0,0,1,.155-.3A2.848,2.848,0,0,0,206.1,233.9c-.005-.072.006-.145.013-.285.276,0,.547-.009.817,0a.886.886,0,0,1,.949.939q.021,2.618,0,5.235a.892.892,0,0,1-.982.963c-.835.013-1.67,0-2.585,0" transform="translate(-173.852 -198.781)" fill="#dee3e8"/>
        <path id="Path_1242509" data-name="Path 1242509" d="M125.824,145.1v3.57l-3.541.408a4.861,4.861,0,0,0-1.794-3.276l5.335-.7" transform="translate(-102.524 -123.467)" fill="#ca8d56"/>
        <path id="Path_1242510" data-name="Path 1242510" d="M221.838,145.845a4.867,4.867,0,0,0-1.793,3.279l-3.531-.4v-3.566l5.324.687" transform="translate(-184.232 -123.515)" fill="#ca8d56"/>
        <path id="Path_1242511" data-name="Path 1242511" d="M288.149,231.442h-3.279l-.881-3.518h4.159Z" transform="translate(-241.647 -193.94)" fill="#c58b62"/>
        <path id="Path_1242512" data-name="Path 1242512" d="M64.943,227.938l-.869,3.5H60.781v-3.5Z" transform="translate(-51.718 -193.952)" fill="#c58b62"/>
        <path id="Path_1242513" data-name="Path 1242513" d="M23.051,227.841h3.775v3.539c-.969,0-1.944.006-2.918-.01a.355.355,0,0,1-.245-.23c-.213-1.086-.407-2.176-.613-3.3" transform="translate(-19.614 -193.87)" fill="#c58c62"/>
        <path id="Path_1242514" data-name="Path 1242514" d="M328.137,227.922c-.2,1.1-.389,2.187-.612,3.268-.023.11-.254.247-.392.25-.906.022-1.814.012-2.763.012v-3.53Z" transform="translate(-276.006 -193.939)" fill="#c58c62"/>
        <path id="Path_1242515" data-name="Path 1242515" d="M17.844,173.488,14.2,174.62l-.612-3.236,3.367-1.1a12.661,12.661,0,0,0,.235,1.68,11.9,11.9,0,0,0,.65,1.524" transform="translate(-11.565 -144.895)" fill="#c98c56"/>
        <path id="Path_1242516" data-name="Path 1242516" d="M331.007,170.081l3.457,1.126-.611,3.241-3.708-1.161a4.632,4.632,0,0,0,.862-3.206" transform="translate(-280.92 -144.722)" fill="#c98c56"/>
        <path id="Path_1242517" data-name="Path 1242517" d="M29.723,263.7H32.5v3.512H30.386l-.663-3.512" transform="translate(-25.291 -224.379)" fill="#c58b62"/>
        <path id="Path_1242518" data-name="Path 1242518" d="M324.24,267.292v-3.519h2.789l-.659,3.519Z" transform="translate(-275.895 -224.444)" fill="#c58b62"/>
        <path id="Path_1242519" data-name="Path 1242519" d="M60.763,205.492v-1.745H65.82l-.417,1.745Z" transform="translate(-51.703 -173.368)" fill="#c58b62"/>
        <path id="Path_1242520" data-name="Path 1242520" d="M278.446,205.477l-.416-1.743h5.04v1.743Z" transform="translate(-236.575 -173.357)" fill="#c58b62"/>
        <path id="Path_1242521" data-name="Path 1242521" d="M62.8,267.33H60.857v-3.514h2.812l-.87,3.514" transform="translate(-51.783 -224.481)" fill="#c48b61"/>
        <path id="Path_1242522" data-name="Path 1242522" d="M293.845,267.287l-.867-3.5H295.8v3.5Z" transform="translate(-249.295 -224.459)" fill="#c48b61"/>
        <rect id="Rectangle_410642" data-name="Rectangle 410642" width="1.721" height="3.524" transform="translate(26.925 38.44)" fill="#ffe495"/>
        <path id="Path_1242523" data-name="Path 1242523" d="M324.238,204.484v-1.96c1.107.339,2.176.665,3.246.993.212.065.42.143.632.2.231.068.451.171.315.448a.589.589,0,0,1-.41.3c-1.24.024-2.48.014-3.782.014" transform="translate(-275.894 -172.327)" fill="#c38a61"/>
        <path id="Path_1242524" data-name="Path 1242524" d="M19.159,203.881l4.369-1.358v1.958c-1.316,0-2.623.014-3.929-.022-.127,0-.246-.313-.439-.578" transform="translate(-16.302 -172.327)" fill="#c48a61"/>
        <path id="Path_1242525" data-name="Path 1242525" d="M38.279,303.192c-1.135.06-1.129.059-1.313-1-.144-.832-.305-1.661-.465-2.523h1.777Z" transform="translate(-31.06 -254.985)" fill="#c48b61"/>
        <path id="Path_1242526" data-name="Path 1242526" d="M325.389,303.206h-1.126v-3.519h1.781l-.655,3.519" transform="translate(-275.915 -255.003)" fill="#c48b61"/>
        <path id="Path_1242527" data-name="Path 1242527" d="M313.677,335.65a4.477,4.477,0,0,1-2.037,2.868l-.72-2.868Z" transform="translate(-264.561 -285.604)" fill="#c28960"/>
        <path id="Path_1242528" data-name="Path 1242528" d="M46.169,335.43l-.691,2.795a3.718,3.718,0,0,1-2.05-2.795h2.742Z" transform="translate(-36.952 -285.417)" fill="#c28960"/>
        <path id="Path_1242529" data-name="Path 1242529" d="M60.806,299.67h1.485l-.877,3.527h-.608Z" transform="translate(-51.74 -254.989)" fill="#c38a61"/>
        <path id="Path_1242530" data-name="Path 1242530" d="M301.938,299.64h1.484v3.522h-.607l-.877-3.522" transform="translate(-256.919 -254.963)" fill="#c38a61"/>
        <rect id="Rectangle_410643" data-name="Rectangle 410643" width="1.736" height="1.724" transform="translate(12.626 50.045)" fill="#040506"/>
        <rect id="Rectangle_410644" data-name="Rectangle 410644" width="1.725" height="1.706" transform="translate(16.199 50.054)" fill="#040506"/>
        <rect id="Rectangle_410645" data-name="Rectangle 410645" width="1.724" height="1.736" transform="translate(19.781 50.044)" fill="#040506"/>
        <rect id="Rectangle_410646" data-name="Rectangle 410646" width="1.737" height="1.737" transform="translate(26.917 22.36)" fill="#040506"/>
        <rect id="Rectangle_410647" data-name="Rectangle 410647" width="1.715" height="1.735" transform="translate(26.928 29.513)" fill="#040506"/>
        <rect id="Rectangle_410648" data-name="Rectangle 410648" width="1.738" height="1.718" transform="translate(26.916 25.931)" fill="#040506"/>
        <rect id="Rectangle_410649" data-name="Rectangle 410649" width="1.718" height="1.738" transform="translate(26.917 33.073)" fill="#040506"/>
      </g>
    </g>
  </g>
</svg>
