<svg xmlns="http://www.w3.org/2000/svg" xmlns:xlink="http://www.w3.org/1999/xlink" width="118" height="118" viewBox="0 0 118 118">
  <defs>
    <filter id="Ellipse_12115" x="0" y="0" width="118" height="118" filterUnits="userSpaceOnUse">
      <feOffset dy="3" input="SourceAlpha"/>
      <feGaussianBlur stdDeviation="3" result="blur"/>
      <feFlood flood-opacity="0.161"/>
      <feComposite operator="in" in2="blur"/>
      <feComposite in="SourceGraphic"/>
    </filter>
    <clipPath id="clip-path">
      <rect id="Rectangle_410654" data-name="Rectangle 410654" width="58.805" height="57.764" fill="none"/>
    </clipPath>
  </defs>
  <g id="Group_1188001" data-name="Group 1188001" transform="translate(-799.781 -1970)">
    <g id="Group_1181939" data-name="Group 1181939" transform="translate(808.781 1976)">
      <g transform="matrix(1, 0, 0, 1, -9, -6)" filter="url(#Ellipse_12115)">
        <g id="Ellipse_12115-2" data-name="Ellipse 12115" transform="translate(9 6)" fill="#f9f6f2" stroke="#b16a1b" stroke-width="2">
          <circle cx="50" cy="50" r="50" stroke="none"/>
          <circle cx="50" cy="50" r="49" fill="none"/>
        </g>
      </g>
    </g>
    <g id="Group_1188032" data-name="Group 1188032" transform="translate(829.379 1997.118)">
      <g id="Group_1188031" data-name="Group 1188031" clip-path="url(#clip-path)">
        <path id="Path_1242531" data-name="Path 1242531" d="M56.654,53.91c-.267,1.022-.534,2-.774,2.986a1.015,1.015,0,0,1-1.124.869q-1.837-.02-3.675,0a1,1,0,0,1-1.1-.82c-.255-1-.517-2-.779-3.015H9.606c-.26,1-.524,2-.776,3a1,1,0,0,1-1.091.833q-1.868-.017-3.736,0a.973.973,0,0,1-1.058-.8c-.26-1-.517-2.006-.787-3.057-.377,0-.762.009-1.146,0A.932.932,0,0,1,0,52.944c-.007-.14,0-.281,0-.421V1.389C0,.232.242,0,1.437,0H57.414C58.555,0,58.8.247,58.8,1.372V52.386c0,1.333-.192,1.522-1.544,1.524h-.606M28.406,25.75c.006-.1.016-.2.016-.3q0-11.581,0-23.162c0-.113-.019-.226-.028-.328H1.977c-.006.112-.014.19-.014.268q0,11.641,0,23.282a1.137,1.137,0,0,0,.018.357c.018.053.146.069.224.1.142.008.284.022.426.023H27.883a1.782,1.782,0,0,0,.424-.018c.049-.012.067-.145.1-.223m-.225,26.211c.081-.173.232-.346.232-.519q.018-11.521.009-23.041c0-.153-.019-.306-.029-.448H1.977c-.006.112-.014.19-.014.268q0,11.641,0,23.282a1.136,1.136,0,0,0,.018.357c.018.053.146.069.224.1.142.008.284.022.426.022q12.562,0,25.124,0c.142,0,.284-.015.426-.022M56.6,25.969c.081-.173.232-.346.233-.519q.017-11.521.009-23.042c0-.153-.019-.306-.029-.448H30.4c-.006.112-.014.19-.014.268q0,11.641,0,23.282a1.141,1.141,0,0,0,.018.357c.018.053.146.069.224.1.142.008.284.022.426.022H56.176c.142,0,.284-.015.426-.022m.225,25.773c.006-.1.016-.2.017-.3q0-11.581,0-23.162c0-.113-.019-.226-.028-.328H30.4c-.006.112-.014.19-.014.268q0,11.641,0,23.282a1.136,1.136,0,0,0,.018.357c.018.053.146.069.224.1.142.008.284.022.426.022H56.3a1.792,1.792,0,0,0,.424-.018c.049-.012.067-.145.1-.223M7.516,53.979H4.239l.478,1.828H7.059l.457-1.828m47.049-.025h-3.28l.463,1.851H54.1l.462-1.851" transform="translate(0 0)" fill="#050506"/>
        <path id="Path_1242532" data-name="Path 1242532" d="M185.934,194.864c-.078-.033-.206-.049-.224-.1a1.138,1.138,0,0,1-.018-.357q0-11.641,0-23.282c0-.078.008-.156.014-.268h26.417c.009.1.028.215.028.328q0,11.581,0,23.162c0,.1-.011.2-.017.3a4.307,4.307,0,0,1-.574-.4c-1.569-1.529-3.126-3.068-4.694-4.6a4.687,4.687,0,0,0-.572-.414c-.007-.22-.021-.44-.021-.66,0-2.585-.022-5.17.005-7.755.024-2.271,0-2.35-2.311-2.294-.2,0-.4,0-.66,0a5.224,5.224,0,0,0-.957-3.847,4.821,4.821,0,0,0-3.523-1.916,4.763,4.763,0,0,0-3.274.912,5.074,5.074,0,0,0-2.023,4.851H192.1c-1.265,0-1.5.233-1.507,1.452q-.01,5.169-.024,10.339a2.084,2.084,0,0,0-.4.245q-2,1.948-3.981,3.911a2.038,2.038,0,0,0-.25.4" transform="translate(-155.308 -142.904)" fill="#fff0db"/>
        <path id="Path_1242533" data-name="Path 1242533" d="M185.933,35.991c-.078-.033-.207-.049-.225-.1a1.136,1.136,0,0,1-.018-.357q0-11.641,0-23.282c0-.078.008-.156.014-.268h26.416c.01.142.029.295.029.448q0,11.521-.009,23.042c0,.173-.152.346-.232.519-.644-.684-1.278-1.378-1.936-2.048a6.554,6.554,0,0,0-.75-.577,3.53,3.53,0,0,0-.045-.538q-1.447-6.159-2.9-12.316a1.015,1.015,0,0,0-1.131-.866c-.6.012-1.2,0-1.8,0a4.925,4.925,0,0,0-9.846-.035.653.653,0,0,1-.107.03c-.531,0-1.062,0-1.592.005-.783,0-1.048.2-1.228.959-.939,3.968-1.865,7.939-2.813,11.905a1.434,1.434,0,0,0,.148,1.31c-.288.307-.581.611-.864.923-.374.412-.74.83-1.11,1.245" transform="translate(-155.307 -10.023)" fill="#fff0db"/>
        <path id="Path_1242534" data-name="Path 1242534" d="M12.213,194.864c-.078-.033-.207-.049-.224-.1a1.138,1.138,0,0,1-.018-.357q0-11.641,0-23.282c0-.078.008-.156.014-.268H38.4c.009.142.029.3.029.448q0,11.521-.009,23.042c0,.173-.152.346-.232.519-.254-.3-.489-.62-.764-.9-1.095-1.12-2.2-2.227-3.3-3.339a3.244,3.244,0,0,0,1.385-2.9c-.047-2.385-.011-4.772-.015-7.158a2.9,2.9,0,0,0-3.026-3q-7.746-.005-15.493,0a2.9,2.9,0,0,0-3.039,2.989c0,2.366.042,4.733-.017,7.1a3.169,3.169,0,0,0,1.977,3.266,3.391,3.391,0,0,1-.364.53c-.973.971-1.961,1.928-2.935,2.9a3.924,3.924,0,0,0-.38.523" transform="translate(-10.008 -142.904)" fill="#fff0db"/>
        <path id="Path_1242535" data-name="Path 1242535" d="M12.213,35.99c-.078-.033-.206-.049-.224-.1a1.136,1.136,0,0,1-.018-.357q0-11.641,0-23.282c0-.078.008-.156.014-.268H38.4c.009.1.028.215.028.328q0,11.581,0,23.162c0,.1-.011.2-.017.3a4.258,4.258,0,0,1-.534-.365c-.562-.52-1.111-1.054-1.664-1.583A4.509,4.509,0,0,0,36.46,32.8c.016-4.908.011-9.817.011-14.725,0-1.023-.3-1.317-1.339-1.317H16.286c-1.089,0-1.375.279-1.376,1.339Q14.9,25.732,14.9,33.365a12.714,12.714,0,0,0-1.008.833c-.577.58-1.12,1.193-1.677,1.792" transform="translate(-10.008 -10.022)" fill="#fff1db"/>
        <path id="Path_1242536" data-name="Path 1242536" d="M13.477,295.924a3.925,3.925,0,0,1,.38-.523c.974-.97,1.962-1.927,2.935-2.9a3.392,3.392,0,0,0,.364-.53c.565.041,1.13.118,1.695.119,4.845.01,9.69.021,14.535-.013a10.6,10.6,0,0,0,2-.4c1.1,1.112,2.21,2.22,3.3,3.339.275.281.511.6.764.9-.142.008-.284.022-.426.022q-12.562,0-25.124,0c-.142,0-.284-.015-.426-.022" transform="translate(-11.272 -243.963)" fill="#e8d9c7"/>
        <path id="Path_1242537" data-name="Path 1242537" d="M187.2,288.8a2.038,2.038,0,0,1,.25-.4q1.983-1.963,3.981-3.911a2.084,2.084,0,0,1,.4-.245c.008.5.017,1,.024,1.5.01.792.352,1.147,1.141,1.148q6.7,0,13.4,0c.787,0,1.133-.358,1.141-1.148q.013-1.291.022-2.582a4.689,4.689,0,0,1,.572.414c1.568,1.529,3.126,3.069,4.694,4.6a4.307,4.307,0,0,0,.574.4c-.032.078-.05.211-.1.223a1.791,1.791,0,0,1-.424.018H187.624c-.142,0-.284-.015-.426-.022" transform="translate(-156.572 -236.839)" fill="#e8d9c7"/>
        <path id="Path_1242538" data-name="Path 1242538" d="M13.477,145.309c.557-.6,1.1-1.212,1.677-1.792a12.714,12.714,0,0,1,1.008-.833,1.265,1.265,0,0,0,1.325.733c6.319-.016,12.639-.006,18.958-.021a4.481,4.481,0,0,0,1.035-.253c.553.529,1.1,1.063,1.664,1.583a4.26,4.26,0,0,0,.534.365c-.032.078-.05.211-.1.224a1.792,1.792,0,0,1-.424.018H13.9c-.142,0-.284-.015-.426-.022" transform="translate(-11.272 -119.341)" fill="#e8d9c7"/>
        <path id="Path_1242539" data-name="Path 1242539" d="M210.488,142.684a6.583,6.583,0,0,1,.75.577c.658.671,1.292,1.364,1.936,2.048-.142.008-.284.022-.426.022q-12.562,0-25.124,0c-.142,0-.284-.015-.426-.022.37-.415.736-.833,1.11-1.245.283-.312.576-.616.864-.923a4.453,4.453,0,0,0,1.034.255c6.319.016,12.638.005,18.957.021a1.264,1.264,0,0,0,1.325-.733" transform="translate(-156.572 -119.341)" fill="#e8d9c7"/>
        <path id="Path_1242540" data-name="Path 1242540" d="M29.184,329.937l-.457,1.828H26.384l-.478-1.828Z" transform="translate(-21.668 -275.958)" fill="#7f3a1e"/>
        <path id="Path_1242541" data-name="Path 1242541" d="M316.749,329.786l-.462,1.85h-2.355l-.463-1.85Z" transform="translate(-262.185 -275.832)" fill="#7f3a1e"/>
        <path id="Path_1242542" data-name="Path 1242542" d="M231.247,198.863q-.011,1.291-.022,2.582c-.008.791-.354,1.148-1.141,1.148q-6.7,0-13.4,0c-.789,0-1.132-.356-1.142-1.148-.006-.5-.016-1-.023-1.5q.012-5.169.023-10.339c0-1.219.242-1.452,1.507-1.452h1.432a5.073,5.073,0,0,1,2.023-4.85,4.762,4.762,0,0,1,3.274-.912,4.821,4.821,0,0,1,3.523,1.916,5.223,5.223,0,0,1,.957,3.847c.264,0,.462,0,.66,0,2.307-.056,2.335.022,2.311,2.294-.027,2.585-.007,5.17-.005,7.755,0,.22.014.44.021.66m-13.726-2.079h11.707v-6.669H217.521Zm11.719,2H217.552v1.852H229.24ZM226.3,188.138c.151-1.493-.151-2.747-1.552-3.486a2.781,2.781,0,0,0-3.1.234,3.147,3.147,0,0,0-1.157,3.252Z" transform="translate(-180.26 -152.536)" fill="#060607"/>
        <path id="Path_1242543" data-name="Path 1242543" d="M219.377,47.917a1.264,1.264,0,0,1-1.325.733c-6.319-.015-12.638-.005-18.957-.021a4.445,4.445,0,0,1-1.034-.255,1.433,1.433,0,0,1-.148-1.31c.949-3.966,1.875-7.937,2.813-11.905.18-.759.445-.955,1.228-.959.531,0,1.062,0,1.593-.005a.678.678,0,0,0,.107-.03,4.925,4.925,0,0,1,9.846.035c.595,0,1.2.009,1.8,0a1.015,1.015,0,0,1,1.131.866q1.449,6.159,2.9,12.316a3.553,3.553,0,0,1,.045.538m-18.129-6.371-1.208,5.147h17.088l-1.208-5.147-.608-2.566a11.844,11.844,0,0,0-.808,2.035,1.126,1.126,0,0,1-1.246.895q-4.674-.026-9.348,0a1.128,1.128,0,0,1-1.246-.895c-.2-.69-.468-1.363-.706-2.043l-.109.02-.6,2.554m1.865-5.39c.429,1.273.814,2.447,1.233,3.61.039.108.292.2.447.2,2.528.012,5.056.016,7.583-.008a.692.692,0,0,0,.5-.369c.272-.667.489-1.355.718-2.038.149-.445.285-.894.445-1.4Zm2.541-1.977h5.837a2.885,2.885,0,0,0-2.793-2.864,2.941,2.941,0,0,0-3.044,2.864" transform="translate(-165.46 -24.574)" fill="#080707"/>
        <path id="Path_1242544" data-name="Path 1242544" d="M44.076,224.888a10.6,10.6,0,0,1-2,.4c-4.845.034-9.69.022-14.535.013-.565,0-1.13-.077-1.695-.119a3.169,3.169,0,0,1-1.977-3.266c.059-2.365.012-4.732.017-7.1a2.9,2.9,0,0,1,3.039-2.989q7.746,0,15.493,0a2.9,2.9,0,0,1,3.026,3c0,2.386-.032,4.773.015,7.158a3.244,3.244,0,0,1-1.385,2.9M25.847,219.5H33.7v-1.86h1.973v1.848h7.816c0-1.584.01-3.127,0-4.67a.988.988,0,0,0-1.123-1.062q-7.686-.008-15.371,0a1,1,0,0,0-1.138,1.109c-.01,1.524,0,3.048,0,4.634m0,1.986c0,.288-.008.545,0,.8a1,1,0,0,0,1.1,1.09q7.711.012,15.421,0a.985.985,0,0,0,1.089-.846,5.944,5.944,0,0,0,.011-1.03h-7.8c-.017.322-.032.6-.047.873H33.7l-.04-.891Z" transform="translate(-19.964 -177.168)" fill="#050606"/>
        <path id="Path_1242545" data-name="Path 1242545" d="M51.2,58.252a4.47,4.47,0,0,1-1.035.253c-6.319.015-12.639.005-18.958.021a1.265,1.265,0,0,1-1.325-.733L29.9,42.528c0-1.06.287-1.339,1.376-1.339H50.118c1.041,0,1.339.293,1.339,1.317,0,4.908.005,9.817-.011,14.725a4.508,4.508,0,0,1-.245,1.022M31.873,48.661v7.9H49.48V46c-.219.133-.343.2-.458.28-2.524,1.73-5.053,3.454-7.567,5.2a1.205,1.205,0,0,1-1.558,0c-1.875-1.315-3.768-2.6-5.656-3.9-.76-.521-1.526-1.034-2.367-1.6Zm8.8.966c2.887-1.985,5.745-3.946,8.591-5.923.14-.1.173-.343.274-.558H31.695a3.428,3.428,0,0,0,.52.643c2.8,1.941,5.605,3.87,8.464,5.838" transform="translate(-24.994 -34.45)" fill="#050507"/>
        <rect id="Rectangle_410651" data-name="Rectangle 410651" width="11.707" height="6.669" transform="translate(37.261 37.579)" fill="#f9c07d"/>
        <rect id="Rectangle_410652" data-name="Rectangle 410652" width="11.687" height="1.852" transform="translate(37.292 46.25)" fill="#d99157"/>
        <path id="Path_1242546" data-name="Path 1242546" d="M251.418,197.921h-5.811a3.147,3.147,0,0,1,1.157-3.252,2.781,2.781,0,0,1,3.1-.234c1.4.739,1.7,1.993,1.552,3.486" transform="translate(-205.382 -162.319)" fill="#ffefda"/>
        <path id="Path_1242547" data-name="Path 1242547" d="M227.247,103.741l1.208,5.147H211.367l1.208-5.147a2.157,2.157,0,0,1,.331.507c.174.567.307,1.146.471,1.774h11.785c1.3,0,1.29,0,1.624-1.252a6.859,6.859,0,0,1,.46-1.029" transform="translate(-176.787 -86.769)" fill="#7f3a1e"/>
        <path id="Path_1242548" data-name="Path 1242548" d="M230.149,70.793h10.923c-.16.5-.3.952-.445,1.4-.229.683-.446,1.371-.718,2.038a.693.693,0,0,1-.5.369c-2.528.024-5.056.02-7.583.008-.154,0-.408-.093-.447-.2-.419-1.162-.8-2.337-1.233-3.61m4.524,2.821h1.878V71.763h-1.878Z" transform="translate(-192.496 -59.211)" fill="#7f3a1e"/>
        <path id="Path_1242549" data-name="Path 1242549" d="M233.42,90.583a6.86,6.86,0,0,0-.46,1.029c-.334,1.248-.32,1.252-1.624,1.252H219.55c-.163-.628-.3-1.207-.471-1.774a2.157,2.157,0,0,0-.331-.507l.6-2.554.109-.02c.238.68.5,1.353.706,2.043a1.127,1.127,0,0,0,1.246.895q4.674-.026,9.347,0A1.126,1.126,0,0,0,232,90.052a11.83,11.83,0,0,1,.808-2.035l.608,2.566" transform="translate(-182.96 -73.611)" fill="#67311a"/>
        <path id="Path_1242550" data-name="Path 1242550" d="M245.678,44.056a2.941,2.941,0,0,1,3.044-2.864,2.885,2.885,0,0,1,2.793,2.864Z" transform="translate(-205.484 -34.452)" fill="#feeed9"/>
        <path id="Path_1242551" data-name="Path 1242551" d="M35.945,229.341c0-1.587-.007-3.111,0-4.634a1,1,0,0,1,1.138-1.109q7.686-.008,15.371,0a.989.989,0,0,1,1.123,1.062c.014,1.543,0,3.085,0,4.67H45.768v-1.848H43.8v1.86Z" transform="translate(-30.062 -187.014)" fill="#ffd03d"/>
        <path id="Path_1242552" data-name="Path 1242552" d="M35.943,270.862h7.818c.013.3.026.577.04.891h1.916c.015-.277.03-.551.047-.873h7.8a5.945,5.945,0,0,1-.011,1.03.985.985,0,0,1-1.089.846q-7.711,0-15.421,0a1,1,0,0,1-1.1-1.09c-.009-.255,0-.512,0-.8" transform="translate(-30.06 -226.548)" fill="#b3912d"/>
        <path id="Path_1242553" data-name="Path 1242553" d="M59.657,86.864v7.9H42.05v-7.9c1.506,1.019,3.016,2.034,4.518,3.059,1.433.977,2.859,1.964,4.286,2.945,1.453-1,2.866-1.976,4.285-2.944q2.254-1.537,4.517-3.06" transform="translate(-35.171 -72.653)" fill="#31537e"/>
        <path id="Path_1242554" data-name="Path 1242554" d="M49.94,59.637c-2.859-1.968-5.666-3.9-8.464-5.838a3.429,3.429,0,0,1-.52-.643H58.805c-.1.215-.134.461-.274.558-2.846,1.977-5.7,3.938-8.591,5.923" transform="translate(-34.256 -44.46)" fill="#31537e"/>
        <path id="Path_1242555" data-name="Path 1242555" d="M59.657,73.1q-2.259,1.529-4.517,3.06c-1.419.968-2.831,1.945-4.285,2.944-1.427-.981-2.853-1.968-4.286-2.945-1.5-1.024-3.012-2.039-4.518-3.059V70.41c.841.569,1.608,1.082,2.367,1.6,1.889,1.3,3.782,2.585,5.657,3.9a1.205,1.205,0,0,0,1.558,0c2.514-1.744,5.042-3.468,7.566-5.2.115-.079.239-.146.458-.28Z" transform="translate(-35.171 -58.891)" fill="#243a57"/>
        <rect id="Rectangle_410653" data-name="Rectangle 410653" width="1.878" height="1.851" transform="translate(42.177 12.552)" fill="#040506"/>
      </g>
    </g>
  </g>
</svg>
