<svg xmlns="http://www.w3.org/2000/svg" xmlns:xlink="http://www.w3.org/1999/xlink" width="88" height="88" viewBox="0 0 88 88">
  <defs>
    <filter id="Ellipse_12115" x="0" y="0" width="88" height="88" filterUnits="userSpaceOnUse">
      <feOffset dy="3" input="SourceAlpha"/>
      <feGaussianBlur stdDeviation="3" result="blur"/>
      <feFlood flood-opacity="0.161"/>
      <feComposite operator="in" in2="blur"/>
      <feComposite in="SourceGraphic"/>
    </filter>
  </defs>
  <g id="Group_1181947" data-name="Group 1181947" transform="translate(-799.781 -2543.672)">
    <g transform="matrix(1, 0, 0, 1, 799.78, 2543.67)" filter="url(#Ellipse_12115)">
      <g id="Ellipse_12115-2" data-name="Ellipse 12115" transform="translate(9 6)" fill="#ffd5a8" stroke="#ff9927" stroke-width="2">
        <circle cx="35" cy="35" r="35" stroke="none"/>
        <circle cx="35" cy="35" r="34" fill="none"/>
      </g>
    </g>
    <g id="camera-bag_5848757" transform="translate(815.401 2565.865)">
      <path id="Path_1241699" data-name="Path 1241699" d="M11.4,47.7H7.7A3.7,3.7,0,0,1,4,44h7.4Z" transform="translate(-1.224 -14.392)" fill="#795348"/>
      <path id="Path_1241700" data-name="Path 1241700" d="M11.252,29.551,7.775,33.028A13.407,13.407,0,0,0,3.85,42.5l-.5-.747a8.052,8.052,0,0,1,.742-9.884L11.252,24Z" transform="translate(-1.074 -12.897)" fill="#916657"/>
      <path id="Path_1241701" data-name="Path 1241701" d="M47.159,48.757a1.85,1.85,0,0,0,1.851-1.85V22.85A1.85,1.85,0,0,0,47.159,21H13.85A1.85,1.85,0,0,0,12,22.85V46.907a1.85,1.85,0,0,0,1.85,1.85Z" transform="translate(-1.822 -12.673)" fill="#795348"/>
      <path id="Path_1241702" data-name="Path 1241702" d="M45.309,35.848H15.7A4.61,4.61,0,0,1,12,33.969V47.876a1.85,1.85,0,0,0,1.85,1.85H47.159a1.851,1.851,0,0,0,1.851-1.85V33.969A4.61,4.61,0,0,1,45.309,35.848Z" transform="translate(-1.822 -13.642)" fill="#916657"/>
      <path id="Path_1241703" data-name="Path 1241703" d="M49.01,30.252a3.7,3.7,0,0,1-3.7,3.7H15.7a3.7,3.7,0,0,1-3.7-3.7v-7.4A1.85,1.85,0,0,1,13.85,21H47.159a1.85,1.85,0,0,1,1.851,1.85Z" transform="translate(-1.822 -12.673)" fill="#a37763"/>
      <path id="Path_1241704" data-name="Path 1241704" d="M46.234,25.85A1.85,1.85,0,0,0,44.384,24H12v6.477a3.7,3.7,0,0,0,3.7,3.7H45.309a3.677,3.677,0,0,0,.825-.1,3.67,3.67,0,0,0,.1-.825Z" transform="translate(-1.822 -12.897)" fill="#bf9275"/>
      <path id="Path_1241705" data-name="Path 1241705" d="M34,35v9.252a1.851,1.851,0,0,0,1.851,1.85H45.1a1.85,1.85,0,0,0,1.85-1.85V35" transform="translate(-3.466 -13.719)" fill="#795348"/>
      <path id="Path_1241706" data-name="Path 1241706" d="M16,35v9.252a1.85,1.85,0,0,0,1.85,1.85H27.1a1.85,1.85,0,0,0,1.85-1.85V35" transform="translate(-2.121 -13.719)" fill="#795348"/>
      <path id="Path_1241707" data-name="Path 1241707" d="M21,21V39.5l1.85,1.85L24.7,39.5V21" transform="translate(-2.494 -12.673)" fill="#383838"/>
      <path id="Path_1241708" data-name="Path 1241708" d="M42.7,20.477H40.85V17.7A1.85,1.85,0,0,0,39,15.85V14a3.7,3.7,0,0,1,3.7,3.7Z" transform="translate(-3.84 -12.15)" fill="#a37763"/>
      <path id="Path_1241709" data-name="Path 1241709" d="M22.85,20.477H21V17.7A3.7,3.7,0,0,1,24.7,14v1.85a1.85,1.85,0,0,0-1.85,1.85Z" transform="translate(-2.494 -12.15)" fill="#a37763"/>
      <path id="Path_1241710" data-name="Path 1241710" d="M25,13H37.953v3.7H25Z" transform="translate(-2.793 -12.075)" fill="#795348"/>
      <path id="Path_1241711" data-name="Path 1241711" d="M52,47.7h3.7A3.7,3.7,0,0,0,59.4,44H52Z" transform="translate(-4.812 -14.392)" fill="#795348"/>
      <path id="Path_1241712" data-name="Path 1241712" d="M52,29.551l3.477,3.477A13.407,13.407,0,0,1,59.4,42.5l.5-.747a8.052,8.052,0,0,0-.742-9.884L52,24Z" transform="translate(-4.812 -12.897)" fill="#916657"/>
      <path id="Path_1241713" data-name="Path 1241713" d="M39,21V39.5l1.85,1.85L42.7,39.5V21" transform="translate(-3.84 -12.673)" fill="#383838"/>
      <path id="Path_1241714" data-name="Path 1241714" d="M23.925,40.43l.925-.925V21H23V39.5Z" transform="translate(-2.644 -12.673)" fill="#4c4c4c"/>
      <path id="Path_1241715" data-name="Path 1241715" d="M24.7,37H21v3.7l1.85,1.85L24.7,40.7Z" transform="translate(-2.494 -13.869)" fill="#f9cb52"/>
      <path id="Path_1241716" data-name="Path 1241716" d="M41.925,40.43l.925-.925V21H41V39.5Z" transform="translate(-3.989 -12.673)" fill="#4c4c4c"/>
      <path id="Path_1241717" data-name="Path 1241717" d="M42.7,37H39v3.7l1.85,1.85L42.7,40.7Z" transform="translate(-3.84 -13.869)" fill="#f9cb52"/>
      <path id="Path_1241718" data-name="Path 1241718" d="M28.85,14.85H38.1V13H27A1.85,1.85,0,0,0,28.85,14.85Z" transform="translate(-2.943 -12.075)" fill="#916657"/>
      <path id="Path_1241719" data-name="Path 1241719" d="M49.113,22.745v-.567A2.776,2.776,0,0,0,46.337,19.4H39.86v-1.85a3.7,3.7,0,0,0-2.776-3.57V12.925A.925.925,0,0,0,36.159,12H23.206a.925.925,0,0,0-.925.925v1.057a3.7,3.7,0,0,0-2.776,3.57V19.4H13.028a2.776,2.776,0,0,0-2.776,2.776v.567l-6.917,7.61a8.975,8.975,0,0,0-.827,11.02l.376.563a4.618,4.618,0,0,0,4.593,4.3h2.776a2.776,2.776,0,0,0,2.776,2.776H46.337a2.776,2.776,0,0,0,2.776-2.776h2.776a4.618,4.618,0,0,0,4.593-4.3l.376-.563a8.975,8.975,0,0,0-.826-11.02Zm0,8.142,1.9,1.9a12.379,12.379,0,0,1,3.608,7.9H49.113Zm-1.85-8.709v7.4a2.776,2.776,0,0,1-2.776,2.776h-3.7v-11.1h5.551a.925.925,0,0,1,.925.925ZM15.8,34.206H18.58v4.626a.925.925,0,0,0,.271.654L20.7,41.337a.925.925,0,0,0,1.308,0l1.85-1.85a.925.925,0,0,0,.271-.654V34.206h2.776v8.327a.925.925,0,0,1-.925.925H16.729a.925.925,0,0,1-.925-.925Zm6.477-12.953V34.206H20.43V21.252Zm-1.85,14.8h1.85v2.393l-.925.925-.925-.925Zm3.7-3.7v-11.1h11.1v11.1Zm12.953,3.7h1.85v2.393l-.925.925-.925-.925Zm1.85-14.8V34.206h-1.85V21.252ZM32.458,34.206h2.776v4.626a.925.925,0,0,0,.271.654l1.851,1.851a.925.925,0,0,0,1.308,0l1.85-1.85a.925.925,0,0,0,.271-.654V34.206h2.776v8.327a.925.925,0,0,1-.925.925H33.384a.925.925,0,0,1-.925-.925ZM24.131,13.85h11.1V15.7h-11.1Zm-2.776,3.7a1.843,1.843,0,0,1,.925-1.592v.667a.925.925,0,0,0,.925.925H36.159a.925.925,0,0,0,.925-.925v-.667a1.843,1.843,0,0,1,.925,1.592V19.4H21.355ZM12.1,22.178a.925.925,0,0,1,.925-.925H18.58v11.1h-3.7A2.776,2.776,0,0,1,12.1,29.58ZM4.7,31.6l5.551-6.107V28.27L7.046,31.476a14.227,14.227,0,0,0-3.859,7.067A7.1,7.1,0,0,1,4.7,31.6Zm5.551-.713v9.8H4.746a12.379,12.379,0,0,1,3.608-7.9Zm-2.776,13.5a2.781,2.781,0,0,1-2.618-1.85h5.393v1.85Zm38.86,2.776H13.028a.925.925,0,0,1-.925-.925V33.257a4.584,4.584,0,0,0,1.85.856v8.421a2.776,2.776,0,0,0,2.776,2.776h9.252a2.776,2.776,0,0,0,2.776-2.776V34.206h1.85v8.327a2.776,2.776,0,0,0,2.776,2.776h9.252a2.776,2.776,0,0,0,2.776-2.776v-8.42a4.584,4.584,0,0,0,1.85-.856V46.234A.925.925,0,0,1,46.337,47.159Zm5.551-2.776H49.113v-1.85h5.393A2.781,2.781,0,0,1,51.889,44.384Zm4.289-5.84a14.227,14.227,0,0,0-3.859-7.067L49.113,28.27V25.495L54.664,31.6a7.1,7.1,0,0,1,1.516,6.939Z" transform="translate(-0.999 -12)"/>
    </g>
  </g>
</svg>
