<svg xmlns="http://www.w3.org/2000/svg" xmlns:xlink="http://www.w3.org/1999/xlink" width="118" height="118" viewBox="0 0 118 118">
  <defs>
    <filter id="Ellipse_12115" x="0" y="0" width="118" height="118" filterUnits="userSpaceOnUse">
      <feOffset dy="3" input="SourceAlpha"/>
      <feGaussianBlur stdDeviation="3" result="blur"/>
      <feFlood flood-opacity="0.161"/>
      <feComposite operator="in" in2="blur"/>
      <feComposite in="SourceGraphic"/>
    </filter>
    <clipPath id="clip-path">
      <rect id="Rectangle_410629" data-name="Rectangle 410629" width="53.306" height="54.048" fill="none"/>
    </clipPath>
  </defs>
  <g id="Group_1188000" data-name="Group 1188000" transform="translate(-799.781 -1970)">
    <g id="Group_1181939" data-name="Group 1181939" transform="translate(808.781 1976)">
      <g transform="matrix(1, 0, 0, 1, -9, -6)" filter="url(#Ellipse_12115)">
        <g id="Ellipse_12115-2" data-name="Ellipse 12115" transform="translate(9 6)" fill="#f9f6f2" stroke="#b16a1b" stroke-width="2">
          <circle cx="50" cy="50" r="50" stroke="none"/>
          <circle cx="50" cy="50" r="49" fill="none"/>
        </g>
      </g>
    </g>
    <g id="Group_1188004" data-name="Group 1188004" transform="translate(832.128 1998.976)">
      <g id="Group_1188002" data-name="Group 1188002" clip-path="url(#clip-path)">
        <path id="Path_1242377" data-name="Path 1242377" d="M203.065,240.871a7.537,7.537,0,0,0,1.727-.034c.374-.09.67-.5,1-.766-.313-.277-.608-.764-.942-.792a22.861,22.861,0,0,0-3.572,0c-.306.023-.578.491-.865.754.305.28.571.715.924.8a7.3,7.3,0,0,0,1.726.037" transform="translate(-156.554 -186.857)" fill="#fbfafb"/>
        <path id="Path_1242378" data-name="Path 1242378" d="M33.868,3.92l2.4,0c.193.785.794.826,1.448.824q5.068-.012,10.135,0,2.016,0,4.032.019A1.5,1.5,0,0,1,53.55,6.013c.134,1.388.037,2.8.037,4.393a3.826,3.826,0,0,0-.972-.469A6.688,6.688,0,0,0,51.376,10c.135.427.145,1,.434,1.245a7.785,7.785,0,0,0,1.723.85v8.1a3.444,3.444,0,0,0-.98-.5,5.5,5.5,0,0,0-1.22.141,4.713,4.713,0,0,0,.364,1.1,1.1,1.1,0,0,0,.722.448c1.253.144,1.292.979,1.224,1.946-.048.687-.009,1.38-.009,2.07v4.6a4,4,0,0,0-1.03-.525,6.089,6.089,0,0,0-1.236.084c.122.4.122.953.391,1.165a9.584,9.584,0,0,0,1.8.915v8.11a3.668,3.668,0,0,0-.957-.478,6.262,6.262,0,0,0-1.235.061c.147.418.174.983.467,1.221a8.47,8.47,0,0,0,1.785.87c0,2.713.029,5.47-.016,8.226a1.63,1.63,0,0,1-1.839,1.593c-2.179.024-4.36.033-6.538-.019a1.46,1.46,0,0,1-.94-.6c-.411-.552-.579-1.535-1.5-1.211-1.008.354-.256,1.127-.056,1.83-2.6,0-5.09.018-7.583-.031-.226,0-.466-.429-.659-.689-.39-.526-.605-1.456-1.473-1.114-1.007.4-.238,1.14-.023,1.837-2.577,0-5.071.017-7.563-.028-.239,0-.508-.37-.7-.617-.414-.539-.58-1.554-1.508-1.15-.3.132-.249,1.07-.389,1.794-2.2,0-4.694.015-7.187-.025-.223,0-.481-.33-.654-.559-.407-.541-.538-1.574-1.474-1.2-.319.129-.313,1.064-.494,1.783-.95,0-2.216,0-3.482,0-1.858-.007-2.4-.548-2.4-2.386q0-12.315,0-24.629V23.03A19.123,19.123,0,0,0,19.8,17.424,19.175,19.175,0,0,0,25.437,4.876c.853-.352,1.988.309,2.3-.964l2.358.04c.6,1.323,1.782.7,2.718.749.337.018.7-.505,1.056-.782M47.647,31.309a3.518,3.518,0,0,0-.029-1.175c-.129-.343-.493-.6-.754-.89-.274.276-.736.522-.784.832a8.259,8.259,0,0,0-.022,2.361c.044.323.493.59.758.883a4.245,4.245,0,0,0,.807-.944,2.769,2.769,0,0,0,.025-1.066m0,6.651a3.885,3.885,0,0,0-.026-1.187,3.9,3.9,0,0,0-.7-.962c-.3.3-.781.566-.856.916a5.323,5.323,0,0,0-.016,2.051c.076.4.456,1,.769,1.051.691.1.842-.508.831-1.107,0-.254,0-.508,0-.761M13.12,31.354a5.05,5.05,0,0,0,.118,1.289,1.027,1.027,0,0,0,.713.629.964.964,0,0,0,.722-.617,15.231,15.231,0,0,0-.038-2.8.946.946,0,0,0-.744-.568c-.251.019-.587.388-.68.671a5.689,5.689,0,0,0-.091,1.391m1.623,6.592a3.8,3.8,0,0,0-.026-1.177,3.829,3.829,0,0,0-.7-.949c-.288.31-.765.587-.825.936a7.135,7.135,0,0,0,.008,2.252c.049.32.476.582.731.871a3.641,3.641,0,0,0,.787-.867,2.828,2.828,0,0,0,.028-1.066m18.87-25.631v-.007a4.481,4.481,0,0,0,1.286-.03c.311-.1.739-.453.747-.706a1.037,1.037,0,0,0-.665-.78,11.175,11.175,0,0,0-2.58.015,1.033,1.033,0,0,0-.7.739c.014.268.421.624.732.739a3.585,3.585,0,0,0,1.177.029M47.649,18.2h0a3.063,3.063,0,0,0-.026-1.077,4.741,4.741,0,0,0-.759-1.012c-.28.354-.7.672-.8,1.071a3.7,3.7,0,0,0,0,1.724c.107.442.455,1.121.766,1.162.784.1.824-.611.831-1.215,0-.218,0-.435,0-.653M46.02,24.6h.009a3.3,3.3,0,0,0,.03,1.175,3.892,3.892,0,0,0,.812.948c.256-.3.677-.575.733-.91a6.566,6.566,0,0,0,.008-2.146c-.061-.359-.494-.655-.759-.979a6.958,6.958,0,0,0-.812,1.059c-.117.227-.021.565-.021.852m.162,20.841c.509-.268,1.169-.4,1.28-.72a4.354,4.354,0,0,0,.031-1.89c-.021-.167-.451-.4-.683-.388s-.469.266-.644.467-.22.6-.413.676c-.55.207-1.143.421-.824,1.094.163.344.763.48,1.254.761M40.413,10.71a6.106,6.106,0,0,0-1.451.094c-.273.084-.662.49-.63.695a1.07,1.07,0,0,0,.673.754,12.2,12.2,0,0,0,2.579,0,.953.953,0,0,0,.623-.694,1.008,1.008,0,0,0-.576-.737,4.222,4.222,0,0,0-1.218-.113m7.408,1.665c-.147-1.509-1.237-2.184-2.5-1.523a.878.878,0,0,0-.441.648,1.48,1.48,0,0,0,.477.752c.18.185.566.247.639.445.194.528.44,1.051,1.041.78.355-.161.53-.72.786-1.1m-20.762,32.8v0a5.16,5.16,0,0,0,1.3-.027c.29-.078.743-.451.714-.622-.054-.311-.386-.78-.647-.813a11.1,11.1,0,0,0-2.6-.013c-.28.032-.511.494-.764.76.267.24.5.586.811.691a3.885,3.885,0,0,0,1.188.028m6.578-.006a4.5,4.5,0,0,0,1.286-.03,1.2,1.2,0,0,0,.731-.713c.044-.193-.368-.69-.606-.711a15.239,15.239,0,0,0-2.793.01c-.224.021-.569.5-.558.749s.378.589.653.668a4.712,4.712,0,0,0,1.287.027m-13.126.008a4,4,0,0,0,1.184-.027c.316-.1.557-.436.831-.667-.235-.275-.445-.755-.709-.786a11.062,11.062,0,0,0-2.59,0c-.267.032-.481.51-.719.784.27.233.507.569.82.671a4.052,4.052,0,0,0,1.183.03m-5.886.222c.47-.262,1.07-.391,1.224-.726.3-.645-.224-.912-.817-1.083-.18-.052-.232-.465-.4-.661s-.417-.455-.645-.473-.644.213-.666.376a4.353,4.353,0,0,0,.009,1.88c.1.309.775.428,1.3.685m25.585-.236a5.294,5.294,0,0,0,1.3-.027c.284-.074.681-.386.7-.62.022-.259-.309-.77-.52-.789a15.242,15.242,0,0,0-2.81.015c-.219.021-.558.508-.54.759s.4.553.68.637a4.189,4.189,0,0,0,1.189.025M27.9,12.718c.531-.524,1.159-.857,1.181-1.225.043-.747-.665-.781-1.266-.765s-1.316.042-1.194.826c.058.376.7.662,1.28,1.164M15.167,25.42c-.552-.548-.869-1.137-1.253-1.185-.707-.088-.787.575-.771,1.152s-.027,1.335.769,1.268c.375-.032.7-.662,1.255-1.235" transform="translate(-5.575 -3.056)" fill="#c69a77"/>
        <path id="Path_1242379" data-name="Path 1242379" d="M22.161,1.05c-.311,1.273-1.446.613-2.3.965a19.173,19.173,0,0,1-5.633,12.547A19.122,19.122,0,0,1,1.562,20.168V21.38q0,12.315,0,24.63c0,1.839.546,2.38,2.4,2.386,1.266,0,2.532,0,3.482,0,.181-.719.175-1.654.494-1.783.936-.378,1.066.655,1.474,1.2.172.229.43.555.654.559,2.493.04,4.988.025,7.187.025.139-.723.088-1.662.389-1.793.927-.405,1.093.611,1.508,1.15.19.248.459.613.7.617,2.492.045,4.986.028,7.563.028-.215-.7-.984-1.44.023-1.837.868-.342,1.083.588,1.473,1.114.193.26.433.685.659.689,2.493.05,4.988.031,7.583.031-.2-.7-.952-1.476.056-1.83.922-.324,1.09.659,1.5,1.211a1.46,1.46,0,0,0,.94.6c2.178.052,4.359.043,6.538.019A1.631,1.631,0,0,0,48.027,46.8c.044-2.756.015-5.513.015-8.226a8.48,8.48,0,0,1-1.785-.87c-.293-.238-.32-.8-.467-1.221a6.262,6.262,0,0,1,1.235-.061,3.674,3.674,0,0,1,.957.478v-8.11a9.6,9.6,0,0,1-1.8-.915c-.269-.212-.269-.766-.391-1.165a6.071,6.071,0,0,1,1.236-.085,4.011,4.011,0,0,1,1.03.525v-4.6c0-.69-.039-1.383.009-2.07.068-.967.03-1.8-1.224-1.946a1.1,1.1,0,0,1-.722-.448,4.715,4.715,0,0,1-.364-1.1,5.506,5.506,0,0,1,1.22-.141,3.446,3.446,0,0,1,.98.5v-8.1a7.759,7.759,0,0,1-1.723-.85c-.29-.24-.3-.818-.434-1.245a6.669,6.669,0,0,1,1.238-.062,3.821,3.821,0,0,1,.972.469c0-1.6.1-3.005-.037-4.393A1.5,1.5,0,0,0,46.311,1.9Q44.3,1.879,42.28,1.877q-5.068,0-10.135,0c-.654,0-1.255-.04-1.449-.824C31.072.792,31.445.3,31.824.3c4.8-.052,9.591-.073,14.387-.015,2.147.026,3.365,1.36,3.429,3.537.035,1.193.006,2.388.006,3.558,2.806.794,3.8,1.814,3.644,3.691-.148,1.818-1.293,2.837-3.59,3.152v2.568a18.393,18.393,0,0,1,3.031,2.12,3.237,3.237,0,0,1,.485,2.141c-.049,1.548-1.3,2.549-3.52,2.983v2.9c2.647.646,3.664,1.661,3.592,3.574-.069,1.823-1.2,2.875-3.583,3.3v2.889c2.732.7,3.669,1.657,3.578,3.655-.082,1.779-1.151,2.757-3.637,3.21,0,.9.008,1.827,0,2.756a3.309,3.309,0,0,1-3.554,3.634c-2.318.041-4.638.009-6.94.009-.285,1.616.044,2.123,1.416,2.637.35.131.569.61.848.929-.414.186-.848.567-1.237.525a3.046,3.046,0,0,1-2.68-2.731c-.076-.423-.113-.853-.173-1.315H34.394c-.48,2.941-1.451,4.139-3.368,4.187-1.867.047-2.857-1.119-3.526-4.186H24.489c.079,1.358-.133,2.672-1.352,3.439a4.272,4.272,0,0,1-2.123.643c-1.9.019-2.945-1.379-3.167-4.067h-3.13c.059,1.37-.136,2.722-1.4,3.505a3.929,3.929,0,0,1-2.019.6c-2.027-.038-2.971-1.291-3.25-4.167-1.394,0-2.8.013-4.21,0C1.188,49.926,0,48.723,0,46.064Q0,25.083,0,4.1C0,1.567,1.275.272,3.809.267,9.44.255,15.071.264,20.7.262c.632,0,1.271-.028,1.458.788M1.579,18.4c3.739.454,9.546-2.352,12.621-6.106A16.443,16.443,0,0,0,18.151,1.927H17q-6.645,0-13.29,0c-1.589,0-2.129.548-2.131,2.167q-.007,6.481,0,12.963V18.4m11.5,31.63H9.7c-.087,1.7.5,2.538,1.731,2.538s1.8-.871,1.652-2.538m6.432-.039c-.169.986-.1,1.906.839,2.292a2.375,2.375,0,0,0,1.791-.084,1.849,1.849,0,0,0,.733-2.207Zm9.779.014c-.139.951-.132,1.881.8,2.284a2.348,2.348,0,0,0,1.793-.031c.841-.441.907-1.351.794-2.254Zm20.4-31.02v3.305c1.349.036,2.077-.569,2.074-1.674,0-1.134-.746-1.739-2.074-1.632m.028-9.8V12.56c1.405-.131,2.067-.744,2.022-1.8-.044-1.02-.792-1.611-2.022-1.57m-.03,29.245V41.79c1.209.065,1.959-.474,2.041-1.425.1-1.138-.546-1.785-2.041-1.932m-.009-6.4c1.362.01,2.089-.611,2.064-1.681s-.83-1.694-2.064-1.582Z" transform="translate(0 -0.194)" fill="#27272e"/>
        <path id="Path_1242380" data-name="Path 1242380" d="M203.065,240.87a7.285,7.285,0,0,1-1.726-.036c-.353-.089-.619-.524-.924-.8.288-.263.56-.731.865-.754a22.865,22.865,0,0,1,3.572,0c.333.028.629.515.942.792-.332.267-.628.676-1,.766a7.513,7.513,0,0,1-1.727.034" transform="translate(-156.554 -186.857)" fill="#34343b"/>
        <path id="Path_1242381" data-name="Path 1242381" d="M115.81.865c-.353.276-.718.8-1.056.782-.936-.05-2.123.573-2.718-.75.518-1.356,1.691-.763,2.595-.788.386-.011.785.488,1.179.756" transform="translate(-87.517 -0.001)" fill="#312f35"/>
        <path id="Path_1242382" data-name="Path 1242382" d="M186.306,121.727a2.791,2.791,0,0,1-.026,1.066,4.249,4.249,0,0,1-.807.944c-.265-.293-.713-.56-.758-.883a8.257,8.257,0,0,1,.022-2.36c.048-.311.51-.557.784-.832.261.293.625.547.754.89a3.545,3.545,0,0,1,.03,1.175" transform="translate(-144.232 -93.474)" fill="#332f32"/>
        <path id="Path_1242383" data-name="Path 1242383" d="M186.226,151.818c0,.254,0,.508,0,.761.011.6-.14,1.21-.831,1.107-.313-.047-.694-.649-.769-1.051a5.323,5.323,0,0,1,.016-2.051c.075-.35.558-.613.856-.916a2,2,0,0,1,.726,2.15" transform="translate(-144.151 -116.913)" fill="#322f32"/>
        <path id="Path_1242384" data-name="Path 1242384" d="M34.473,121.944a5.689,5.689,0,0,1,.091-1.391c.092-.283.429-.652.68-.671a.945.945,0,0,1,.743.568,15.212,15.212,0,0,1,.038,2.8.964.964,0,0,1-.722.617,1.027,1.027,0,0,1-.713-.629,5.041,5.041,0,0,1-.118-1.289" transform="translate(-26.929 -93.646)" fill="#2b292e"/>
        <path id="Path_1242385" data-name="Path 1242385" d="M36.037,151.837a2.828,2.828,0,0,1-.028,1.066,3.65,3.65,0,0,1-.787.867c-.255-.289-.682-.551-.731-.871a7.129,7.129,0,0,1-.008-2.252c.06-.349.537-.626.825-.936a3.833,3.833,0,0,1,.7.949,3.8,3.8,0,0,1,.027,1.177" transform="translate(-26.87 -116.947)" fill="#2a292e"/>
        <path id="Path_1242386" data-name="Path 1242386" d="M121.3,36.634a3.584,3.584,0,0,1-1.177-.03c-.311-.115-.718-.471-.732-.739a1.031,1.031,0,0,1,.7-.739,11.161,11.161,0,0,1,2.579-.015,1.036,1.036,0,0,1,.665.78c-.008.253-.437.609-.747.706a4.481,4.481,0,0,1-1.286.03v.007" transform="translate(-93.263 -27.375)" fill="#2a292e"/>
        <path id="Path_1242387" data-name="Path 1242387" d="M186.2,61.749c0,.218,0,.435,0,.653-.006.6-.046,1.318-.831,1.215-.311-.041-.659-.719-.766-1.162a3.7,3.7,0,0,1,0-1.724c.1-.4.525-.717.8-1.071a4.734,4.734,0,0,1,.759,1.012,3.062,3.062,0,0,1,.026,1.077h0" transform="translate(-144.122 -46.603)" fill="#2f2d31"/>
        <path id="Path_1242388" data-name="Path 1242388" d="M184.674,91.608c0-.288-.1-.625.021-.853a6.952,6.952,0,0,1,.812-1.059c.265.324.7.62.759.979a6.567,6.567,0,0,1-.008,2.147c-.056.335-.477.608-.733.91a3.9,3.9,0,0,1-.812-.948,3.308,3.308,0,0,1-.03-1.175h-.009" transform="translate(-144.23 -70.066)" fill="#312e31"/>
        <path id="Path_1242389" data-name="Path 1242389" d="M180.751,182.958c-.491-.281-1.091-.417-1.254-.761-.319-.672.275-.887.825-1.094.193-.072.239-.476.413-.676s.42-.457.644-.467.662.221.683.388a4.355,4.355,0,0,1-.031,1.89c-.111.321-.771.453-1.28.72" transform="translate(-140.145 -140.576)" fill="#2a292e"/>
        <path id="Path_1242390" data-name="Path 1242390" d="M151.753,34.974a4.221,4.221,0,0,1,1.218.113,1.008,1.008,0,0,1,.576.737.953.953,0,0,1-.623.694,12.183,12.183,0,0,1-2.579,0,1.069,1.069,0,0,1-.673-.754c-.032-.2.357-.611.63-.695a6.107,6.107,0,0,1,1.451-.094" transform="translate(-116.915 -27.32)" fill="#27272d"/>
        <path id="Path_1242391" data-name="Path 1242391" d="M182.525,36.241c-.256.38-.431.94-.786,1.1-.6.271-.847-.252-1.041-.78-.073-.2-.459-.26-.639-.445a1.479,1.479,0,0,1-.477-.752.879.879,0,0,1,.441-.648c1.265-.661,2.355.014,2.5,1.523" transform="translate(-140.28 -26.922)" fill="#2c2a2f"/>
        <path id="Path_1242392" data-name="Path 1242392" d="M91.03,186.913a3.886,3.886,0,0,1-1.188-.028c-.313-.105-.544-.451-.811-.691.253-.265.484-.728.764-.76a11.11,11.11,0,0,1,2.6.013c.262.032.593.5.647.812.029.17-.424.544-.714.622a5.149,5.149,0,0,1-1.3.028v0" transform="translate(-69.547 -144.797)" fill="#27272d"/>
        <path id="Path_1242393" data-name="Path 1242393" d="M121.295,187.016a4.762,4.762,0,0,1-1.287-.028c-.275-.079-.642-.427-.653-.668s.334-.728.558-.749a15.259,15.259,0,0,1,2.793-.01c.238.021.65.518.606.711a1.2,1.2,0,0,1-.731.713,4.544,4.544,0,0,1-1.286.031" transform="translate(-93.234 -144.905)" fill="#29292e"/>
        <path id="Path_1242394" data-name="Path 1242394" d="M61.09,186.887a4,4,0,0,1-1.184-.028c-.313-.1-.55-.438-.82-.671.238-.274.452-.753.719-.784a11.074,11.074,0,0,1,2.59,0c.264.032.474.512.709.786-.274.232-.515.565-.831.667a3.963,3.963,0,0,1-1.184.026" transform="translate(-46.155 -144.771)" fill="#28272d"/>
        <path id="Path_1242395" data-name="Path 1242395" d="M36.323,182.964c-.522-.258-1.194-.377-1.3-.685a4.353,4.353,0,0,1-.009-1.88c.022-.163.444-.393.666-.376s.469.271.645.473.222.609.4.661c.593.17,1.114.438.817,1.083-.154.335-.754.464-1.224.726" transform="translate(-27.275 -140.624)" fill="#26262c"/>
        <path id="Path_1242396" data-name="Path 1242396" d="M151.572,187.059a4.236,4.236,0,0,1-1.189-.026c-.281-.085-.663-.4-.68-.637s.321-.737.54-.759a15.245,15.245,0,0,1,2.811-.015c.211.019.541.529.519.789-.019.233-.417.546-.7.62a5.36,5.36,0,0,1-1.3.028" transform="translate(-116.94 -144.954)" fill="#26262c"/>
        <path id="Path_1242397" data-name="Path 1242397" d="M97.385,37.039c-.58-.5-1.222-.788-1.28-1.164-.122-.784.6-.811,1.194-.826s1.31.018,1.266.765c-.021.368-.65.7-1.181,1.225" transform="translate(-75.062 -27.377)" fill="#2a292e"/>
        <path id="Path_1242398" data-name="Path 1242398" d="M36.6,97.929c-.554.572-.879,1.2-1.255,1.235-.8.066-.752-.688-.769-1.268s.064-1.24.771-1.152c.384.048.7.637,1.253,1.185" transform="translate(-27.008 -75.565)" fill="#2a292e"/>
        <path id="Path_1242399" data-name="Path 1242399" d="M7.213,24.391V23.045q0-6.481,0-12.963c0-1.619.542-2.166,2.131-2.167q6.645-.005,13.29,0h1.15a16.446,16.446,0,0,1-3.951,10.371c-3.075,3.754-8.881,6.56-12.621,6.106" transform="translate(-5.634 -6.181)" fill="#6d523d"/>
      </g>
    </g>
  </g>
</svg>
