<svg xmlns="http://www.w3.org/2000/svg" xmlns:xlink="http://www.w3.org/1999/xlink" width="88" height="88" viewBox="0 0 88 88">
  <defs>
    <filter id="Ellipse_12115" x="0" y="0" width="88" height="88" filterUnits="userSpaceOnUse">
      <feOffset dy="3" input="SourceAlpha"/>
      <feGaussianBlur stdDeviation="3" result="blur"/>
      <feFlood flood-opacity="0.161"/>
      <feComposite operator="in" in2="blur"/>
      <feComposite in="SourceGraphic"/>
    </filter>
    <clipPath id="clip-path">
      <rect id="Rectangle_410593" data-name="Rectangle 410593" width="42.76" height="53.963" fill="none"/>
    </clipPath>
  </defs>
  <g id="Group_1187981" data-name="Group 1187981" transform="translate(-799.781 -2543.672)">
    <g transform="matrix(1, 0, 0, 1, 799.78, 2543.67)" filter="url(#Ellipse_12115)">
      <g id="Ellipse_12115-2" data-name="Ellipse 12115" transform="translate(9 6)" fill="#fff" stroke="#ff9927" stroke-width="2">
        <circle cx="35" cy="35" r="35" stroke="none"/>
        <circle cx="35" cy="35" r="34" fill="none"/>
      </g>
    </g>
    <g id="Group_1187983" data-name="Group 1187983" transform="translate(822.401 2557.69)">
      <g id="Group_1187982" data-name="Group 1187982" clip-path="url(#clip-path)">
        <path id="Path_1242357" data-name="Path 1242357" d="M37.252,53.706a2.316,2.316,0,0,1,.657,2.707c-.642,1.536-2.035,1.578-3.29,1.506a9.569,9.569,0,0,1,.022,1.962,2.282,2.282,0,0,1-2.219,1.7c-1.618.017-3.239.059-4.854-.012a2.4,2.4,0,0,1-2.21-3.121c.055-.165.119-.326.2-.531H24.441a2.427,2.427,0,0,1-2.457-2.837,5.719,5.719,0,0,1,.8-1.461A2.173,2.173,0,0,1,22,51.254a2.749,2.749,0,0,1,1.926-1.765,12.6,12.6,0,0,0-1.61-6.164,18.019,18.019,0,0,0-3.67-4.635,14.886,14.886,0,0,1-3.82-6.151,13.787,13.787,0,0,1-.709-6.085,15.26,15.26,0,0,1,2.374-6.7,14.784,14.784,0,0,1,5.288-5.083,15.729,15.729,0,0,1,8.756-2.205,15.951,15.951,0,0,1,10.23,4.063,16.977,16.977,0,0,1,3.651,4.844A14.3,14.3,0,0,1,45.9,29.23a11.637,11.637,0,0,1-1.029,4.342,15.581,15.581,0,0,1-3.615,5.3,16.858,16.858,0,0,0-3.962,5.392,12.52,12.52,0,0,0-1.208,4.85.427.427,0,0,0,.325.506c1.854.76,2.236,2.553.843,4.083M35.68,14.749l-.125-.07c-.1-.045-.193-.1-.293-.134a14.777,14.777,0,0,0-7.73-.747,14.4,14.4,0,0,0-9.4,5.631,13.749,13.749,0,0,0-2.34,12.191,13.393,13.393,0,0,0,3.689,6.31A28.3,28.3,0,0,1,22.4,41.221,14.341,14.341,0,0,1,24.9,47.451q.119,1,.238,2.006h9.727c.069-.629.119-1.235.2-1.835a15.008,15.008,0,0,1,3.807-7.968c.745-.843,1.613-1.578,2.365-2.417a15.16,15.16,0,0,0,3.557-9.03,7.968,7.968,0,0,0-.158-1.416,13.585,13.585,0,0,0-4.258-9.013,13.36,13.36,0,0,0-4.705-3.031ZM30.028,50.581c-1.816,0-3.633,0-5.45,0a1.323,1.323,0,0,0-1.429,1.233,1.281,1.281,0,0,0,1.342,1.315c3.669.016,7.338.01,11.007,0a1.263,1.263,0,0,0,1.14-.6,1.175,1.175,0,0,0,.043-1.275,1.3,1.3,0,0,0-1.2-.678q-2.725,0-5.45,0m.005,3.666q-2.7,0-5.393,0a1.329,1.329,0,0,0-1.492,1.273A1.286,1.286,0,0,0,24.6,56.77c1.114.01,2.229,0,3.343,0q3.694,0,7.388,0a1.382,1.382,0,0,0,1.212-.448,1.187,1.187,0,0,0,.189-1.309,1.251,1.251,0,0,0-1.2-.768q-2.75,0-5.5,0m.019,3.666v0c-.791,0-1.582-.017-2.372.005a1.232,1.232,0,0,0-1.188,1.168,1.179,1.179,0,0,0,1.022,1.3c1.652.041,3.306.036,4.958,0,.6-.012,1.467-.91,1.055-1.635a1.461,1.461,0,0,0-1.317-.849c-.719.007-1.438,0-2.157,0" transform="translate(-8.624 -7.646)" fill="#0b0a0a"/>
        <path id="Path_1242358" data-name="Path 1242358" d="M53.764,1.246v-.7c0-.438.319-.521.648-.544a.475.475,0,0,1,.562.505q.019.726,0,1.454a.471.471,0,0,1-.551.513c-.332-.021-.655-.083-.659-.527,0-.234,0-.467,0-.7h0" transform="translate(-32.999 0)" fill="#0d0c0e"/>
        <path id="Path_1242359" data-name="Path 1242359" d="M91.736,88.52c-.12.139-.226.37-.388.422a.864.864,0,0,1-.687-.04,6.2,6.2,0,0,1-1.088-1.1.679.679,0,0,1,.033-.652c.121-.146.516-.265.633-.18a14.224,14.224,0,0,1,1.343,1.191c.069.065.083.187.153.355" transform="translate(-54.936 -53.366)" fill="#0f0f11"/>
        <path id="Path_1242360" data-name="Path 1242360" d="M89.923,17.57c-.132-.111-.341-.212-.42-.375a.6.6,0,0,1,.029-.53,5.691,5.691,0,0,1,1.1-1.088.959.959,0,0,1,.849.064c.3.19.223.547-.022.788-.353.346-.73.67-1.109.987a1.581,1.581,0,0,1-.427.154" transform="translate(-54.906 -9.516)" fill="#0d0d0e"/>
        <path id="Path_1242361" data-name="Path 1242361" d="M1.21,53.48a1.684,1.684,0,0,1-.64-.016c-.23-.1-.55-.309-.569-.5a.749.749,0,0,1,.435-.6,7.287,7.287,0,0,1,1.753.056.655.655,0,0,1,.365.528.712.712,0,0,1-.438.487,3.316,3.316,0,0,1-.908.021v.025" transform="translate(0 -32.121)" fill="#111012"/>
        <path id="Path_1242362" data-name="Path 1242362" d="M18,87.507a3.387,3.387,0,0,1-.31.494c-.265.29-.549.563-.832.836a.574.574,0,0,1-.891.042.544.544,0,0,1,.051-.847,10.408,10.408,0,0,1,.964-.93.753.753,0,0,1,.624-.065c.163.062.26.3.394.469" transform="translate(-9.691 -53.398)" fill="#0f0f11"/>
        <path id="Path_1242363" data-name="Path 1242363" d="M17.411,17.63a2.047,2.047,0,0,1-.5-.226c-.331-.3-.649-.619-.951-.949-.236-.258-.29-.607.015-.79a.887.887,0,0,1,.789,0,4.84,4.84,0,0,1,.988.981.688.688,0,0,1,.08.572c-.06.166-.275.276-.421.409" transform="translate(-9.675 -9.559)" fill="#0c0c0d"/>
        <path id="Path_1242364" data-name="Path 1242364" d="M105.562,53.382c-.214,0-.429,0-.643,0-.365.01-.64-.185-.592-.52a.869.869,0,0,1,.5-.619,3.725,3.725,0,0,1,1.434,0,.845.845,0,0,1,.528.6c.033.339-.246.563-.638.545-.2-.009-.392,0-.589,0" transform="translate(-64.03 -32.023)" fill="#111012"/>
        <path id="Path_1242365" data-name="Path 1242365" d="M26.857,49.25a14.339,14.339,0,0,0-2.505-6.229,28.328,28.328,0,0,0-2.917-3.289,13.39,13.39,0,0,1-3.689-6.31,13.749,13.749,0,0,1,2.34-12.191,14.407,14.407,0,0,1,9.4-5.632,14.781,14.781,0,0,1,7.73.747c.1.038.2.089.293.134l.125.07,0,0a1.617,1.617,0,0,0,.2.288c.672.638,1.376,1.246,2.021,1.91a15.479,15.479,0,0,1,3.217,5.767,12.289,12.289,0,0,1,.514,4.538,13.457,13.457,0,0,1-1.14,4.964,13.425,13.425,0,0,1-3.123,4.714,20.808,20.808,0,0,0-2.806,3.16c-.832,1.158-1.638,2.345-2.577,3.413a14.162,14.162,0,0,1-5.85,3.787,5.413,5.413,0,0,1-1.228.163m5.1-25.482v-.005c-.413,0-.827-.022-1.239,0a1.926,1.926,0,0,0-1.808,2.168q.536,5.245,1.051,10.492a1.953,1.953,0,0,0,1.987,1.86,1.93,1.93,0,0,0,1.987-1.8Q34.48,31.164,35,25.836a1.9,1.9,0,0,0-1.75-2.064c-.429-.032-.862-.005-1.292-.005M29.635,41.761a2.321,2.321,0,1,0,2.384-2.3,2.291,2.291,0,0,0-2.384,2.3" transform="translate(-10.581 -9.444)" fill="#ffc200"/>
        <path id="Path_1242366" data-name="Path 1242366" d="M42.142,51.089a5.406,5.406,0,0,0,1.228-.163,14.162,14.162,0,0,0,5.85-3.787c.939-1.068,1.746-2.254,2.577-3.413a20.831,20.831,0,0,1,2.807-3.16,13.42,13.42,0,0,0,3.123-4.714,13.457,13.457,0,0,0,1.14-4.964,12.289,12.289,0,0,0-.514-4.538,15.48,15.48,0,0,0-3.217-5.767c-.645-.664-1.349-1.271-2.02-1.91a1.65,1.65,0,0,1-.2-.288,13.358,13.358,0,0,1,4.706,3.031,13.585,13.585,0,0,1,4.258,9.013,8,8,0,0,1,.158,1.416,15.16,15.16,0,0,1-3.557,9.03c-.752.838-1.619,1.573-2.365,2.417a15.01,15.01,0,0,0-3.807,7.968c-.084.6-.134,1.206-.2,1.835H42.38q-.119-1-.238-2.006" transform="translate(-25.866 -11.284)" fill="#dda500"/>
        <path id="Path_1242367" data-name="Path 1242367" d="M44.487,111.166q2.725,0,5.45,0a1.3,1.3,0,0,1,1.2.678,1.175,1.175,0,0,1-.043,1.275,1.262,1.262,0,0,1-1.139.6c-3.669.006-7.338.012-11.007,0a1.281,1.281,0,0,1-1.342-1.315,1.323,1.323,0,0,1,1.429-1.233c1.816-.005,3.633,0,5.45,0" transform="translate(-23.082 -68.23)" fill="#294b96"/>
        <path id="Path_1242368" data-name="Path 1242368" d="M44.492,120.659q2.75,0,5.5,0a1.251,1.251,0,0,1,1.2.768A1.187,1.187,0,0,1,51,122.737a1.381,1.381,0,0,1-1.212.449q-3.694-.006-7.388,0c-1.115,0-2.229.007-3.344,0a1.286,1.286,0,0,1-1.448-1.25,1.33,1.33,0,0,1,1.492-1.273q2.7,0,5.392,0" transform="translate(-23.082 -74.057)" fill="#003686"/>
        <path id="Path_1242369" data-name="Path 1242369" d="M49.821,130.145c.719,0,1.438.005,2.157,0a1.461,1.461,0,0,1,1.317.849c.412.725-.453,1.623-1.055,1.635-1.652.032-3.306.037-4.958,0a1.179,1.179,0,0,1-1.022-1.3,1.232,1.232,0,0,1,1.188-1.168c.79-.022,1.581-.005,2.372-.005Z" transform="translate(-28.392 -79.878)" fill="#2a4c98"/>
        <path id="Path_1242370" data-name="Path 1242370" d="M69.855,18.282l-.125-.07.125.07" transform="translate(-42.799 -11.178)" fill="#dda500"/>
        <path id="Path_1242371" data-name="Path 1242371" d="M50.494,37.063c.431,0,.864-.027,1.292.005a1.9,1.9,0,0,1,1.75,2.063q-.52,5.328-1.064,10.654a1.929,1.929,0,0,1-1.987,1.8,1.954,1.954,0,0,1-1.987-1.86q-.517-5.246-1.051-10.492a1.926,1.926,0,0,1,1.808-2.168c.411-.026.826,0,1.239,0v.005m.017,1.1c-.144,0-.288.008-.431,0-1.689-.11-1.555.526-1.439,1.686q.355,3.558.717,7.116c.094.927.194,1.853.292,2.78.058.545.439.71.9.715a.736.736,0,0,0,.78-.726c.029-.213.054-.426.075-.64q.3-3,.605-5.992c.128-1.284.265-2.568.367-3.854.064-.807-.214-1.079-1.007-1.082-.287,0-.575,0-.862,0" transform="translate(-29.115 -22.74)" fill="#110b03"/>
        <path id="Path_1242372" data-name="Path 1242372" d="M49.334,80.012a2.321,2.321,0,0,1,4.642-.038,2.321,2.321,0,0,1-4.642.038m2.383-1.156A1.18,1.18,0,0,0,50.432,80a1.224,1.224,0,1,0,1.285-1.148" transform="translate(-30.28 -47.695)" fill="#100c03"/>
        <path id="Path_1242373" data-name="Path 1242373" d="M52.325,39.91c.287,0,.575,0,.862,0,.793,0,1.071.275,1.007,1.082-.1,1.287-.239,2.57-.367,3.854q-.3,3-.605,5.992c-.022.214-.046.428-.075.64a.736.736,0,0,1-.78.726c-.465-.005-.846-.17-.9-.715-.1-.927-.2-1.853-.292-2.78q-.361-3.558-.717-7.116c-.116-1.16-.25-1.8,1.439-1.686.143.009.287,0,.431,0" transform="translate(-30.93 -24.487)" fill="#e03739"/>
        <path id="Path_1242374" data-name="Path 1242374" d="M53.462,80.681a1.148,1.148,0,1,1-1.285,1.148,1.18,1.18,0,0,1,1.285-1.148" transform="translate(-32.025 -49.52)" fill="#de3639"/>
      </g>
    </g>
  </g>
</svg>
